if (_typeface_js && _typeface_js.loadFace) _typeface_js.loadFace({"glyphs":{"0":{"ha":663,"x_min":15,"x_max":646,"o":"m 25 188 q 69 474 15 321 q 172 678 113 599 q 342 839 256 789 q 360 842 357 847 q 349 829 363 836 q 201 663 256 760 q 129 467 157 585 q 103 250 97 343 q 251 49 114 49 q 443 196 363 49 q 550 604 550 393 q 549 653 550 629 q 438 824 536 824 q 351 786 397 824 q 342 785 346 781 q 349 800 339 788 q 513 882 417 882 q 594 842 563 882 q 631 736 626 801 q 471 203 646 486 q 351 63 421 121 q 181 -15 263 -15 q 25 188 39 -15 z "},"1":{"ha":382,"x_min":19,"x_max":424,"o":"m 307 825 q 101 717 188 744 q 75 725 85 711 q 122 753 74 736 q 185 772 153 763 q 400 893 289 822 q 419 893 414 901 q 413 881 424 888 q 374 858 393 869 q 343 824 354 847 q 239 519 306 743 q 128 65 186 340 q 113 36 122 42 q 45 -5 61 7 q 25 -14 29 -17 q 26 11 19 -10 q 144 406 88 199 q 228 718 174 518 q 249 765 236 749 q 307 825 263 782 z "},"2":{"ha":626,"x_min":-90,"x_max":538,"o":"m 78 83 q 231 76 119 88 q 404 63 361 63 q 496 113 465 63 q 504 124 501 124 q 506 107 513 121 q 468 38 489 68 q 367 -11 436 -11 q 209 10 338 -11 q 24 31 81 31 q -67 10 -28 31 q -81 3 -85 3 q -76 21 -90 3 q -50 47 -67 33 q -11 75 -22 69 q 68 115 33 94 q 267 279 175 183 q 461 628 450 472 q 423 769 467 721 q 301 818 379 818 q 181 779 239 818 q 104 692 128 743 q 88 675 97 669 q 89 696 81 679 q 192 815 124 761 q 361 885 276 885 q 497 832 451 885 q 535 706 538 785 q 283 271 528 524 q 78 83 176 160 z "},"3":{"ha":515,"x_min":-87,"x_max":458,"o":"m 238 492 q 373 437 322 490 q 421 303 424 383 q 211 32 417 147 q -22 -37 88 -37 q -87 3 -87 -37 q -73 28 -87 19 q -39 33 -58 38 q 67 15 36 15 q 250 83 174 15 q 335 281 335 160 q 280 401 335 350 q 160 453 225 453 q 139 449 147 453 q 122 451 124 443 q 136 465 119 463 q 308 557 239 482 q 376 726 376 632 q 338 809 376 778 q 247 840 300 840 q 101 771 154 840 q 81 760 89 756 q 88 786 69 767 q 181 849 117 818 q 331 885 258 885 q 422 853 385 885 q 458 768 458 821 q 378 594 458 681 q 238 492 313 522 z "},"4":{"ha":636,"x_min":-18,"x_max":606,"o":"m 57 404 q 5 398 21 404 q -10 390 -11 392 q -12 410 -18 396 q 6 428 -10 417 q 125 514 99 493 q 271 636 204 574 q 496 875 401 758 q 513 899 515 899 q 519 876 522 899 q 507 847 518 863 q 286 615 444 760 q 47 429 151 492 q 374 443 139 457 q 467 746 422 619 q 515 818 482 790 q 588 860 529 829 q 604 863 601 867 q 594 850 606 860 q 564 804 576 832 q 438 438 503 671 q 503 435 489 435 q 550 457 540 436 q 558 468 554 468 q 563 456 565 468 q 525 376 549 394 q 467 367 507 364 q 419 371 436 369 q 343 53 392 265 q 328 26 339 35 q 257 -24 300 8 q 240 -32 247 -35 q 243 -12 236 -29 q 308 203 261 35 q 356 379 322 253 q 57 404 219 404 z "},"5":{"ha":533,"x_min":-65,"x_max":554,"o":"m 64 24 q 319 139 239 18 q 360 272 360 200 q 300 399 360 347 q 171 474 264 431 q 110 546 110 503 q 119 594 110 567 q 197 806 147 672 q 221 858 217 853 q 251 869 229 869 q 325 867 239 869 q 444 867 397 865 q 503 869 494 868 q 542 883 529 872 q 550 888 550 888 q 551 874 554 886 q 518 813 532 824 q 446 799 500 797 q 247 803 300 803 q 222 794 231 803 q 210 775 214 786 q 164 629 193 732 q 163 613 163 621 q 200 556 163 576 q 365 460 350 471 q 446 321 446 399 q 353 125 446 228 q 174 7 286 51 q 25 -29 83 -29 q -64 8 -62 -29 q -55 33 -65 22 q -31 44 -44 44 q 8 35 -21 44 q 64 24 36 25 z "},"6":{"ha":517,"x_min":-17,"x_max":571,"o":"m 569 856 q 529 825 568 825 q 492 833 517 825 q 446 842 467 840 q 275 767 360 844 q 154 585 206 703 q 92 372 110 483 q 207 483 133 444 q 325 514 269 517 q 458 347 453 507 q 372 96 463 208 q 168 -17 281 -17 q 35 46 86 -17 q -17 214 -17 108 q 58 510 -17 351 q 236 761 132 668 q 496 894 386 894 q 569 856 571 894 m 390 265 q 264 461 396 461 q 149 414 201 461 q 69 171 64 339 q 106 62 72 104 q 197 19 139 19 q 335 96 279 19 q 390 265 388 168 z "},"7":{"ha":506,"x_min":83,"x_max":597,"o":"m 546 832 q 439 807 508 808 q 247 804 310 804 q 168 799 190 804 q 114 747 128 786 q 101 731 108 729 q 103 756 96 732 q 131 829 115 799 q 204 878 154 878 q 372 865 260 878 q 526 853 485 853 q 592 867 561 853 q 596 857 597 864 q 444 690 503 781 q 256 306 322 503 q 186 44 214 182 q 167 15 182 28 q 100 -26 143 1 q 89 -28 93 -32 q 86 -10 83 -24 q 188 306 117 149 q 385 644 253 451 q 546 832 456 747 z "},"8":{"ha":579,"x_min":-4,"x_max":553,"o":"m 553 778 q 353 507 553 640 q 336 501 339 497 q 349 517 333 504 q 478 747 478 621 q 376 858 478 858 q 361 856 375 858 q 351 857 353 854 q 357 867 349 864 q 444 892 407 892 q 553 778 553 892 m 483 247 q 385 72 483 160 q 169 -18 282 -18 q 47 24 99 -18 q -4 139 -4 67 q 249 460 -4 306 q 151 642 151 557 q 207 792 151 722 q 328 885 254 850 q 339 883 335 889 q 332 875 342 881 q 221 683 221 811 q 249 588 221 631 q 321 503 264 563 q 426 390 424 392 q 483 247 483 317 m 411 207 q 361 346 411 281 q 258 450 344 368 q 76 161 76 335 q 121 56 76 92 q 219 24 160 24 q 344 65 292 24 q 411 207 411 115 z "},"9":{"ha":597,"x_min":-25,"x_max":563,"o":"m 308 107 q 51 -14 172 -14 q -24 28 -25 -14 q 15 58 -22 58 q 53 51 28 58 q 100 42 79 43 q 172 46 149 40 q 271 101 222 57 q 392 283 340 165 q 454 496 436 385 q 339 386 413 425 q 221 356 276 353 q 88 521 89 363 q 176 771 86 657 q 378 885 267 885 q 511 822 460 885 q 563 654 563 760 q 488 358 563 517 q 308 107 414 200 m 478 699 q 442 806 476 764 q 349 849 407 849 q 211 771 267 849 q 156 603 160 700 q 281 408 149 408 q 397 457 343 408 q 478 699 482 532 z "}," ":{"ha":353,"x_min":0,"x_max":0,"o":""},"!":{"ha":322,"x_min":-6,"x_max":342,"o":"m 54 174 q 146 506 75 226 q 221 779 165 597 q 317 861 239 826 q 340 863 336 869 q 330 844 342 861 q 294 782 318 828 q 194 492 244 663 q 126 256 171 413 q 108 208 117 221 q 54 174 96 194 m 7 21 q -6 44 -6 38 q 17 69 -6 51 q 39 83 33 83 q 63 63 46 83 q 81 38 81 42 q 58 8 81 28 q 33 -7 42 -7 q 7 21 28 -7 z "},"\"":{"ha":367,"x_min":165,"x_max":397,"o":"m 321 690 q 315 718 314 690 q 318 814 315 749 q 321 901 319 847 q 363 943 324 943 q 393 908 397 943 q 363 799 390 883 q 333 710 353 771 q 321 690 326 690 m 172 690 q 167 718 165 690 q 169 814 167 749 q 172 901 171 847 q 214 943 175 943 q 244 908 249 943 q 214 799 242 883 q 185 710 204 771 q 172 690 178 690 z "},"#":{"ha":508,"x_min":-40,"x_max":475,"o":"m 147 393 q 21 389 93 392 q 18 393 18 389 q 31 429 18 404 q 47 451 43 454 q 160 447 68 450 l 199 611 q 231 629 203 629 q 242 621 244 629 q 196 447 240 615 q 303 446 214 446 l 343 611 q 374 629 347 629 q 385 621 388 629 q 339 446 378 594 q 474 450 458 449 q 475 447 475 450 q 463 412 475 436 q 444 388 450 388 q 324 392 407 392 q 290 260 310 333 q 415 264 400 263 q 417 261 417 264 q 404 225 417 250 q 386 201 392 200 q 276 206 374 203 q 228 18 251 108 q 197 1 224 1 q 188 10 185 1 q 242 207 201 56 q 135 208 224 208 l 83 18 q 53 1 79 1 q 43 10 40 1 q 99 208 60 65 q -37 203 3 206 q -40 207 -40 203 q -28 243 -40 218 q -11 265 -15 268 q 113 261 11 264 q 147 393 125 304 m 290 393 q 182 394 271 394 q 147 261 179 383 q 256 260 167 260 q 290 393 268 304 z "},"$":{"ha":494,"x_min":-15,"x_max":506,"o":"m 38 -8 q -15 38 -15 -10 q 4 110 -15 78 q 17 122 8 124 q 15 106 19 119 q 13 75 10 93 q 94 31 21 31 q 151 35 129 31 l 232 356 q 161 454 197 404 q 125 565 126 511 q 267 772 124 688 q 350 811 311 799 l 375 908 l 399 908 l 375 817 q 447 824 417 824 q 499 785 506 824 q 463 764 493 753 q 368 783 401 785 l 282 447 q 353 347 342 368 q 382 239 386 292 q 294 83 376 151 q 171 14 243 40 l 146 -81 l 121 -81 l 143 6 q 38 -8 85 -7 m 343 783 q 260 750 297 782 q 203 628 210 707 q 264 469 197 563 l 343 783 m 304 186 q 250 336 304 264 l 176 39 q 304 186 304 65 z "},"%":{"ha":596,"x_min":-49,"x_max":635,"o":"m 343 797 q 264 594 339 679 q 171 536 213 536 q 117 626 114 536 q 193 829 121 747 q 289 885 232 885 q 343 797 346 885 m 635 897 q 585 833 628 892 q 336 485 475 686 q 63 51 228 326 q 26 15 47 25 q -49 -4 4 4 q 1 63 -40 6 q 297 493 74 163 q 519 836 415 668 q 564 883 542 872 q 635 897 578 889 m 465 256 q 386 53 461 138 q 293 -6 335 -6 q 239 85 236 -6 q 315 288 243 207 q 411 343 354 343 q 465 256 468 343 m 297 774 q 256 857 300 857 q 206 815 229 857 q 163 651 168 750 q 171 592 160 614 q 203 571 182 571 q 254 607 233 572 q 297 774 293 675 m 419 232 q 378 315 422 315 q 328 275 350 315 q 285 110 289 206 q 294 51 283 74 q 325 29 304 29 q 376 67 356 31 q 419 232 415 133 z "},"&":{"ha":813,"x_min":0,"x_max":796,"o":"m 532 60 q 267 -29 429 -31 q 69 36 142 -28 q 0 186 0 96 q 46 336 0 258 q 143 447 86 401 q 353 546 226 514 q 249 607 293 561 q 197 725 197 658 q 307 903 197 822 q 528 981 413 981 q 632 967 596 981 q 649 929 654 958 q 617 794 632 843 q 600 778 610 774 q 603 803 594 779 q 621 894 621 857 q 576 943 621 925 q 494 957 542 957 q 342 899 406 957 q 271 749 274 839 q 321 613 268 664 q 458 553 374 561 q 713 543 619 536 q 786 549 740 544 q 796 543 794 550 q 785 535 796 536 q 728 526 738 535 q 711 496 718 518 q 650 272 692 436 q 611 65 617 140 q 650 11 607 11 q 757 75 689 11 q 775 89 774 90 q 776 85 776 88 q 764 68 776 86 q 665 -11 729 29 q 561 -54 596 -54 q 519 -4 515 -54 q 532 60 521 4 m 553 132 q 592 279 567 188 q 635 479 621 385 q 614 512 639 503 q 499 529 589 521 q 386 529 433 535 q 163 429 244 513 q 88 243 88 351 q 147 79 88 140 q 332 15 213 15 q 494 53 432 15 q 553 132 532 75 z "},"'":{"ha":218,"x_min":165,"x_max":249,"o":"m 172 690 q 167 718 165 690 q 169 814 167 749 q 172 901 171 847 q 214 943 175 943 q 244 908 249 943 q 214 799 242 883 q 185 710 204 771 q 172 690 178 690 z "},"(":{"ha":314,"x_min":65,"x_max":383,"o":"m 151 -68 q 153 -72 153 -71 q 146 -76 153 -78 q 132 -68 138 -75 q 65 228 65 38 q 94 474 65 346 q 197 729 121 589 q 364 950 281 882 q 379 957 374 957 q 383 954 383 957 q 378 944 383 950 q 250 728 317 878 q 157 453 188 585 q 118 150 118 281 q 151 -68 118 28 z "},")":{"ha":314,"x_min":-49,"x_max":269,"o":"m 240 421 q 138 165 214 306 q -29 -56 54 13 q -44 -62 -39 -62 q -49 -60 -49 -62 q -43 -50 -49 -56 q 85 167 18 17 q 178 442 147 310 q 217 744 217 614 q 183 963 217 867 q 182 967 182 965 q 189 971 182 972 q 203 963 197 969 q 269 667 269 857 q 240 421 269 549 z "},"*":{"ha":508,"x_min":172,"x_max":488,"o":"m 486 849 q 346 776 439 828 q 482 683 358 769 q 475 666 486 681 q 458 656 464 651 q 338 765 392 711 q 321 593 332 694 q 301 590 319 586 q 283 599 282 593 q 322 761 299 658 q 193 665 313 754 q 180 672 188 661 q 172 692 172 682 q 174 697 172 696 q 321 778 290 758 q 183 864 231 833 q 190 884 178 869 q 207 894 201 899 q 326 792 290 825 q 343 939 333 856 q 363 944 344 947 q 379 935 381 942 q 342 792 365 889 q 465 879 393 828 q 479 871 471 882 q 488 851 488 860 q 486 849 488 850 z "},"+":{"ha":465,"x_min":24,"x_max":425,"o":"m 246 399 q 250 290 247 353 q 253 213 253 226 q 231 192 253 204 q 196 181 208 181 q 190 185 190 181 q 194 268 193 226 q 199 397 199 343 q 26 389 89 394 q 24 394 24 389 q 33 428 24 406 q 46 447 42 450 q 197 439 140 440 q 189 597 193 507 q 209 616 189 607 q 246 625 229 625 q 256 619 256 625 q 250 551 253 586 q 246 439 246 488 q 422 449 349 442 q 425 443 425 447 q 416 411 425 432 q 400 390 407 390 q 246 399 344 396 z "},",":{"ha":178,"x_min":-60,"x_max":79,"o":"m -58 -164 q -47 -143 -60 -161 q -6 -53 -24 -111 q 7 24 7 -12 q 42 65 7 60 q 79 35 79 72 q 33 -71 79 -6 q -44 -158 -3 -122 q -58 -164 -54 -168 z "},"-":{"ha":446,"x_min":44,"x_max":383,"o":"m 68 328 q 59 316 65 325 q 50 308 53 307 q 56 343 44 310 q 119 399 75 399 q 177 397 129 399 q 238 394 225 394 q 354 403 335 394 q 367 414 361 406 q 375 422 372 422 q 372 394 383 422 q 350 349 358 360 q 313 333 338 333 q 238 336 292 333 q 161 339 183 339 q 68 328 83 339 z "},".":{"ha":178,"x_min":-17,"x_max":94,"o":"m 78 58 q 94 31 94 38 q 64 -6 94 21 q 31 -28 39 -28 q 3 -3 22 -28 q -17 32 -17 22 q 14 67 -17 42 q 47 86 39 86 q 78 58 57 86 z "},"/":{"ha":393,"x_min":-72,"x_max":453,"o":"m 33 25 q -2 -24 18 -8 q -72 -60 -22 -40 q -26 24 -71 -58 q 168 393 79 217 q 343 731 239 528 q 390 801 372 792 q 453 822 422 813 q 406 739 451 819 q 217 392 304 560 q 33 25 79 129 z "},":":{"ha":219,"x_min":-1,"x_max":178,"o":"m 161 408 q 178 381 178 388 q 147 344 178 371 q 114 322 122 322 q 86 347 106 322 q 67 382 67 372 q 97 417 67 392 q 131 436 122 436 q 161 408 140 436 m 93 58 q 110 31 110 38 q 79 -6 110 21 q 46 -28 54 -28 q 18 -3 38 -28 q -1 32 -1 22 q 29 67 -1 42 q 63 86 54 86 q 93 58 72 86 z "},";":{"ha":225,"x_min":-43,"x_max":182,"o":"m 165 404 q 182 376 182 383 q 151 340 182 367 q 118 318 126 318 q 90 343 110 318 q 71 378 71 368 q 101 413 71 388 q 135 432 126 432 q 165 404 144 432 m -42 -165 q -31 -144 -43 -162 q 11 -54 -7 -112 q 24 22 24 -14 q 58 64 24 58 q 96 33 96 71 q 50 -72 96 -7 q -28 -160 14 -124 q -42 -165 -37 -169 z "},"<":{"ha":429,"x_min":42,"x_max":385,"o":"m 310 233 q 286 217 303 228 q 256 206 268 201 q 249 206 251 203 q 244 210 244 210 q 53 410 160 319 q 57 429 42 419 q 214 511 119 456 q 356 596 285 554 q 376 588 361 600 q 382 569 385 572 q 140 436 186 467 q 135 419 125 429 q 307 246 188 367 q 310 233 313 242 z "},"=":{"ha":465,"x_min":10,"x_max":435,"o":"m 232 457 q 36 449 128 457 q 33 454 33 449 q 42 486 33 464 q 56 507 51 508 q 231 499 106 499 q 432 508 336 499 q 435 504 435 508 q 426 471 435 492 q 410 450 417 450 q 232 457 332 457 m 208 339 q 13 331 104 339 q 10 336 10 331 q 19 368 10 346 q 32 389 28 390 q 207 381 82 381 q 408 390 313 381 q 411 386 411 390 q 402 353 411 374 q 386 332 393 332 q 208 339 308 339 z "},">":{"ha":429,"x_min":64,"x_max":379,"o":"m 368 383 q 97 196 322 358 q 76 203 90 193 q 65 221 64 218 q 286 369 224 321 q 289 388 301 379 q 85 550 246 418 q 85 563 78 556 q 101 581 89 569 q 131 594 121 594 q 138 594 135 597 q 143 590 140 590 q 368 403 246 488 q 368 383 379 394 z "},"?":{"ha":424,"x_min":57,"x_max":426,"o":"m 210 421 q 322 574 304 543 q 363 682 361 633 q 324 785 365 747 q 228 818 286 818 q 92 738 132 818 q 79 726 85 725 q 78 740 74 728 q 153 825 99 786 q 281 871 217 871 q 426 733 426 871 q 385 613 426 676 q 297 506 358 572 q 218 411 236 439 q 153 238 165 326 q 147 183 151 217 q 114 154 139 150 q 93 197 88 158 q 210 421 107 286 m 99 76 q 140 33 140 76 q 99 -7 140 -7 q 57 35 57 -7 q 99 76 57 76 z "},"@":{"ha":797,"x_min":44,"x_max":772,"o":"m 465 201 q 428 242 428 200 q 461 410 428 303 q 397 318 438 365 q 254 204 299 204 q 229 249 228 204 q 294 468 232 350 q 392 579 325 525 q 490 626 450 626 q 526 590 526 626 q 525 578 526 585 q 564 607 547 590 q 579 615 574 617 q 575 601 582 610 q 510 433 539 540 q 488 301 489 356 q 508 239 486 249 q 531 235 518 235 q 635 282 576 235 q 718 478 706 339 q 657 658 728 590 q 471 722 589 722 q 268 642 367 722 q 132 457 169 563 q 104 311 104 381 q 176 129 104 186 q 376 65 257 65 q 429 68 401 65 q 631 146 558 81 q 643 150 638 151 q 649 143 649 149 q 647 136 649 140 q 581 94 639 119 q 424 53 508 64 q 333 46 376 46 q 113 118 188 46 q 44 290 44 183 q 165 579 44 443 q 474 736 294 725 q 691 674 610 744 q 761 489 772 604 q 649 279 750 374 q 465 201 569 207 m 508 572 q 482 596 508 592 q 379 544 422 599 q 321 436 354 513 q 294 349 303 394 q 289 288 289 318 q 303 254 289 254 q 388 326 328 254 q 494 508 453 404 q 508 572 508 543 z "},"A":{"ha":1106,"x_min":-92,"x_max":1346,"o":"m -67 104 q -41 56 -67 76 q 26 36 -15 36 q 182 72 108 36 q 349 196 256 108 q 569 486 458 299 q 278 504 389 504 q 101 446 182 504 q 85 435 85 435 q 92 450 79 439 q 339 563 221 563 q 596 531 389 563 q 710 715 692 690 q 865 889 793 839 q 1144 983 1001 983 q 1218 978 1181 983 q 1304 1000 1263 1000 q 1346 979 1346 1000 q 1310 963 1346 963 q 1275 964 1299 963 q 1242 965 1251 965 q 1121 874 1185 965 q 972 528 1044 763 q 882 99 876 215 q 921 44 885 44 q 1025 110 964 44 q 1044 129 1043 129 q 1038 107 1051 125 q 947 26 1010 71 q 839 -24 876 -24 q 797 56 790 -24 q 844 296 803 124 q 904 525 879 446 q 729 481 849 481 q 590 486 650 481 q 488 328 560 431 q 374 175 417 225 q 182 13 286 71 q 13 -43 88 -43 q -92 43 -92 -43 q -78 119 -92 85 q -65 135 -71 136 q -67 104 -67 135 m 614 528 q 785 513 688 513 q 911 550 876 513 q 996 771 965 714 q 1194 968 1074 922 q 885 864 1032 968 q 614 528 758 774 z "},"B":{"ha":824,"x_min":-197,"x_max":778,"o":"m 765 743 q 668 579 760 646 q 465 503 583 517 l 464 499 q 655 435 581 499 q 724 276 729 372 q 590 58 715 139 q 326 -15 479 -15 q 119 0 247 -15 q -40 15 -10 15 q -181 -14 -135 15 q -194 -19 -193 -21 q -194 -8 -197 -17 q -78 60 -168 58 q -33 58 -54 60 q -6 63 -21 58 q 111 214 67 97 q 201 489 153 324 q 285 760 258 683 q 401 940 324 872 q -17 811 146 940 q -35 804 -26 804 q -54 829 -54 804 q -14 874 -54 856 q 415 957 175 958 q 578 1057 475 1017 q 597 1057 594 1064 q 579 1042 601 1049 q 461 957 504 1018 q 765 743 778 950 m 676 747 q 608 883 676 829 q 451 938 544 933 q 338 672 413 892 q 250 417 294 544 q 161 213 203 283 q 3 51 89 89 q 161 22 32 49 q 339 1 264 1 q 543 76 461 1 q 625 276 625 150 q 560 426 625 369 q 385 483 496 483 q 349 481 372 483 q 331 478 331 478 q 342 495 328 481 q 378 510 357 510 q 410 510 390 510 q 440 508 428 508 q 594 579 518 508 q 676 747 676 654 z "},"C":{"ha":750,"x_min":-4,"x_max":819,"o":"m 818 925 q 788 839 811 911 q 765 760 781 810 q 750 746 760 743 q 750 765 744 747 q 776 867 763 807 q 669 917 778 917 q 399 819 518 917 q 186 529 281 722 q 88 150 88 324 q 300 -104 88 -104 q 526 -26 414 -104 q 644 92 600 24 q 665 103 657 110 q 663 78 675 94 q 531 -44 621 22 q 225 -167 365 -167 q 55 -97 114 -167 q -4 90 -4 -28 q 121 521 -4 300 q 388 839 232 721 q 717 963 550 963 q 797 947 761 963 q 818 925 819 938 z "},"D":{"ha":1006,"x_min":-157,"x_max":961,"o":"m 418 938 q 178 899 294 938 q -3 806 71 864 q -21 799 -12 799 q -40 824 -40 799 q -7 871 -40 857 q 432 954 190 954 q 578 1049 507 1022 q 618 1053 615 1063 q 603 1043 619 1047 q 479 954 521 1021 q 838 857 710 954 q 958 593 961 761 q 888 336 956 465 q 707 121 821 207 q 512 17 608 47 q 289 -12 415 -12 q 135 -1 244 -12 q -36 10 26 10 q -139 -7 -100 10 q -153 -14 -154 -14 q -154 0 -157 -11 q -81 57 -136 57 q -51 55 -69 57 q -22 53 -33 53 q 54 86 17 53 q 151 265 104 131 q 225 499 182 351 q 296 732 276 674 q 418 938 342 872 m 867 569 q 776 828 869 733 q 471 938 675 932 q 379 731 433 876 q 226 301 332 582 q 22 47 143 107 q 168 26 39 46 q 346 11 272 11 q 689 153 549 11 q 867 569 863 329 z "},"E":{"ha":689,"x_min":-4,"x_max":650,"o":"m 349 529 q 246 589 289 544 q 193 708 194 642 q 300 889 192 810 q 524 964 403 965 q 628 950 593 964 q 644 913 650 942 q 613 778 628 826 q 596 761 606 757 q 599 786 590 763 q 617 878 617 840 q 572 926 617 908 q 490 940 538 940 q 338 882 401 940 q 267 732 269 822 q 317 597 264 647 q 454 536 369 546 q 482 538 468 535 q 499 542 496 542 q 488 522 506 542 q 453 503 471 501 q 381 511 431 507 q 174 424 263 514 q 86 226 86 333 q 143 64 86 122 q 325 1 206 1 q 607 133 500 1 q 628 154 624 154 q 635 151 631 154 q 625 125 642 144 q 263 -46 478 -46 q 67 17 139 -46 q -4 169 -4 79 q 40 319 -4 243 q 136 432 79 388 q 349 529 232 508 z "},"F":{"ha":664,"x_min":-60,"x_max":1025,"o":"m 311 96 q 169 -96 261 -7 q 13 -172 90 -172 q -50 -154 -35 -172 q -54 -126 -60 -143 q -29 -112 -49 -111 q 58 -121 63 -121 q 196 -44 142 -121 q 251 74 218 -12 q 378 507 288 167 l 331 507 q 199 483 243 507 q 188 473 196 482 q 175 467 179 464 q 188 489 167 472 q 303 533 225 528 q 386 536 342 536 q 463 775 433 700 q 531 872 488 839 q 619 919 557 893 q 346 925 418 928 q 131 868 196 918 q 61 768 81 829 q 44 754 56 753 q 35 778 29 757 q 132 888 49 829 q 379 986 268 983 q 615 968 461 989 q 897 933 879 933 q 1000 986 978 933 q 1015 999 1007 1001 q 1014 976 1025 994 q 857 903 971 903 q 658 917 857 903 q 607 896 629 918 q 564 825 590 878 q 460 536 515 728 q 529 535 476 535 q 668 538 622 535 q 726 555 706 540 q 747 569 746 569 q 731 535 757 565 q 658 503 704 504 q 496 506 644 503 q 451 506 496 506 q 311 96 379 235 z "},"G":{"ha":917,"x_min":-35,"x_max":892,"o":"m 689 207 q 496 4 618 88 q 268 -79 374 -79 q 106 -4 163 -79 q 57 200 50 71 q 164 551 67 379 q 407 829 258 718 q 778 957 576 957 q 871 938 838 957 q 892 913 892 925 q 865 831 885 893 q 842 751 857 806 q 826 738 838 735 q 828 760 818 739 q 843 829 843 806 q 808 890 847 869 q 707 911 768 911 q 426 821 542 911 q 232 556 310 731 q 151 242 160 394 q 192 51 144 121 q 343 -22 240 -22 q 636 161 492 -22 q 722 322 696 238 q 769 447 751 419 q 832 497 788 475 q 871 513 863 513 q 876 508 875 511 q 868 493 878 504 q 825 411 849 471 q 738 125 811 378 q 701 13 728 90 q 497 -286 647 -151 q 119 -447 322 -443 q -35 -324 -35 -450 q -12 -217 -35 -294 q 3 -197 -7 -197 q 1 -221 7 -199 q -4 -249 0 -228 q -6 -271 -6 -260 q 186 -382 -6 -381 q 492 -267 375 -383 q 628 -19 576 -181 q 689 207 658 94 z "},"H":{"ha":1004,"x_min":-204,"x_max":1333,"o":"m 415 489 q 396 425 408 467 q 304 146 340 225 q 150 -71 246 13 q -96 -199 7 -194 q -204 -150 -204 -203 q -201 -137 -204 -143 q -167 -128 -193 -118 q -62 -149 -111 -149 q 96 -96 44 -149 q 236 150 171 -19 q 322 421 265 226 q 344 493 331 444 l 276 493 q -7 378 57 493 q -21 364 -17 361 q -18 383 -26 368 q 231 533 64 532 q 354 528 297 533 q 438 801 378 613 q 604 951 483 926 q 300 946 506 946 q 271 967 265 946 q 304 972 274 976 q 465 961 378 964 q 603 961 465 961 q 636 958 636 961 q 617 946 638 950 q 533 838 579 939 q 424 524 485 728 q 700 507 621 507 q 861 554 825 507 q 881 617 863 557 q 1042 885 933 789 q 1268 1008 1181 1008 q 1333 978 1333 1008 q 1303 956 1333 956 q 1267 961 1292 956 q 1218 967 1243 967 q 1106 917 1160 967 q 973 690 1028 846 q 871 343 918 535 q 832 110 832 183 q 875 49 832 49 q 981 124 919 49 q 994 135 992 136 q 990 115 1001 131 q 888 24 957 71 q 786 -22 818 -22 q 743 39 743 -22 q 788 285 743 94 q 854 529 810 379 q 629 479 801 479 q 415 489 603 479 z "},"I":{"ha":375,"x_min":-235,"x_max":514,"o":"m 408 942 q 149 935 232 935 q 124 946 121 935 q 154 957 128 960 q 333 950 257 949 q 501 963 383 951 q 513 951 511 963 q 507 942 514 944 q 493 939 500 939 q 379 914 417 943 q 324 829 351 892 q 218 485 278 725 q 125 135 186 357 q 75 54 107 81 q -15 10 51 36 q 214 18 104 18 q 250 4 254 18 q 214 -3 247 -6 q 47 4 111 6 q -84 -10 0 3 q -200 -33 -168 -24 q -228 -25 -224 -40 q -203 -3 -235 -3 q -62 6 -126 -3 q 61 174 1 14 q 154 504 90 257 q 231 792 181 615 q 298 897 258 863 q 408 942 338 932 z "},"J":{"ha":497,"x_min":-212,"x_max":719,"o":"m 297 421 q 454 832 381 742 q 574 935 511 901 q 407 875 494 924 q 221 715 296 814 q 126 465 126 592 q 164 361 126 383 q 171 349 172 354 q 157 350 168 339 q 82 503 82 404 q 172 725 82 614 q 404 896 254 825 q 689 968 554 967 q 719 951 719 968 q 700 939 719 938 q 669 941 688 939 q 639 943 650 943 q 488 810 563 943 q 369 425 443 731 q 290 146 321 222 q 140 -90 239 17 q -104 -219 25 -215 q -212 -171 -212 -224 q -210 -158 -212 -164 q -175 -149 -201 -139 q -69 -168 -122 -168 q 85 -117 31 -168 q 215 129 156 -50 q 297 421 240 203 z "},"K":{"ha":824,"x_min":-235,"x_max":894,"o":"m 422 942 q 163 935 246 935 q 138 946 135 935 q 168 957 142 960 q 347 950 271 949 q 515 963 397 951 q 526 951 525 963 q 521 942 528 944 q 507 939 514 939 q 393 914 431 943 q 339 829 367 892 q 221 485 286 707 q 121 135 189 374 q 74 54 106 81 q -15 10 51 36 q 214 18 104 18 q 250 4 254 18 q 214 -3 247 -6 q 47 4 111 6 q -84 -10 0 3 q -200 -33 -168 -24 q -228 -25 -224 -40 q -203 -3 -235 -3 q -61 6 -92 -3 q 26 94 -1 21 q 157 504 49 153 q 244 792 189 615 q 312 897 272 863 q 422 942 351 932 m 303 540 q 272 507 300 538 q 258 500 265 497 q 263 526 246 507 q 394 660 279 544 q 675 885 525 792 q 829 949 778 949 q 881 913 890 949 q 849 896 878 894 q 797 899 796 899 q 639 836 736 894 q 414 656 551 783 q 356 576 357 603 q 460 275 349 465 q 725 -57 603 31 q 817 -93 776 -93 q 872 -69 840 -93 q 888 -64 883 -61 q 879 -82 894 -69 q 808 -131 863 -99 q 754 -143 778 -143 q 665 -108 713 -143 q 524 43 603 -61 q 410 217 457 132 q 303 458 324 374 q 303 540 290 510 z "},"L":{"ha":747,"x_min":-190,"x_max":724,"o":"m 14 32 q 467 43 176 49 q 643 100 607 40 q 662 149 656 121 q 675 175 668 176 q 676 151 682 174 q 614 22 660 76 q 510 -25 574 -25 q 321 -6 481 -25 q 63 13 161 13 q -153 -24 -62 13 q -185 -18 -179 -35 q -157 8 -190 -1 q -79 19 -132 11 q 35 64 -3 31 q 135 240 83 107 q 215 504 179 357 q 340 817 268 719 q 507 953 400 896 q 676 1006 606 1006 q 721 981 719 1006 q 683 950 724 950 q 651 956 674 950 q 613 961 628 961 q 411 833 489 961 q 290 501 351 735 q 235 304 251 351 q 150 146 199 200 q 14 32 97 86 z "},"M":{"ha":1529,"x_min":-158,"x_max":1597,"o":"m 1446 846 q 1310 447 1386 724 q 1243 113 1249 226 q 1285 18 1239 18 q 1372 64 1313 18 q 1449 136 1411 94 q 1463 149 1461 150 q 1461 133 1465 146 q 1378 51 1443 101 q 1196 -42 1256 -42 q 1151 22 1149 -42 q 1231 411 1156 147 q 1344 760 1275 568 q 1092 442 1239 651 q 856 42 922 200 q 790 -1 832 26 q 774 -8 775 -8 q 778 35 769 -7 q 800 333 800 151 q 799 411 800 374 q 739 813 788 665 q 532 1011 672 1011 q 383 924 447 1011 q 347 836 357 888 q 333 817 343 817 q 326 839 322 817 q 381 940 336 882 q 601 1083 490 1083 q 844 714 785 1083 q 872 360 872 546 q 861 106 872 249 q 1086 467 956 285 q 1386 839 1260 707 q 1575 960 1500 958 q 1596 947 1594 960 q 1575 935 1597 935 q 1446 846 1489 935 m 715 782 q 719 739 729 779 q 519 250 650 465 q 299 -7 422 90 q 31 -114 164 -112 q -107 -82 -60 -115 q -154 25 -158 -46 q -100 213 -149 122 q -85 226 -92 229 q -83 210 -74 222 q -125 99 -119 161 q -68 -4 -132 31 q 64 -33 -17 -33 q 311 51 189 -33 q 500 256 422 129 q 693 738 624 457 q 715 782 704 783 z "},"N":{"ha":1267,"x_min":-99,"x_max":1588,"o":"m 569 965 q 436 869 488 965 q 407 771 417 832 q 396 751 404 751 q 389 775 383 751 q 431 886 404 836 q 508 994 469 961 q 632 1040 560 1040 q 811 931 733 1040 q 928 688 868 853 q 1007 404 971 571 q 1050 126 1043 238 q 1143 467 1086 294 q 1318 849 1224 710 q 1536 996 1418 996 q 1573 988 1558 996 q 1583 964 1588 979 q 1559 947 1578 946 q 1517 946 1540 949 q 1351 839 1424 933 q 1163 460 1246 701 q 1067 113 1106 292 q 1056 61 1057 67 q 1031 18 1049 40 q 990 -17 1003 -17 q 986 6 986 -17 q 926 424 986 165 q 797 794 874 650 q 569 965 707 965 m 775 724 q 783 697 790 721 q 589 246 696 422 q 372 4 501 100 q 99 -103 232 -101 q -99 29 -99 -106 q -83 122 -99 78 q -50 197 -79 132 q -35 211 -42 214 q -39 190 -28 208 q -67 97 -67 147 q 3 -6 -67 29 q 140 -33 58 -33 q 397 60 274 -33 q 568 251 499 136 q 753 697 697 464 q 775 724 760 726 z "},"O":{"ha":842,"x_min":67,"x_max":813,"o":"m 597 978 q 763 890 706 978 q 813 694 813 814 q 740 396 813 564 q 563 122 668 228 q 426 24 503 63 q 285 -14 350 -14 q 118 68 175 -14 q 67 264 67 142 q 157 628 67 447 q 349 878 238 786 q 597 978 471 978 m 721 635 q 675 846 721 769 q 510 928 621 939 q 357 858 426 919 q 207 622 265 778 q 153 326 153 475 q 358 38 153 38 q 551 140 453 38 q 675 374 624 217 q 721 635 721 518 z "},"P":{"ha":725,"x_min":-217,"x_max":811,"o":"m 154 118 q 13 -74 103 14 q -144 -150 -67 -150 q -207 -132 -192 -150 q -211 -104 -217 -121 q -186 -90 -206 -89 q -99 -99 -94 -99 q 39 -22 -15 -99 q 94 96 61 10 q 194 449 122 169 q 304 832 258 696 q 365 943 328 900 q -58 806 86 919 q -76 799 -68 799 q -96 824 -96 799 q -57 871 -96 853 q 378 960 111 949 q 453 1013 401 983 q 535 1046 511 1046 q 546 1040 546 1046 q 533 1033 546 1036 q 470 1006 496 1026 q 435 963 444 985 q 793 735 811 963 q 632 489 782 594 q 388 390 508 401 q 336 389 354 388 q 314 407 315 390 q 319 422 314 417 q 390 410 347 410 q 603 513 510 410 q 697 728 690 611 q 631 890 703 836 q 428 946 558 944 q 269 461 383 869 q 218 283 232 329 q 154 118 186 182 z "},"Q":{"ha":842,"x_min":56,"x_max":801,"o":"m 458 49 q 525 64 492 57 q 638 78 597 78 q 694 69 671 78 q 728 18 728 57 q 674 -96 728 -25 q 657 -101 661 -108 q 661 -86 653 -97 q 676 -62 667 -79 q 682 -36 682 -49 q 618 32 682 14 q 543 42 586 42 q 397 14 453 42 q 274 -14 340 -14 q 107 68 164 -14 q 56 264 56 142 q 150 629 56 446 q 344 881 232 788 q 429 935 378 908 q 586 978 514 978 q 751 890 694 978 q 801 694 801 814 q 728 396 801 564 q 550 122 656 228 q 458 49 507 79 m 713 635 q 667 846 713 769 q 501 928 613 939 q 349 858 418 919 q 199 622 257 778 q 144 326 144 475 q 350 38 144 38 q 543 140 444 38 q 667 374 615 217 q 713 635 713 518 z "},"R":{"ha":931,"x_min":-115,"x_max":969,"o":"m 367 943 q -57 806 88 921 q -75 799 -67 799 q -94 824 -94 799 q -51 869 -94 851 q 379 960 138 949 q 460 1016 407 986 q 536 1046 513 1046 q 547 1040 547 1046 q 535 1033 547 1036 q 472 1006 497 1026 q 436 963 446 985 q 682 922 592 969 q 775 763 783 869 q 676 579 767 654 q 503 492 607 519 q 475 482 489 490 q 478 461 474 474 q 625 175 525 342 q 892 -71 772 -71 q 941 -58 919 -71 q 964 -46 963 -44 q 961 -60 969 -51 q 821 -126 907 -126 q 542 158 694 -126 q 406 446 476 281 q 382 469 396 469 q 353 469 353 469 q 333 486 335 472 q 339 501 333 496 q 410 489 367 489 q 597 566 521 489 q 679 756 672 643 q 617 895 685 844 q 429 946 550 946 q 267 461 382 863 q 169 128 235 339 q 68 29 149 74 q 172 33 129 33 q 236 29 208 33 q 258 0 264 25 q 71 14 192 17 q -82 -11 43 14 q -110 -3 -106 -15 q -85 19 -115 15 q 15 24 -40 19 q 72 79 49 32 q 196 449 110 156 q 306 832 232 585 q 367 943 329 900 z "},"S":{"ha":767,"x_min":-78,"x_max":796,"o":"m 669 949 q 476 883 557 949 q 368 701 374 800 q 403 583 365 642 q 482 489 413 571 q 572 381 561 397 q 618 240 618 313 q 506 10 618 121 q 167 -124 369 -124 q -4 -87 61 -124 q -78 38 -78 -44 q -8 265 -78 136 q 7 278 0 281 q 6 263 13 275 q -51 101 -51 160 q 33 -28 -51 17 q 214 -65 106 -65 q 488 14 401 -65 q 557 179 557 78 q 429 414 557 281 q 343 511 361 485 q 303 636 303 571 q 356 785 303 704 q 453 890 399 847 q 735 992 582 992 q 782 979 768 992 q 794 932 796 967 q 776 831 794 907 q 758 758 765 779 q 750 743 751 743 q 744 756 742 744 q 765 826 751 776 q 774 882 774 861 q 669 949 774 949 z "},"T":{"ha":706,"x_min":29,"x_max":1026,"o":"m 857 903 q 744 910 838 903 q 644 917 651 917 q 596 894 615 917 q 557 825 581 878 q 440 467 496 693 q 354 135 386 249 q 301 53 339 81 q 207 8 278 36 q 417 22 340 28 q 479 -10 479 17 q 478 -19 479 -14 q 374 3 435 0 q 61 -43 218 11 q 40 -37 46 -49 q 47 -18 36 -29 q 72 -4 58 -7 q 167 4 114 -1 q 260 103 226 18 q 375 486 310 232 q 456 775 396 575 q 519 872 478 839 q 608 919 544 893 q 346 925 468 928 q 131 868 199 921 q 61 768 81 829 q 44 754 56 753 q 35 778 29 757 q 132 888 49 829 q 381 986 268 983 q 615 968 453 988 q 897 933 896 933 q 1000 986 978 933 q 1015 999 1007 1001 q 1015 976 1026 994 q 857 903 972 903 z "},"U":{"ha":903,"x_min":40,"x_max":906,"o":"m 715 431 q 660 149 671 263 q 657 114 657 128 q 713 57 657 47 q 813 136 767 67 q 828 147 821 150 q 822 126 836 144 q 728 42 794 89 q 615 -12 653 -12 q 569 44 569 -12 q 631 358 569 121 q 461 138 568 233 q 301 22 383 67 q 156 -28 214 -28 q 40 110 40 -28 q 108 519 40 281 q 215 796 157 689 q 301 895 247 856 q 399 938 354 935 q 139 929 254 929 q 114 944 110 929 q 144 956 118 958 q 324 946 274 944 q 478 957 374 947 q 489 947 488 957 q 469 935 490 935 q 372 908 410 935 q 311 842 342 889 q 176 510 233 724 q 126 175 126 322 q 228 38 126 38 q 463 163 325 38 q 581 303 526 221 q 647 438 628 378 q 674 522 664 489 q 768 825 704 625 q 815 897 783 871 q 888 939 829 908 q 904 942 901 946 q 894 929 906 939 q 864 883 876 911 q 738 517 803 749 q 715 431 731 490 z "},"V":{"ha":975,"x_min":25,"x_max":1074,"o":"m 588 -17 q 576 -24 583 -19 q 519 -86 557 -44 q 507 -96 508 -97 q 504 -76 500 -93 q 517 163 517 -18 q 508 383 517 279 q 421 782 489 632 q 224 942 347 942 q 92 864 151 942 q 51 771 61 824 q 39 753 49 753 q 32 775 25 753 q 100 894 47 824 q 294 1014 190 1014 q 500 811 421 1014 q 572 494 550 679 q 585 57 594 300 q 717 286 625 129 q 917 611 892 568 q 1011 839 1014 779 q 1007 885 1011 853 q 1028 918 1000 914 q 1063 903 1051 921 q 1072 858 1074 885 q 1021 718 1071 806 q 917 554 994 669 q 733 275 860 469 q 588 -17 608 76 z "},"W":{"ha":1243,"x_min":4,"x_max":1313,"o":"m 1193 581 q 1075 349 1163 524 q 958 68 981 154 q 950 33 956 56 q 931 6 946 17 q 904 -14 917 -4 q 875 -39 897 -22 q 860 -42 864 -46 q 864 -19 858 -40 q 875 99 875 19 q 850 415 875 221 q 821 708 821 636 q 828 775 821 751 q 669 515 753 669 q 450 31 511 222 q 413 -11 443 10 q 374 -44 400 -24 q 360 -51 361 -53 q 360 -33 356 -49 q 410 213 389 58 q 431 550 433 388 q 381 847 428 736 q 203 981 322 982 q 93 925 150 981 q 39 843 64 897 l 38 839 q 21 822 29 821 q 21 851 4 825 q 85 932 51 900 q 175 1008 144 990 q 283 1040 224 1039 q 449 914 390 1042 q 501 658 493 815 q 504 563 504 614 q 469 143 504 308 q 651 519 557 343 q 826 814 714 636 q 890 894 856 860 q 932 925 925 929 q 919 894 935 924 q 894 747 892 843 q 922 464 896 664 q 947 132 953 232 q 1057 358 1000 243 l 1171 583 q 1247 807 1228 697 q 1247 875 1254 846 q 1268 943 1238 942 q 1307 900 1303 944 q 1275 751 1313 844 q 1193 581 1257 707 z "},"X":{"ha":849,"x_min":-68,"x_max":906,"o":"m 35 -17 q -68 97 -68 -17 q -40 217 -68 153 q -29 228 -35 231 q -28 215 -24 224 q -36 161 -36 199 q 56 75 -36 75 q 190 136 115 75 q 319 280 260 192 q 425 465 379 368 q 440 546 444 508 q 413 676 433 601 q 358 811 389 763 q 243 883 313 883 q 163 840 201 883 q 136 801 151 828 q 122 792 128 790 q 125 813 111 796 q 193 888 156 850 q 314 963 268 963 q 392 925 354 963 q 449 832 429 888 q 501 585 476 754 q 650 804 539 681 q 860 944 775 944 q 906 915 906 944 q 876 885 906 885 q 836 885 836 885 q 656 775 750 879 q 526 593 568 679 q 508 525 506 550 q 556 267 526 393 q 604 128 575 183 q 668 67 636 67 q 747 113 703 67 q 782 167 765 132 q 794 182 789 183 q 794 163 801 181 q 742 76 778 122 q 617 -14 669 -14 q 535 67 568 -14 q 492 224 517 113 q 450 469 472 314 q 315 238 410 379 q 183 65 236 119 q 35 -17 103 -17 z "},"Y":{"ha":740,"x_min":15,"x_max":963,"o":"m 469 433 q 619 653 518 518 q 781 851 714 779 q 824 896 810 883 q 878 927 849 917 q 947 940 908 938 q 963 936 963 942 q 951 928 963 931 q 847 858 913 917 q 526 486 663 693 q 454 326 489 429 q 396 56 396 153 q 426 1 396 1 q 513 24 461 1 q 597 81 557 43 q 611 88 606 89 q 604 68 622 83 q 511 8 564 35 q 353 -39 418 -39 q 300 3 300 -39 q 386 308 300 54 q 396 469 410 378 q 328 707 376 593 q 142 921 236 921 q 75 886 110 921 q 35 836 61 872 q 21 833 28 829 q 28 854 15 838 q 92 917 50 883 q 226 988 181 988 q 328 906 281 988 q 394 747 354 858 q 469 433 449 596 z "},"Z":{"ha":904,"x_min":-7,"x_max":878,"o":"m 789 918 q 653 900 733 900 q 504 907 596 900 q 374 914 413 914 q 263 897 294 914 q 214 836 231 881 q 193 765 206 808 q 181 750 188 749 q 179 774 174 751 q 215 875 189 817 q 382 986 264 986 q 567 960 444 986 q 750 933 689 933 q 844 958 813 933 q 863 971 861 971 q 863 946 878 967 q 444 422 674 683 q 164 118 324 293 q 153 99 153 106 q 163 93 154 92 q 210 93 178 94 q 390 78 217 93 q 601 69 511 68 q 724 85 682 71 q 814 157 783 106 q 838 224 826 178 q 849 239 842 242 q 853 222 857 236 q 828 153 846 201 q 742 16 786 54 q 619 -22 697 -22 q 358 11 521 -22 q 124 46 196 44 q 76 46 85 46 q 21 25 49 44 q 1 19 6 15 q 21 54 -7 29 q 196 211 108 132 q 453 468 346 349 q 789 918 614 646 z "},"[":{"ha":336,"x_min":0,"x_max":346,"o":"m 206 932 l 346 932 l 342 919 l 264 915 q 163 460 231 765 q 67 -33 106 203 l 150 -37 l 147 -49 l 0 -49 l 115 478 q 206 932 146 624 z "},"\\":{"ha":393,"x_min":38,"x_max":407,"o":"m 407 -60 q 343 -24 361 -40 q 317 25 325 -8 q 196 392 296 103 q 69 739 136 563 q 38 822 58 772 q 96 803 67 813 q 131 731 111 792 q 244 393 168 619 q 376 24 281 281 q 407 -60 388 -10 z "},"]":{"ha":336,"x_min":10,"x_max":356,"o":"m 356 932 l 240 406 q 150 -47 210 260 l 10 -49 l 14 -36 l 92 -32 q 193 424 125 118 q 289 917 250 681 l 206 921 l 208 932 l 356 932 z "},"^":{"ha":450,"x_min":63,"x_max":438,"o":"m 436 471 q 399 433 429 453 q 386 439 392 431 q 271 638 338 522 q 254 643 263 651 q 86 438 211 604 q 72 447 81 432 q 67 469 63 463 q 278 711 143 554 q 297 707 289 722 q 431 482 363 579 q 436 471 438 472 z "},"_":{"ha":479,"x_min":-124,"x_max":381,"o":"m 381 -183 l 369 -212 l -124 -212 l -110 -183 l 381 -183 z "},"`":{"ha":417,"x_min":176,"x_max":367,"o":"m 367 700 q 344 700 367 690 q 217 786 261 739 q 182 863 176 829 q 197 906 185 876 q 211 918 203 914 q 224 914 221 924 q 224 897 224 914 q 356 713 236 774 q 367 700 367 707 z "},"a":{"ha":575,"x_min":-25,"x_max":544,"o":"m 535 125 q 529 106 544 121 q 426 24 486 63 q 335 -14 367 -14 q 286 40 286 -14 q 346 329 286 139 q 236 163 317 258 q 13 -12 89 -12 q -24 51 -25 -12 q 75 392 -21 214 q 232 571 126 486 q 390 643 325 646 q 446 568 453 640 q 500 614 479 594 q 521 624 515 629 q 515 607 524 621 q 413 343 454 501 q 378 136 381 219 q 379 81 376 93 q 417 50 386 50 q 522 117 456 50 q 535 125 532 126 m 413 529 q 417 551 417 540 q 378 597 417 588 q 351 600 365 600 q 239 556 292 600 q 110 333 164 492 q 64 115 63 196 q 90 61 65 61 q 225 172 135 61 q 413 529 326 297 z "},"b":{"ha":538,"x_min":-10,"x_max":582,"o":"m 83 43 q 64 14 78 22 q 8 -18 42 1 q -4 -24 0 -24 q -6 -11 -10 -24 q 76 282 31 89 q 158 640 101 400 q 299 883 196 783 q 513 1013 429 1011 q 578 983 578 1014 q 550 961 582 963 q 464 969 531 965 q 358 922 407 968 q 251 715 306 872 q 140 283 207 586 q 263 479 178 372 q 460 640 389 639 q 496 621 483 640 q 508 564 508 601 q 442 282 507 433 q 307 85 396 176 q 139 -12 214 -11 q 93 29 93 -14 q 99 56 93 42 q 157 32 119 32 q 313 111 246 33 q 390 275 356 161 q 425 483 424 389 q 389 561 425 563 q 250 442 336 560 q 111 156 153 310 q 83 43 108 144 z "},"c":{"ha":400,"x_min":-6,"x_max":428,"o":"m 72 179 q 181 28 72 28 q 254 54 214 28 q 294 89 282 74 q 307 97 303 100 q 304 82 313 94 q 233 22 285 53 q 115 -17 169 -17 q -6 140 -6 -17 q 74 419 -6 278 q 196 572 126 513 q 349 636 274 636 q 400 624 382 636 q 410 581 428 606 q 372 575 394 560 q 306 596 340 596 q 132 438 201 596 q 72 179 72 303 z "},"d":{"ha":582,"x_min":-19,"x_max":871,"o":"m 433 592 q 492 753 463 694 q 583 875 525 818 q 803 1008 717 1006 q 869 979 868 1011 q 839 956 871 956 q 804 961 829 956 q 754 967 779 967 q 647 917 699 965 q 532 694 603 875 q 425 344 482 567 q 390 139 393 218 q 392 83 389 96 q 429 53 399 53 q 535 119 468 53 q 547 128 544 129 q 540 110 553 126 q 440 29 499 65 q 347 -11 379 -11 q 299 43 299 -11 q 319 177 299 81 q 361 346 339 274 q 244 167 324 260 q 18 -10 93 -10 q -18 54 -19 -10 q 8 208 -17 113 q 82 397 38 315 q 233 569 129 486 q 394 644 333 650 q 433 592 440 640 m 417 535 q 403 583 425 564 q 350 601 381 601 q 244 557 297 601 q 115 335 169 493 q 69 118 68 199 q 96 64 71 64 q 231 175 140 64 q 417 535 361 333 z "},"e":{"ha":382,"x_min":-6,"x_max":382,"o":"m 74 210 q 96 76 68 122 q 185 31 124 31 q 303 92 242 31 q 318 99 315 101 q 310 82 322 96 q 232 24 279 50 q 115 -14 169 -12 q 18 28 47 -15 q -6 136 -6 64 q 74 424 -4 288 q 182 558 114 494 q 331 638 267 638 q 382 579 382 638 q 283 404 382 478 q 151 336 210 350 q 135 339 135 332 q 146 351 135 350 q 228 383 192 358 q 314 560 314 443 q 282 603 314 603 q 225 578 257 603 q 136 451 172 536 q 74 210 82 322 z "},"f":{"ha":324,"x_min":-293,"x_max":611,"o":"m 551 1008 q 608 978 611 1008 q 574 956 606 954 q 535 963 560 957 q 493 968 511 968 q 404 940 443 968 q 283 747 339 893 q 239 583 260 688 q 322 590 279 583 q 349 600 331 592 q 368 608 368 608 q 360 588 379 608 q 300 557 335 558 q 232 557 300 557 q 129 136 157 235 q -7 -192 65 -86 q -111 -295 -47 -251 q -225 -339 -175 -339 q -293 -308 -293 -339 q -267 -283 -293 -283 q -236 -285 -260 -283 q -196 -287 -212 -287 q -37 -201 -93 -287 q 90 236 18 -115 q 154 557 117 363 q 72 554 79 557 q 61 550 61 550 q 67 565 58 551 q 104 582 75 579 q 132 583 114 583 q 160 583 151 583 q 199 721 172 633 q 368 931 247 844 q 551 1008 476 1008 z "},"g":{"ha":413,"x_min":-199,"x_max":472,"o":"m 283 -125 q 200 -274 279 -201 q -35 -372 96 -368 q -158 -342 -118 -375 q -193 -250 -199 -308 q -158 -140 -187 -190 q -140 -124 -146 -119 q -146 -142 -137 -126 q -157 -178 -154 -157 q -158 -199 -158 -189 q -114 -290 -158 -254 q 6 -325 -69 -325 q 172 -280 115 -325 q 225 -172 228 -235 q 183 -82 224 -140 q 143 -24 163 -53 q 119 39 121 13 q 142 114 118 76 q 190 174 150 128 q 125 131 153 144 q 71 111 86 111 q 15 201 17 111 q 46 346 15 264 q 126 488 76 428 q 236 593 176 549 q 342 643 303 643 q 385 627 360 643 q 463 613 410 611 q 471 608 469 613 q 465 600 472 603 q 396 589 436 589 q 399 553 399 575 q 285 269 399 435 q 232 207 268 244 q 224 199 231 206 q 175 115 174 154 q 242 -18 176 76 q 283 -125 285 -82 m 150 481 q 85 251 86 375 q 98 185 85 206 q 142 165 111 164 q 258 274 196 169 q 318 492 315 369 q 310 551 319 526 q 267 583 297 585 q 150 481 210 579 z "},"h":{"ha":622,"x_min":11,"x_max":611,"o":"m 281 492 q 449 626 368 590 q 501 639 481 640 q 524 599 528 636 q 453 322 524 593 q 414 110 414 172 q 456 53 414 53 q 565 119 506 53 q 583 132 579 136 q 575 113 588 128 q 474 32 540 74 q 367 -12 403 -12 q 324 39 321 -12 q 390 325 325 61 q 432 531 428 478 q 415 561 433 558 q 271 458 365 567 q 194 340 236 418 q 131 186 149 256 q 111 93 121 140 q 71 18 96 33 q 25 -8 51 8 q 17 -15 19 -14 q 13 -14 13 -17 q 14 0 11 -10 q 72 242 29 65 q 172 642 103 382 q 325 883 218 785 q 546 1008 463 1008 q 611 978 611 1008 q 581 956 611 956 q 545 961 569 956 q 496 967 521 967 q 388 921 439 967 q 269 715 331 871 q 193 474 233 625 q 138 256 165 364 q 281 492 200 401 z "},"i":{"ha":339,"x_min":35,"x_max":296,"o":"m 251 854 q 283 842 269 854 q 296 811 296 829 q 283 780 296 793 q 251 767 269 767 q 220 780 233 767 q 207 811 207 793 q 220 842 207 829 q 251 854 233 854 m 151 540 q 129 572 151 574 q 57 532 106 571 q 44 531 47 522 q 58 546 44 536 q 226 638 186 638 q 246 600 253 638 q 168 315 243 582 q 126 110 128 169 q 135 67 126 81 q 165 54 143 54 q 275 121 217 56 q 290 133 288 136 q 283 115 294 129 q 183 35 249 76 q 79 -11 113 -11 q 44 1 54 -11 q 35 38 35 13 q 60 144 35 56 q 107 317 100 288 q 151 540 153 494 z "},"j":{"ha":317,"x_min":-301,"x_max":275,"o":"m 231 861 q 262 849 249 861 q 275 818 275 836 q 262 787 275 800 q 231 774 249 774 q 199 787 213 774 q 186 818 186 800 q 199 849 186 836 q 231 861 213 861 m 107 321 q 147 546 149 497 q 125 578 146 578 q 53 539 96 578 q 40 538 43 529 q 53 553 39 543 q 222 642 178 642 q 243 604 249 642 q 175 314 233 543 q 104 54 149 211 q -72 -256 47 -146 q -222 -336 -160 -336 q -301 -299 -301 -336 q -276 -272 -301 -272 q -244 -283 -272 -272 q -183 -294 -215 -294 q -51 -194 -104 -294 q 29 28 -19 -136 q 107 321 68 157 z "},"k":{"ha":538,"x_min":8,"x_max":611,"o":"m 325 883 q 546 1008 463 1008 q 611 978 611 1008 q 581 956 611 956 q 545 961 569 956 q 496 967 521 967 q 388 921 439 967 q 269 715 331 871 q 133 256 217 583 q 178 351 156 304 q 239 460 213 424 q 451 643 374 643 q 482 592 482 643 q 385 408 482 521 q 314 336 364 383 q 290 301 290 314 q 297 256 290 278 q 347 147 313 207 q 439 54 401 54 q 493 81 458 54 q 504 88 503 89 q 501 75 510 85 q 436 19 479 49 q 375 -10 393 -10 q 279 113 333 -10 q 231 249 254 169 q 224 292 219 283 q 238 304 228 301 q 353 393 310 340 q 415 515 415 469 q 388 560 415 560 q 247 444 325 560 q 119 160 161 317 q 97 56 110 121 q 62 15 93 29 q 19 -11 31 0 q 13 -17 15 -15 q 10 -14 10 -18 q 11 1 8 -10 q 79 285 32 88 q 172 642 107 403 q 325 883 217 785 z "},"l":{"ha":336,"x_min":31,"x_max":611,"o":"m 383 924 q 257 696 315 863 q 156 350 203 542 q 117 117 117 190 q 160 56 117 56 q 265 128 206 56 q 279 139 276 140 q 275 122 285 136 q 174 33 242 78 q 75 -12 107 -12 q 31 46 31 -12 q 75 292 31 103 q 165 624 114 458 q 326 892 218 796 q 546 1015 465 1015 q 611 985 611 1015 q 581 963 611 963 q 545 968 569 963 q 496 974 521 974 q 383 924 438 974 z "},"m":{"ha":926,"x_min":-1,"x_max":885,"o":"m 157 264 q 299 482 224 393 q 463 619 385 583 q 514 633 496 635 q 536 594 540 631 q 478 372 535 581 q 446 265 468 339 q 588 478 524 406 q 750 618 681 583 q 803 633 783 635 q 824 594 828 631 q 753 324 822 579 q 714 115 714 179 q 756 60 714 60 q 863 125 804 60 q 881 138 876 142 q 872 118 885 133 q 771 38 839 81 q 668 -4 703 -4 q 626 46 626 -4 q 692 326 626 61 q 732 528 728 475 q 717 557 733 554 q 682 544 706 558 q 581 447 640 519 q 431 176 489 336 q 397 63 425 161 q 379 33 392 40 q 308 -8 354 17 q 297 -11 299 -12 q 299 3 294 -8 q 401 322 363 175 q 443 528 438 461 q 428 557 446 556 q 293 454 383 563 q 144 186 203 346 q 106 58 129 133 q 76 25 99 38 q 17 -8 54 13 q 4 -12 8 -14 q 6 1 -1 -11 q 100 286 42 68 q 144 542 144 453 q 122 576 144 576 q 50 538 93 576 q 38 536 40 528 q 50 551 36 540 q 175 628 103 590 q 221 640 203 642 q 240 603 246 638 q 157 264 217 454 z "},"n":{"ha":647,"x_min":-3,"x_max":606,"o":"m 147 540 q 125 575 147 575 q 53 536 96 575 q 40 535 43 526 q 53 550 39 539 q 178 626 106 589 q 224 639 206 640 q 243 601 249 636 q 157 256 228 500 q 306 488 224 394 q 458 617 389 581 q 528 638 501 639 q 550 597 554 636 q 521 479 547 571 q 474 314 483 353 q 435 106 435 161 q 476 50 435 50 q 583 115 525 50 q 601 128 597 132 q 593 108 606 124 q 492 28 560 71 q 389 -14 424 -14 q 347 36 344 -14 q 413 317 349 56 q 460 531 435 403 q 443 561 461 558 q 407 551 431 563 q 299 457 360 529 q 218 338 264 415 q 143 176 167 246 q 104 49 128 124 q 75 15 97 28 q 15 -18 53 3 q 3 -22 7 -24 q 4 -8 -3 -21 q 99 276 40 58 q 147 540 147 460 z "},"o":{"ha":460,"x_min":-7,"x_max":425,"o":"m 96 -12 q 0 154 -7 -12 q 144 538 8 374 q 221 603 174 574 q 321 639 276 639 q 419 479 425 639 q 272 96 411 253 q 96 -12 176 -12 m 158 42 q 260 115 217 43 q 343 433 335 243 q 323 551 346 504 q 257 597 300 597 q 158 518 204 597 q 74 200 82 385 q 94 85 71 129 q 158 42 117 42 z "},"p":{"ha":549,"x_min":-100,"x_max":526,"o":"m 522 554 q 450 274 515 418 q 314 85 408 181 q 143 -11 219 -11 q 86 38 94 -11 q 4 -268 54 -86 q -22 -299 -3 -292 q -83 -335 -58 -311 q -88 -342 -85 -336 q -96 -347 -92 -349 q -93 -329 -100 -346 q 67 175 -39 -183 q 139 490 124 367 q 122 579 150 579 q 46 539 94 579 q 33 538 36 529 q 44 553 31 543 q 221 643 171 643 q 238 613 238 643 q 161 297 238 551 q 274 475 206 392 q 374 578 321 533 q 475 632 439 632 q 522 554 526 632 m 438 475 q 400 556 439 556 q 265 442 350 556 q 126 168 174 318 q 93 60 110 117 q 163 35 114 35 q 315 103 250 35 q 398 265 361 151 q 438 475 435 379 z "},"q":{"ha":547,"x_min":-8,"x_max":526,"o":"m 450 576 q 506 619 468 590 q 526 631 522 635 q 521 614 526 631 q 424 344 485 544 q 354 76 399 264 q 310 -176 310 -111 q 313 -229 310 -218 q 351 -257 321 -258 q 456 -182 401 -256 q 468 -174 465 -172 q 464 -192 472 -175 q 364 -282 425 -240 q 269 -325 303 -324 q 222 -275 225 -326 q 271 4 219 -214 q 363 329 301 132 q 253 163 333 258 q 29 -12 106 -12 q -7 51 -8 -12 q 94 397 -4 214 q 249 571 143 486 q 408 643 343 646 q 450 576 458 640 m 426 533 q 429 547 429 540 q 389 594 429 581 q 361 599 376 599 q 256 554 308 599 q 126 332 181 490 q 81 115 79 196 q 104 60 82 60 q 242 172 150 60 q 426 533 351 307 z "},"r":{"ha":374,"x_min":-4,"x_max":424,"o":"m 147 226 q 101 57 128 151 q 73 25 96 38 q 14 -8 50 13 q 1 -12 6 -14 q 3 1 -4 -11 q 97 281 42 74 q 143 544 143 453 q 121 579 143 579 q 50 540 93 579 q 38 539 40 531 q 50 554 36 544 q 217 642 172 642 q 238 604 243 642 q 175 346 224 510 q 250 494 190 386 q 392 636 336 632 q 422 608 421 639 q 394 563 424 565 q 313 536 342 558 q 236 447 267 500 q 147 226 188 361 z "},"s":{"ha":378,"x_min":-35,"x_max":379,"o":"m 336 586 q 303 597 326 588 q 268 606 281 606 q 190 579 219 606 q 149 474 149 542 q 217 340 149 428 q 289 186 289 247 q 192 39 289 108 q 31 -14 118 -14 q -35 35 -35 -14 q -11 125 -35 82 q 4 140 -1 143 q 3 122 8 138 q 0 83 -3 106 q 101 31 7 31 q 192 63 157 31 q 222 135 222 92 q 160 276 222 190 q 107 354 117 336 q 82 438 82 397 q 179 592 82 521 q 326 642 247 642 q 369 607 379 642 q 336 586 363 583 z "},"t":{"ha":361,"x_min":43,"x_max":392,"o":"m 96 294 l 164 564 l 88 564 q 72 575 69 564 q 86 586 75 586 q 171 589 139 589 q 199 701 179 624 q 234 755 208 740 q 306 796 260 769 q 319 799 315 803 q 308 779 319 799 q 281 724 296 760 q 236 592 261 676 q 319 596 294 592 q 372 617 356 601 q 388 632 389 632 q 388 615 392 631 q 372 589 382 600 q 314 564 353 567 q 229 564 314 564 q 161 289 183 396 q 133 107 132 154 q 176 51 135 51 q 238 78 201 51 q 281 116 267 99 q 300 129 296 133 q 292 108 306 124 q 194 31 260 71 q 90 -12 125 -12 q 43 38 43 -12 q 96 294 43 86 z "},"u":{"ha":653,"x_min":43,"x_max":606,"o":"m 482 53 q 588 119 521 53 q 600 128 597 129 q 593 110 606 126 q 490 28 551 67 q 397 -11 429 -11 q 351 42 349 -11 q 375 192 353 83 q 415 357 396 293 q 289 182 369 275 q 64 -11 125 -7 q 47 -1 51 -12 q 46 36 43 10 q 75 165 51 78 q 119 324 97 244 q 161 519 156 461 q 136 576 167 576 q 71 547 126 576 q 50 539 51 538 q 49 543 49 540 q 64 556 49 546 q 244 638 189 638 q 260 589 271 638 q 183 321 236 511 q 147 122 147 175 q 163 94 147 94 q 297 213 197 94 q 443 461 378 307 q 472 539 458 500 q 519 606 493 588 q 567 636 540 619 q 582 636 578 643 q 575 619 583 632 q 481 357 526 553 q 444 151 453 238 q 442 111 442 128 q 482 53 442 53 z "},"v":{"ha":510,"x_min":19,"x_max":563,"o":"m 86 576 q 36 557 64 576 q 24 554 28 549 q 32 567 19 558 q 104 617 47 581 q 169 642 144 642 q 199 615 189 642 q 218 476 215 574 q 196 106 224 288 q 350 403 238 208 q 481 601 431 543 q 533 636 510 636 q 560 613 563 636 q 530 569 560 592 q 485 532 500 546 q 363 378 424 474 q 204 88 260 218 q 185 47 200 71 q 110 -18 108 -18 q 106 3 100 -18 q 144 301 139 143 q 122 538 150 464 q 86 576 107 576 z "},"w":{"ha":749,"x_min":15,"x_max":794,"o":"m 600 375 q 721 590 651 490 q 769 632 749 629 q 790 615 788 633 q 761 569 794 594 q 617 372 689 513 q 492 53 528 199 q 479 28 488 38 q 429 -15 461 13 q 417 -19 422 -22 q 411 -4 410 -17 q 415 68 413 19 q 414 286 419 136 q 407 446 410 376 q 411 515 404 496 q 268 297 336 413 q 142 49 181 147 q 126 32 138 39 q 60 -15 92 11 q 47 -15 50 -21 q 49 4 44 -10 q 113 290 86 108 q 115 538 136 454 q 83 582 104 579 q 32 571 61 585 q 19 569 24 563 q 28 581 15 574 q 106 619 63 603 q 171 633 143 638 q 197 603 189 631 q 203 463 210 558 q 157 147 189 290 q 151 114 150 114 q 167 144 156 118 q 264 322 196 208 q 479 624 368 493 q 490 631 486 632 q 493 624 496 631 q 478 558 482 600 q 483 322 476 544 q 483 89 489 135 q 600 375 513 179 z "},"x":{"ha":618,"x_min":-51,"x_max":619,"o":"m 168 101 q 19 -10 81 -10 q -47 58 -51 -10 q -19 146 -44 97 q -8 157 -12 161 q -8 146 -6 154 q -17 115 -17 132 q -6 83 -19 99 q 36 68 7 68 q 172 144 104 68 q 236 239 199 174 q 275 328 274 304 q 260 457 276 353 q 234 561 246 538 q 199 585 222 585 q 100 538 147 585 q 85 531 89 526 q 89 546 78 536 q 214 622 117 569 q 281 643 258 646 q 314 619 306 640 q 326 553 321 604 q 342 388 332 503 q 429 531 388 481 q 583 647 525 647 q 618 619 619 647 q 576 583 617 586 q 449 525 503 579 q 385 438 422 499 q 346 357 347 378 q 373 177 340 303 q 457 51 406 51 q 536 82 494 51 q 553 92 551 93 q 547 78 557 86 q 381 -8 446 -8 q 327 23 344 -8 q 299 138 310 54 q 282 292 283 246 q 236 203 251 229 q 168 101 204 146 z "},"y":{"ha":606,"x_min":-156,"x_max":633,"o":"m 274 96 q 261 63 272 72 q 215 13 246 46 q 206 7 208 6 q 204 25 203 10 q 204 325 219 151 q 107 560 183 560 q 32 511 75 560 q 21 506 25 503 q 25 521 14 510 q 121 613 75 571 q 171 636 147 636 q 261 426 238 636 q 274 96 279 260 m 633 601 q 614 567 633 582 q 574 536 594 551 q 400 303 468 436 q 319 129 363 231 q 250 -28 263 0 q 106 -243 192 -153 q -54 -337 15 -337 q -156 -224 -156 -337 q -139 -124 -156 -169 q -128 -110 -135 -108 q -129 -124 -125 -110 q -135 -164 -135 -144 q -106 -233 -135 -204 q -35 -262 -76 -262 q 228 -25 97 -262 q 301 126 257 28 q 383 308 367 272 q 540 586 479 511 q 608 629 575 629 q 633 601 633 629 z "},"z":{"ha":525,"x_min":-43,"x_max":486,"o":"m 403 146 q 413 161 406 161 q 415 146 418 161 q 386 56 408 110 q 315 -11 358 -11 q 218 3 286 -11 q 85 17 150 17 q -26 -4 6 17 q -40 -10 -39 -12 q -36 3 -43 -4 q 224 328 22 81 q 400 572 315 436 q 325 560 371 561 q 172 561 283 561 q 97 536 119 560 q 74 482 85 522 q 64 469 69 468 q 64 488 58 471 q 85 551 74 519 q 126 622 104 603 q 192 632 143 636 q 293 619 206 631 q 403 611 358 611 q 443 625 414 611 q 481 631 467 638 q 479 619 486 626 q 424 543 465 599 q 235 317 385 494 q 124 165 182 254 q 63 54 67 75 q 188 72 99 72 q 269 70 235 72 q 324 68 304 68 q 403 146 386 68 z "},"{":{"ha":431,"x_min":47,"x_max":504,"o":"m 58 483 q 164 524 117 479 q 233 683 203 561 q 271 846 246 751 q 397 982 307 933 q 497 1015 460 1017 q 504 1010 504 1015 q 501 1002 504 1004 q 471 996 499 1000 q 404 969 428 990 q 335 843 349 921 q 300 678 313 718 q 224 539 271 575 q 99 475 160 490 q 194 410 150 458 q 217 328 217 385 q 176 106 217 276 q 169 54 169 78 q 192 -21 169 11 q 247 -47 208 -42 q 275 -51 257 -49 q 276 -61 279 -56 q 265 -67 274 -67 q 179 -33 228 -68 q 111 103 113 14 q 124 178 111 118 q 143 265 142 257 q 157 367 157 339 q 142 425 157 401 q 53 465 113 471 q 47 469 49 465 q 50 479 47 475 q 58 483 53 483 z "},"|":{"ha":382,"x_min":164,"x_max":242,"o":"m 225 31 q 215 -19 226 0 q 164 -74 203 -39 q 171 4 168 -54 q 176 456 172 167 q 182 875 183 821 q 192 944 181 929 q 242 985 217 964 q 236 904 240 976 q 224 475 229 785 q 225 31 219 210 z "},"}":{"ha":431,"x_min":-50,"x_max":410,"o":"m 397 486 q 293 446 342 490 q 222 286 253 408 q 185 124 210 218 q 58 -12 149 36 q -42 -46 -4 -47 q -49 -40 -50 -46 q -43 -31 -49 -33 q -15 -26 -42 -31 q 51 0 28 -21 q 122 126 108 50 q 156 292 146 257 q 232 431 185 394 q 357 494 296 479 q 261 560 306 511 q 239 639 239 585 q 281 864 239 688 q 286 913 286 890 q 264 990 286 957 q 208 1017 247 1011 q 182 1021 199 1018 q 181 1031 178 1024 q 190 1036 182 1036 q 276 1003 228 1038 q 344 867 343 956 q 332 792 344 851 q 313 704 314 713 q 300 604 300 632 q 315 544 300 568 q 403 504 344 500 q 410 500 408 504 q 406 490 410 494 q 397 486 403 486 z "},"~":{"ha":450,"x_min":38,"x_max":490,"o":"m 331 524 q 241 555 300 524 q 156 588 182 586 q 51 521 114 590 q 42 519 46 515 q 42 529 38 525 q 206 633 122 633 q 291 601 235 633 q 374 569 347 569 q 478 636 414 569 q 486 638 483 642 q 486 628 490 632 q 331 524 406 524 z "},"":{"ha":322,"x_min":-6,"x_max":342,"o":"m 282 685 q 190 353 261 632 q 115 79 171 261 q 19 -3 97 32 q -4 -4 0 -11 q 8 14 -6 -3 q 42 76 18 31 q 142 367 92 196 q 210 603 165 446 q 230 651 219 638 q 282 685 240 664 m 329 838 q 342 814 342 821 q 319 789 342 807 q 297 775 303 775 q 273 796 290 775 q 256 821 256 817 q 278 850 256 831 q 303 865 294 865 q 329 838 308 865 z "},"":{"ha":335,"x_min":-8,"x_max":358,"o":"m 247 181 q 258 188 254 190 q 256 175 261 185 q 213 135 244 157 q 139 99 176 110 l 125 36 l 104 36 l 117 93 q 94 90 110 92 q 11 125 36 89 q -8 218 -8 156 q 58 464 -7 346 q 243 640 135 603 q 261 719 257 699 l 283 719 l 265 646 q 293 649 285 649 q 338 638 324 649 q 346 600 358 619 q 313 597 332 583 q 260 614 285 611 l 146 128 q 247 181 194 128 m 236 613 q 113 489 157 599 q 58 281 65 371 q 125 131 49 154 q 236 613 178 354 z "},"":{"ha":707,"x_min":-190,"x_max":724,"o":"m 296 521 q 290 501 294 517 q 235 304 254 360 q 150 146 199 201 q 14 32 97 86 q 467 43 176 49 q 643 100 607 40 q 662 149 656 121 q 675 175 668 176 q 676 151 682 174 q 614 22 660 76 q 510 -25 574 -25 q 321 -6 481 -25 q 63 13 161 13 q -153 -24 -62 13 q -185 -18 -179 -35 q -157 8 -190 -1 q -79 19 -132 11 q 35 64 -3 31 q 135 240 83 107 q 179 379 154 292 q 219 519 207 483 l 185 519 q 118 514 178 519 q 61 495 81 511 q 40 479 42 479 q 56 516 29 485 q 126 550 83 547 q 217 550 126 550 l 226 550 q 305 759 263 689 q 439 896 347 829 q 676 1006 590 1006 q 721 981 719 1006 q 683 950 724 950 q 651 956 674 950 q 613 961 628 961 q 444 868 518 961 q 303 550 361 763 l 332 550 q 399 553 353 550 q 456 570 436 556 q 478 585 476 585 q 461 550 488 581 q 389 518 435 519 q 299 521 394 518 q 296 521 297 521 z "},"":{"ha":581,"x_min":-26,"x_max":553,"o":"m 61 450 l -8 450 l 0 469 l 68 469 q 222 740 121 625 q 488 882 347 882 q 553 844 553 882 q 519 810 553 810 q 479 818 508 810 q 433 826 450 826 q 228 701 315 826 q 129 469 161 606 l 383 469 l 378 450 l 125 450 q 115 403 119 428 l 365 403 l 360 383 l 111 383 q 103 250 100 306 q 251 49 114 49 q 363 100 301 49 q 471 229 424 151 q 490 242 482 249 q 485 217 497 236 q 346 60 425 125 q 181 -15 256 -15 q 25 188 39 -15 q 43 383 19 282 l -26 383 l -18 403 l 47 403 q 61 450 54 432 z "},"":{"ha":740,"x_min":15,"x_max":963,"o":"m 390 322 l 251 322 l 261 342 l 394 342 q 396 469 406 401 q 328 707 378 590 q 142 921 236 921 q 75 886 110 921 q 35 836 61 872 q 21 833 28 829 q 28 854 15 838 q 92 917 50 883 q 226 988 181 988 q 328 906 281 988 q 394 747 354 858 q 474 429 453 586 q 624 654 529 524 q 781 851 719 785 q 824 896 810 883 q 878 927 849 917 q 947 940 908 938 q 963 936 963 942 q 951 928 963 931 q 847 858 913 917 q 526 486 663 693 q 458 342 489 431 l 603 342 l 596 322 l 453 322 q 440 278 450 310 l 585 278 l 581 258 l 435 258 q 396 56 396 111 q 426 1 396 1 q 513 24 461 1 q 597 81 557 43 q 611 88 607 90 q 606 71 621 83 q 513 11 565 38 q 353 -39 414 -39 q 300 3 300 -39 q 371 258 300 40 l 236 258 l 243 278 l 378 278 l 390 322 z "},"":{"ha":804,"x_min":29,"x_max":772,"o":"m 772 392 q 650 274 772 358 q 424 114 443 131 q 303 -46 303 17 q 393 -107 303 -107 q 467 -99 421 -107 q 529 -90 513 -90 q 578 -106 558 -90 q 586 -147 603 -126 q 547 -146 569 -165 q 457 -128 519 -122 q 329 -125 367 -136 q 261 -93 281 -111 q 233 -15 233 -67 q 393 204 233 69 q 619 378 506 290 q 635 400 635 390 q 617 408 635 411 q 379 317 521 392 q 346 314 367 310 q 317 330 325 318 q 308 358 308 342 q 325 399 308 381 q 433 479 351 426 q 568 578 525 539 q 579 594 579 589 q 560 601 579 606 q 307 511 468 585 q 103 418 228 472 q 75 413 88 413 q 32 440 42 413 q 29 458 29 450 q 65 519 29 493 q 368 701 217 610 q 665 907 628 856 q 683 950 683 931 q 596 997 683 997 q 342 932 497 997 q 147 828 217 879 q 122 818 133 818 q 107 829 111 818 q 128 872 101 846 q 297 960 165 908 q 579 1022 457 1022 q 738 907 738 1022 q 539 692 738 822 q 286 538 413 615 q 478 621 365 578 q 661 669 615 672 q 725 607 725 665 q 631 492 725 560 q 499 404 565 449 q 710 450 649 450 q 772 392 772 450 z "},"":{"ha":531,"x_min":-62,"x_max":539,"o":"m 499 715 q 460 729 493 717 q 415 739 433 739 q 317 706 363 739 q 265 611 272 672 q 288 504 260 561 q 349 407 307 465 q 410 317 399 338 q 439 222 440 265 q 321 44 436 115 q 274 18 296 29 q 169 -117 256 -58 q -14 -176 83 -176 q -62 -144 -62 -176 q -49 -120 -62 -129 q -21 -114 -35 -111 q 18 -128 -15 -115 q 61 -136 44 -136 q 160 -103 122 -136 q 213 28 217 -53 q 128 194 210 86 q 68 279 78 261 q 39 381 39 329 q 156 557 39 494 q 204 581 167 563 q 310 721 231 663 q 490 776 385 776 q 539 746 539 776 q 526 722 539 731 q 499 715 513 713 m 375 168 q 349 261 374 217 q 293 342 342 274 q 229 433 240 415 q 199 532 201 483 q 200 557 199 544 q 103 433 108 532 q 121 344 100 385 q 174 268 128 332 q 244 171 208 219 q 279 68 279 115 q 276 43 279 51 q 344 90 317 60 q 375 168 376 128 z "},"":{"ha":417,"x_min":201,"x_max":469,"o":"m 454 796 q 469 771 469 776 q 444 741 469 763 q 411 719 418 719 q 387 742 404 719 q 369 771 369 764 q 397 803 369 779 q 426 821 418 821 q 454 796 433 821 m 288 796 q 301 771 301 778 q 276 740 301 763 q 244 718 251 718 q 219 741 236 718 q 201 771 201 764 q 231 803 201 779 q 260 821 253 821 q 288 796 268 821 z "},"":{"ha":500,"x_min":97,"x_max":561,"o":"m 329 932 q 493 864 425 932 q 561 700 561 796 q 493 536 561 604 q 329 468 425 468 q 165 536 233 468 q 97 700 97 604 q 165 864 97 796 q 329 932 233 932 m 329 908 q 183 847 243 908 q 124 700 124 786 q 183 553 124 614 q 329 492 243 492 q 475 553 415 492 q 535 700 535 614 q 475 847 535 786 q 329 908 415 908 m 410 615 q 413 613 413 617 q 410 596 413 600 q 310 568 378 567 q 215 669 214 569 q 271 785 217 735 q 376 831 321 829 q 419 819 399 831 q 415 797 425 810 q 407 796 413 789 q 367 811 396 811 q 292 767 318 811 q 269 679 269 731 q 343 593 269 593 q 410 615 378 593 z "},"":{"ha":458,"x_min":24,"x_max":467,"o":"m 281 476 q 313 644 281 508 q 250 558 290 606 q 106 440 150 440 q 65 507 64 440 q 111 671 68 583 q 243 838 161 772 q 360 885 307 888 q 394 842 397 882 q 429 865 407 850 q 446 872 442 876 q 442 858 449 869 q 371 681 399 786 q 343 529 343 575 q 372 486 343 486 q 444 529 401 486 q 454 536 453 538 q 451 518 467 529 q 315 436 363 436 q 281 476 281 436 m 26 336 q 24 340 24 336 q 32 371 24 351 q 46 390 40 390 q 218 382 208 382 q 374 392 318 385 q 376 386 376 392 q 369 356 376 374 q 357 338 363 338 q 218 346 282 346 q 26 336 129 346 m 128 526 q 147 493 128 493 q 179 510 160 493 q 239 567 199 526 q 368 808 299 639 q 364 842 376 829 q 329 854 351 854 q 251 824 288 854 q 161 678 200 779 q 128 526 128 588 z "},"":{"ha":368,"x_min":11,"x_max":333,"o":"m 189 136 q 174 119 185 131 q 153 108 163 104 q 146 113 153 108 q 18 313 86 226 q 21 332 11 322 q 219 499 51 351 q 233 490 224 503 q 238 472 239 475 q 76 339 110 372 q 72 322 65 332 q 188 149 94 290 q 189 136 192 143 m 310 141 q 308 138 310 141 q 294 125 307 135 q 274 113 278 111 q 272 115 272 111 q 268 118 271 118 q 147 307 218 211 q 150 325 142 314 q 314 460 174 340 q 326 453 319 464 q 331 436 333 436 q 206 333 281 397 q 201 314 196 326 q 311 153 208 306 q 310 141 313 147 z "},"":{"ha":804,"x_min":29,"x_max":772,"o":"m 772 392 q 650 274 772 358 q 424 114 443 131 q 303 -46 303 17 q 393 -107 303 -107 q 467 -99 421 -107 q 529 -90 513 -90 q 578 -106 558 -90 q 586 -147 603 -126 q 547 -146 569 -165 q 457 -128 519 -122 q 329 -125 367 -136 q 261 -93 281 -111 q 233 -15 233 -67 q 393 204 233 69 q 619 378 506 290 q 635 400 635 390 q 617 408 635 411 q 379 317 521 392 q 346 314 367 310 q 317 330 325 318 q 308 358 308 342 q 325 399 308 381 q 433 479 351 426 q 568 578 525 539 q 579 594 579 589 q 560 601 579 606 q 307 511 468 585 q 103 418 228 472 q 75 413 88 413 q 32 440 42 413 q 29 458 29 450 q 65 519 29 493 q 368 701 217 610 q 665 907 628 856 q 683 950 683 931 q 596 997 683 997 q 342 932 497 997 q 147 828 217 879 q 122 818 133 818 q 107 829 111 818 q 128 872 101 846 q 297 960 165 908 q 579 1022 457 1022 q 738 907 738 1022 q 539 692 738 822 q 286 538 413 615 q 478 621 365 578 q 661 669 615 672 q 725 607 725 665 q 631 492 725 560 q 499 404 565 449 q 710 450 649 450 q 772 392 772 450 z "},"":{"ha":500,"x_min":97,"x_max":561,"o":"m 329 932 q 493 864 425 932 q 561 700 561 796 q 493 536 561 604 q 329 468 425 468 q 165 536 233 468 q 97 700 97 604 q 165 864 97 796 q 329 932 233 932 m 329 908 q 183 847 243 908 q 124 700 124 786 q 183 553 124 614 q 329 492 243 492 q 475 553 415 492 q 535 700 535 614 q 475 847 535 786 q 329 908 415 908 m 447 588 q 407 575 428 575 q 304 679 363 575 q 310 692 297 686 q 368 769 368 718 q 357 803 368 786 q 325 819 346 819 q 307 810 311 819 q 285 715 300 790 q 267 610 267 622 q 261 592 267 597 q 226 576 247 586 q 215 581 219 575 q 217 600 213 588 q 257 786 235 678 q 251 813 258 808 q 236 810 247 815 q 232 813 233 810 q 233 819 231 817 q 292 833 283 833 q 324 832 286 832 q 343 833 335 832 q 354 833 351 833 q 417 785 421 833 q 392 733 414 757 q 360 708 375 721 q 347 692 344 696 q 390 638 361 668 q 447 597 428 597 q 454 594 454 597 q 447 588 454 590 z "},"":{"ha":251,"x_min":133,"x_max":308,"o":"m 306 843 q 308 825 308 833 q 276 764 308 789 q 206 739 243 739 q 154 756 175 739 q 133 803 133 774 q 167 864 133 838 q 233 886 197 886 q 306 843 288 886 m 272 813 q 256 848 272 833 q 219 863 240 863 q 184 848 199 863 q 169 813 169 833 q 184 777 169 792 q 219 763 199 763 q 256 777 240 763 q 272 813 272 792 z "},"":{"ha":947,"x_min":-286,"x_max":1222,"o":"m 994 922 q 868 694 926 861 q 767 349 814 540 q 728 115 728 189 q 771 54 728 54 q 876 126 817 54 q 890 138 888 139 q 886 121 896 135 q 785 31 853 76 q 686 -14 718 -14 q 642 44 642 -14 q 686 290 642 101 q 776 622 725 457 q 938 890 829 794 q 1157 1014 1076 1014 q 1222 983 1222 1014 q 1192 961 1222 961 q 1156 967 1181 961 q 1107 972 1132 972 q 994 922 1049 972 m -193 -275 q -33 -186 -90 -275 q 93 250 21 -101 q 157 571 119 376 q 76 566 89 571 q 63 563 63 561 q 70 577 61 568 q 108 589 79 586 q 161 590 126 590 q 204 743 179 679 q 374 953 253 867 q 518 1025 475 1025 q 563 994 563 1025 q 528 976 563 974 q 469 981 458 981 q 410 963 435 981 q 340 885 368 933 q 290 769 321 850 q 239 589 267 707 l 458 589 q 474 654 464 615 q 515 790 488 721 q 682 1001 565 918 q 865 1079 790 1079 q 922 1049 925 1079 q 888 1026 919 1025 q 849 1033 874 1028 q 807 1039 825 1039 q 717 1010 757 1039 q 649 933 676 982 q 599 818 629 899 q 544 628 564 726 q 536 590 542 614 q 689 617 656 590 q 696 615 693 615 q 686 597 696 608 q 622 572 665 574 q 532 571 590 571 q 451 203 504 435 q 308 -114 403 26 q 110 -244 221 -244 q 46 -207 46 -244 q 74 -183 46 -183 q 99 -190 79 -183 q 139 -196 118 -196 q 225 -178 192 -196 q 292 -109 258 -161 q 353 51 325 -57 q 404 307 365 104 q 454 571 422 397 l 235 571 q -4 -178 136 26 q -108 -281 -44 -237 q -222 -325 -172 -325 q -286 -289 -286 -325 q -258 -265 -286 -265 q -233 -270 -253 -265 q -193 -275 -214 -275 z "},"":{"ha":804,"x_min":29,"x_max":772,"o":"m 772 392 q 650 274 772 358 q 424 114 443 131 q 303 -46 303 17 q 393 -107 303 -107 q 467 -99 421 -107 q 529 -90 513 -90 q 578 -106 558 -90 q 586 -147 603 -126 q 547 -146 569 -165 q 457 -128 519 -122 q 329 -125 367 -136 q 261 -93 281 -111 q 233 -15 233 -67 q 393 204 233 69 q 619 378 506 290 q 635 400 635 390 q 617 408 635 411 q 379 317 521 392 q 346 314 367 310 q 317 330 325 318 q 308 358 308 342 q 325 399 308 381 q 433 479 351 426 q 568 578 525 539 q 579 594 579 589 q 560 601 579 606 q 307 511 468 585 q 103 418 228 472 q 75 413 88 413 q 32 440 42 413 q 29 458 29 450 q 65 519 29 493 q 368 701 217 610 q 665 907 628 856 q 683 950 683 931 q 596 997 683 997 q 342 932 497 997 q 147 828 217 879 q 122 818 133 818 q 107 829 111 818 q 128 872 101 846 q 297 960 165 908 q 579 1022 457 1022 q 738 907 738 1022 q 539 692 738 822 q 286 538 413 615 q 478 621 365 578 q 661 669 615 672 q 725 607 725 665 q 631 492 725 560 q 499 404 565 449 q 710 450 649 450 q 772 392 772 450 z "},"":{"ha":804,"x_min":29,"x_max":772,"o":"m 772 392 q 650 274 772 358 q 424 114 443 131 q 303 -46 303 17 q 393 -107 303 -107 q 467 -99 421 -107 q 529 -90 513 -90 q 578 -106 558 -90 q 586 -147 603 -126 q 547 -146 569 -165 q 457 -128 519 -122 q 329 -125 367 -136 q 261 -93 281 -111 q 233 -15 233 -67 q 393 204 233 69 q 619 378 506 290 q 635 400 635 390 q 617 408 635 411 q 379 317 521 392 q 346 314 367 310 q 317 330 325 318 q 308 358 308 342 q 325 399 308 381 q 433 479 351 426 q 568 578 525 539 q 579 594 579 589 q 560 601 579 606 q 307 511 468 585 q 103 418 228 472 q 75 413 88 413 q 32 440 42 413 q 29 458 29 450 q 65 519 29 493 q 368 701 217 610 q 665 907 628 856 q 683 950 683 931 q 596 997 683 997 q 342 932 497 997 q 147 828 217 879 q 122 818 133 818 q 107 829 111 818 q 128 872 101 846 q 297 960 165 908 q 579 1022 457 1022 q 738 907 738 1022 q 539 692 738 822 q 286 538 413 615 q 478 621 365 578 q 661 669 615 672 q 725 607 725 665 q 631 492 725 560 q 499 404 565 449 q 710 450 649 450 q 772 392 772 450 z "},"":{"ha":417,"x_min":278,"x_max":483,"o":"m 483 849 q 439 776 483 815 q 301 704 389 733 q 282 706 285 696 q 293 717 278 711 q 443 888 418 765 q 446 906 444 894 q 458 907 449 911 q 471 893 464 904 q 483 849 483 869 z "},"":{"ha":453,"x_min":54,"x_max":515,"o":"m 361 704 q 386 754 372 749 q 443 760 415 757 q 421 701 440 756 q 475 703 454 700 q 506 714 485 704 q 514 713 513 717 q 511 703 515 708 q 492 682 500 685 q 457 681 483 679 q 438 682 451 681 q 415 683 424 683 q 204 -56 306 356 q 135 -106 194 -94 q 122 -106 124 -110 q 128 -89 122 -104 q 143 -46 138 -64 q 231 254 179 67 q 189 250 210 250 q 85 285 115 250 q 54 386 54 319 q 60 440 54 414 q 185 643 86 569 q 361 704 268 704 m 236 274 q 356 686 239 283 q 215 625 281 686 q 138 499 160 571 q 118 389 118 436 q 236 274 118 267 z "},"":{"ha":417,"x_min":47,"x_max":208,"o":"m 121 -1 q 104 -14 111 -1 q 90 -53 100 -21 q 86 -71 86 -64 q 118 -86 86 -86 q 197 -169 208 -86 q 167 -222 193 -197 q 92 -251 135 -251 q 47 -235 47 -251 q 49 -231 47 -232 q 62 -233 51 -228 q 81 -237 72 -237 q 151 -171 147 -237 q 142 -122 153 -140 q 96 -104 126 -101 q 68 -106 72 -107 q 64 -67 51 -101 q 94 -3 74 -40 q 103 -3 92 -3 q 121 -1 114 -1 z "},"":{"ha":804,"x_min":29,"x_max":772,"o":"m 772 392 q 650 274 772 358 q 424 114 443 131 q 303 -46 303 17 q 393 -107 303 -107 q 467 -99 421 -107 q 529 -90 513 -90 q 578 -106 558 -90 q 586 -147 603 -126 q 547 -146 569 -165 q 457 -128 519 -122 q 329 -125 367 -136 q 261 -93 281 -111 q 233 -15 233 -67 q 393 204 233 69 q 619 378 506 290 q 635 400 635 390 q 617 408 635 411 q 379 317 521 392 q 346 314 367 310 q 317 330 325 318 q 308 358 308 342 q 325 399 308 381 q 433 479 351 426 q 568 578 525 539 q 579 594 579 589 q 560 601 579 606 q 307 511 468 585 q 103 418 228 472 q 75 413 88 413 q 32 440 42 413 q 29 458 29 450 q 65 519 29 493 q 368 701 217 610 q 665 907 628 856 q 683 950 683 931 q 596 997 683 997 q 342 932 497 997 q 147 828 217 879 q 122 818 133 818 q 107 829 111 818 q 128 872 101 846 q 297 960 165 908 q 579 1022 457 1022 q 738 907 738 1022 q 539 692 738 822 q 286 538 413 615 q 478 621 365 578 q 661 669 615 672 q 725 607 725 665 q 631 492 725 560 q 499 404 565 449 q 710 450 649 450 q 772 392 772 450 z "},"":{"ha":375,"x_min":15,"x_max":376,"o":"m 301 885 q 372 775 376 885 q 271 514 367 628 q 147 438 207 438 q 79 554 75 438 q 178 814 85 708 q 301 885 240 885 m 18 336 q 15 340 15 336 q 24 371 15 351 q 38 390 32 390 q 89 385 63 388 q 160 382 133 381 q 297 392 236 385 q 300 386 300 392 q 293 356 300 374 q 281 338 286 338 q 160 346 206 346 q 18 336 121 346 m 257 854 q 193 800 226 854 q 133 586 139 713 q 192 481 128 481 q 257 529 226 481 q 315 743 310 613 q 302 823 318 792 q 257 854 286 854 z "},"":{"ha":368,"x_min":6,"x_max":325,"o":"m 188 281 q 39 128 156 254 q 24 136 32 124 q 19 151 17 149 q 133 265 67 196 q 135 286 142 274 q 10 435 99 329 q 10 447 6 440 q 22 464 13 454 q 42 478 38 479 q 44 478 43 481 q 50 474 47 474 q 189 299 110 382 q 188 281 197 290 m 317 288 q 136 100 286 263 q 122 107 132 97 q 115 125 114 122 q 263 274 213 217 q 264 292 271 283 q 128 454 231 328 q 128 467 124 460 q 139 485 131 474 q 158 499 153 499 q 163 499 161 501 q 167 494 165 494 q 317 307 235 392 q 317 288 325 299 z "},"":{"ha":804,"x_min":29,"x_max":772,"o":"m 772 392 q 650 274 772 358 q 424 114 443 131 q 303 -46 303 17 q 393 -107 303 -107 q 467 -99 421 -107 q 529 -90 513 -90 q 578 -106 558 -90 q 586 -147 603 -126 q 547 -146 569 -165 q 457 -128 519 -122 q 329 -125 367 -136 q 261 -93 281 -111 q 233 -15 233 -67 q 393 204 233 69 q 619 378 506 290 q 635 400 635 390 q 617 408 635 411 q 379 317 521 392 q 346 314 367 310 q 317 330 325 318 q 308 358 308 342 q 325 399 308 381 q 433 479 351 426 q 568 578 525 539 q 579 594 579 589 q 560 601 579 606 q 307 511 468 585 q 103 418 228 472 q 75 413 88 413 q 32 440 42 413 q 29 458 29 450 q 65 519 29 493 q 368 701 217 610 q 665 907 628 856 q 683 950 683 931 q 596 997 683 997 q 342 932 497 997 q 147 828 217 879 q 122 818 133 818 q 107 829 111 818 q 128 872 101 846 q 297 960 165 908 q 579 1022 457 1022 q 738 907 738 1022 q 539 692 738 822 q 286 538 413 615 q 478 621 365 578 q 661 669 615 672 q 725 607 725 665 q 631 492 725 560 q 499 404 565 449 q 710 450 649 450 q 772 392 772 450 z "},"":{"ha":804,"x_min":29,"x_max":772,"o":"m 772 392 q 650 274 772 358 q 424 114 443 131 q 303 -46 303 17 q 393 -107 303 -107 q 467 -99 421 -107 q 529 -90 513 -90 q 578 -106 558 -90 q 586 -147 603 -126 q 547 -146 569 -165 q 457 -128 519 -122 q 329 -125 367 -136 q 261 -93 281 -111 q 233 -15 233 -67 q 393 204 233 69 q 619 378 506 290 q 635 400 635 390 q 617 408 635 411 q 379 317 521 392 q 346 314 367 310 q 317 330 325 318 q 308 358 308 342 q 325 399 308 381 q 433 479 351 426 q 568 578 525 539 q 579 594 579 589 q 560 601 579 606 q 307 511 468 585 q 103 418 228 472 q 75 413 88 413 q 32 440 42 413 q 29 458 29 450 q 65 519 29 493 q 368 701 217 610 q 665 907 628 856 q 683 950 683 931 q 596 997 683 997 q 342 932 497 997 q 147 828 217 879 q 122 818 133 818 q 107 829 111 818 q 128 872 101 846 q 297 960 165 908 q 579 1022 457 1022 q 738 907 738 1022 q 539 692 738 822 q 286 538 413 615 q 478 621 365 578 q 661 669 615 672 q 725 607 725 665 q 631 492 725 560 q 499 404 565 449 q 710 450 649 450 q 772 392 772 450 z "},"":{"ha":804,"x_min":29,"x_max":772,"o":"m 772 392 q 650 274 772 358 q 424 114 443 131 q 303 -46 303 17 q 393 -107 303 -107 q 467 -99 421 -107 q 529 -90 513 -90 q 578 -106 558 -90 q 586 -147 603 -126 q 547 -146 569 -165 q 457 -128 519 -122 q 329 -125 367 -136 q 261 -93 281 -111 q 233 -15 233 -67 q 393 204 233 69 q 619 378 506 290 q 635 400 635 390 q 617 408 635 411 q 379 317 521 392 q 346 314 367 310 q 317 330 325 318 q 308 358 308 342 q 325 399 308 381 q 433 479 351 426 q 568 578 525 539 q 579 594 579 589 q 560 601 579 606 q 307 511 468 585 q 103 418 228 472 q 75 413 88 413 q 32 440 42 413 q 29 458 29 450 q 65 519 29 493 q 368 701 217 610 q 665 907 628 856 q 683 950 683 931 q 596 997 683 997 q 342 932 497 997 q 147 828 217 879 q 122 818 133 818 q 107 829 111 818 q 128 872 101 846 q 297 960 165 908 q 579 1022 457 1022 q 738 907 738 1022 q 539 692 738 822 q 286 538 413 615 q 478 621 365 578 q 661 669 615 672 q 725 607 725 665 q 631 492 725 560 q 499 404 565 449 q 710 450 649 450 q 772 392 772 450 z "},"":{"ha":424,"x_min":7,"x_max":376,"o":"m 335 788 q 293 831 293 788 q 335 871 293 871 q 376 829 376 871 q 335 788 376 788 m 224 443 q 111 290 129 321 q 71 182 72 231 q 110 79 68 117 q 206 46 147 46 q 342 126 301 46 q 354 138 347 139 q 356 124 360 136 q 281 39 335 78 q 153 -7 217 -7 q 7 131 7 -7 q 49 251 7 188 q 136 358 75 292 q 215 453 197 425 q 281 626 268 538 q 288 681 282 647 q 319 710 294 714 q 340 667 346 706 q 224 443 326 578 z "},"":{"ha":1106,"x_min":-92,"x_max":1346,"o":"m -67 104 q -41 56 -67 76 q 26 36 -15 36 q 182 72 108 36 q 349 196 256 108 q 569 486 458 299 q 278 504 389 504 q 101 446 182 504 q 85 435 85 435 q 92 450 79 439 q 339 563 221 563 q 596 531 389 563 q 710 715 692 690 q 865 889 793 839 q 1144 983 1001 983 q 1218 978 1181 983 q 1304 1000 1263 1000 q 1346 979 1346 1000 q 1310 963 1346 963 q 1275 964 1299 963 q 1242 965 1251 965 q 1121 874 1185 965 q 972 528 1044 763 q 882 99 876 215 q 921 44 885 44 q 1025 110 964 44 q 1044 129 1043 129 q 1038 107 1051 125 q 947 26 1010 71 q 839 -24 876 -24 q 797 56 790 -24 q 844 296 803 124 q 904 525 879 446 q 729 481 849 481 q 590 486 650 481 q 488 328 560 431 q 374 175 417 225 q 182 13 286 71 q 13 -43 88 -43 q -92 43 -92 -43 q -78 119 -92 85 q -65 135 -71 136 q -67 104 -67 135 m 614 528 q 785 513 688 513 q 911 550 876 513 q 996 771 965 714 q 1194 968 1074 922 q 885 864 1032 968 q 614 528 758 774 m 1204 1047 q 1182 1047 1204 1038 q 1054 1133 1099 1086 q 1019 1210 1014 1176 q 1035 1253 1022 1224 q 1049 1265 1040 1261 q 1061 1261 1058 1271 q 1061 1244 1061 1261 q 1193 1060 1074 1121 q 1204 1047 1204 1054 z "},"":{"ha":1106,"x_min":-92,"x_max":1346,"o":"m -67 104 q -41 56 -67 76 q 26 36 -15 36 q 182 72 108 36 q 349 196 256 108 q 569 486 458 299 q 278 504 389 504 q 101 446 182 504 q 85 435 85 435 q 92 450 79 439 q 339 563 221 563 q 596 531 389 563 q 710 715 692 690 q 865 889 793 839 q 1144 983 1001 983 q 1218 978 1181 983 q 1304 1000 1263 1000 q 1346 979 1346 1000 q 1310 963 1346 963 q 1275 964 1299 963 q 1242 965 1251 965 q 1121 874 1185 965 q 972 528 1044 763 q 882 99 876 215 q 921 44 885 44 q 1025 110 964 44 q 1044 129 1043 129 q 1038 107 1051 125 q 947 26 1010 71 q 839 -24 876 -24 q 797 56 790 -24 q 844 296 803 124 q 904 525 879 446 q 729 481 849 481 q 590 486 650 481 q 488 328 560 431 q 374 175 417 225 q 182 13 286 71 q 13 -43 88 -43 q -92 43 -92 -43 q -78 119 -92 85 q -65 135 -71 136 q -67 104 -67 135 m 614 528 q 785 513 688 513 q 911 550 876 513 q 996 771 965 714 q 1194 968 1074 922 q 885 864 1032 968 q 614 528 758 774 m 1258 1196 q 1214 1124 1258 1163 q 1076 1051 1164 1081 q 1057 1053 1060 1043 q 1068 1064 1053 1058 q 1218 1235 1193 1113 q 1221 1253 1219 1242 q 1233 1254 1224 1258 q 1246 1240 1239 1251 q 1258 1196 1258 1217 z "},"":{"ha":1106,"x_min":-92,"x_max":1346,"o":"m -67 104 q -41 56 -67 76 q 26 36 -15 36 q 182 72 108 36 q 349 196 256 108 q 569 486 458 299 q 278 504 389 504 q 101 446 182 504 q 85 435 85 435 q 92 450 79 439 q 339 563 221 563 q 596 531 389 563 q 710 715 692 690 q 865 889 793 839 q 1144 983 1001 983 q 1218 978 1181 983 q 1304 1000 1263 1000 q 1346 979 1346 1000 q 1310 963 1346 963 q 1275 964 1299 963 q 1242 965 1251 965 q 1121 874 1185 965 q 972 528 1044 763 q 882 99 876 215 q 921 44 885 44 q 1025 110 964 44 q 1044 129 1043 129 q 1038 107 1051 125 q 947 26 1010 71 q 839 -24 876 -24 q 797 56 790 -24 q 844 296 803 124 q 904 525 879 446 q 729 481 849 481 q 590 486 650 481 q 488 328 560 431 q 374 175 417 225 q 182 13 286 71 q 13 -43 88 -43 q -92 43 -92 -43 q -78 119 -92 85 q -65 135 -71 136 q -67 104 -67 135 m 614 528 q 785 513 688 513 q 911 550 876 513 q 996 771 965 714 q 1194 968 1074 922 q 885 864 1032 968 q 614 528 758 774 m 1282 1057 q 1244 1031 1275 1042 q 1232 1035 1238 1028 q 1117 1176 1183 1094 q 1100 1181 1108 1186 q 942 1043 1050 1147 q 927 1050 939 1040 q 922 1067 915 1060 q 1124 1229 993 1122 q 1143 1226 1135 1239 q 1276 1065 1208 1135 q 1282 1057 1283 1058 z "},"":{"ha":1106,"x_min":-92,"x_max":1346,"o":"m -67 104 q -41 56 -67 76 q 26 36 -15 36 q 182 72 108 36 q 349 196 256 108 q 569 486 458 299 q 278 504 389 504 q 101 446 182 504 q 85 435 85 435 q 92 450 79 439 q 339 563 221 563 q 596 531 389 563 q 710 715 692 690 q 865 889 793 839 q 1144 983 1001 983 q 1218 978 1181 983 q 1304 1000 1263 1000 q 1346 979 1346 1000 q 1310 963 1346 963 q 1275 964 1299 963 q 1242 965 1251 965 q 1121 874 1185 965 q 972 528 1044 763 q 882 99 876 215 q 921 44 885 44 q 1025 110 964 44 q 1044 129 1043 129 q 1038 107 1051 125 q 947 26 1010 71 q 839 -24 876 -24 q 797 56 790 -24 q 844 296 803 124 q 904 525 879 446 q 729 481 849 481 q 590 486 650 481 q 488 328 560 431 q 374 175 417 225 q 182 13 286 71 q 13 -43 88 -43 q -92 43 -92 -43 q -78 119 -92 85 q -65 135 -71 136 q -67 104 -67 135 m 614 528 q 785 513 688 513 q 911 550 876 513 q 996 771 965 714 q 1194 968 1074 922 q 885 864 1032 968 q 614 528 758 774 m 1151 1089 q 1093 1104 1125 1092 q 1033 1125 1051 1121 q 1013 1128 1022 1128 q 977 1114 992 1128 q 950 1086 963 1100 q 943 1086 944 1081 q 944 1094 942 1090 q 1089 1171 999 1181 q 1144 1153 1111 1168 q 1207 1135 1178 1139 q 1261 1144 1240 1129 q 1290 1174 1276 1158 q 1297 1174 1296 1179 q 1296 1165 1299 1169 q 1151 1089 1240 1079 z "},"":{"ha":1106,"x_min":-92,"x_max":1346,"o":"m -67 104 q -41 56 -67 76 q 26 36 -15 36 q 182 72 108 36 q 349 196 256 108 q 569 486 458 299 q 278 504 389 504 q 101 446 182 504 q 85 435 85 435 q 92 450 79 439 q 339 563 221 563 q 596 531 389 563 q 710 715 692 690 q 865 889 793 839 q 1144 983 1001 983 q 1218 978 1181 983 q 1304 1000 1263 1000 q 1346 979 1346 1000 q 1310 963 1346 963 q 1275 964 1299 963 q 1242 965 1251 965 q 1121 874 1185 965 q 972 528 1044 763 q 882 99 876 215 q 921 44 885 44 q 1025 110 964 44 q 1044 129 1043 129 q 1038 107 1051 125 q 947 26 1010 71 q 839 -24 876 -24 q 797 56 790 -24 q 844 296 803 124 q 904 525 879 446 q 729 481 849 481 q 590 486 650 481 q 488 328 560 431 q 374 175 417 225 q 182 13 286 71 q 13 -43 88 -43 q -92 43 -92 -43 q -78 119 -92 85 q -65 135 -71 136 q -67 104 -67 135 m 614 528 q 785 513 688 513 q 911 550 876 513 q 996 771 965 714 q 1194 968 1074 922 q 885 864 1032 968 q 614 528 758 774 m 1225 1143 q 1240 1118 1240 1124 q 1215 1088 1240 1110 q 1182 1067 1189 1067 q 1158 1089 1175 1067 q 1140 1118 1140 1111 q 1168 1150 1140 1126 q 1197 1168 1189 1168 q 1225 1143 1204 1168 m 1058 1143 q 1072 1118 1072 1125 q 1047 1088 1072 1110 q 1015 1065 1022 1065 q 990 1088 1007 1065 q 972 1118 972 1111 q 1001 1150 972 1126 q 1031 1168 1024 1168 q 1058 1143 1039 1168 z "},"":{"ha":1106,"x_min":-92,"x_max":1346,"o":"m -67 104 q -41 56 -67 76 q 26 36 -15 36 q 182 72 108 36 q 349 196 256 108 q 569 486 458 299 q 278 504 389 504 q 101 446 182 504 q 85 435 85 435 q 92 450 79 439 q 339 563 221 563 q 596 531 389 563 q 710 715 692 690 q 865 889 793 839 q 1144 983 1001 983 q 1218 978 1181 983 q 1304 1000 1263 1000 q 1346 979 1346 1000 q 1310 963 1346 963 q 1275 964 1299 963 q 1242 965 1251 965 q 1121 874 1185 965 q 972 528 1044 763 q 882 99 876 215 q 921 44 885 44 q 1025 110 964 44 q 1044 129 1043 129 q 1038 107 1051 125 q 947 26 1010 71 q 839 -24 876 -24 q 797 56 790 -24 q 844 296 803 124 q 904 525 879 446 q 729 481 849 481 q 590 486 650 481 q 488 328 560 431 q 374 175 417 225 q 182 13 286 71 q 13 -43 88 -43 q -92 43 -92 -43 q -78 119 -92 85 q -65 135 -71 136 q -67 104 -67 135 m 614 528 q 785 513 688 513 q 911 550 876 513 q 996 771 965 714 q 1194 968 1074 922 q 885 864 1032 968 q 614 528 758 774 m 1232 1142 q 1198 1083 1232 1108 q 1128 1058 1164 1058 q 1076 1076 1099 1058 q 1054 1124 1054 1094 q 1089 1183 1054 1157 q 1156 1206 1119 1206 q 1209 1188 1186 1206 q 1232 1142 1232 1171 m 1194 1132 q 1178 1167 1194 1153 q 1142 1182 1163 1182 q 1106 1167 1121 1182 q 1092 1132 1092 1153 q 1106 1097 1092 1111 q 1142 1082 1121 1082 q 1178 1097 1163 1082 q 1194 1132 1194 1111 z "},"":{"ha":1418,"x_min":-99,"x_max":1382,"o":"m 894 528 q 722 481 836 481 q 583 486 643 481 q 481 328 553 431 q 367 175 410 225 q 175 13 279 71 q 6 -43 81 -43 q -99 43 -99 -43 q -85 119 -99 85 q -72 135 -78 136 q -74 104 -74 135 q -48 56 -74 76 q 19 36 -22 36 q 175 72 101 36 q 342 196 249 108 q 564 488 453 300 q 271 510 376 510 q 94 446 171 510 q 78 435 81 432 q 85 450 72 439 q 331 561 211 561 q 589 531 390 561 q 701 717 696 708 q 858 889 785 840 q 1154 976 992 976 q 1204 976 1171 976 q 1256 975 1239 975 q 1360 961 1324 975 q 1376 924 1382 953 q 1344 789 1360 838 q 1328 772 1338 768 q 1331 797 1322 774 q 1349 889 1349 851 q 1304 938 1349 919 q 1222 951 1269 951 q 1069 893 1133 951 q 999 743 1001 833 q 1049 608 996 658 q 1186 547 1101 557 q 1214 549 1200 546 q 1231 553 1228 553 q 1220 533 1238 553 q 1185 514 1203 513 q 1113 522 1163 518 q 906 435 994 525 q 818 238 818 344 q 875 75 818 133 q 1057 13 938 13 q 1339 144 1232 13 q 1363 164 1354 164 q 1367 163 1365 164 q 1357 136 1376 154 q 1207 19 1275 57 q 994 -35 1108 -35 q 833 6 906 -35 q 732 132 751 51 q 728 181 728 153 q 774 331 728 253 q 871 442 814 396 q 1081 540 954 508 q 976 601 1021 556 q 925 719 925 653 q 995 873 925 801 q 1167 963 1065 944 q 1033 940 1110 965 q 878 864 949 914 q 607 528 751 774 q 776 514 674 514 q 904 550 856 514 q 894 528 911 544 z "},"":{"ha":750,"x_min":-4,"x_max":819,"o":"m 250 -165 q 235 -178 242 -165 q 221 -217 231 -185 q 217 -235 217 -228 q 249 -250 217 -250 q 328 -333 339 -250 q 297 -386 324 -361 q 222 -415 265 -415 q 178 -399 178 -415 q 179 -394 178 -396 q 192 -397 182 -392 q 211 -401 203 -401 q 282 -335 278 -401 q 272 -286 283 -304 q 226 -268 257 -265 q 199 -269 203 -271 q 194 -231 182 -265 q 225 -167 204 -204 q 55 -97 114 -167 q -4 90 -4 -28 q 121 519 -4 299 q 389 836 233 718 q 717 958 550 958 q 797 943 761 958 q 818 921 819 933 q 788 835 811 907 q 765 756 781 806 q 750 742 760 739 q 750 761 744 743 q 776 863 763 803 q 669 913 778 913 q 396 821 508 913 q 185 529 278 725 q 88 150 88 325 q 300 -104 88 -104 q 526 -26 414 -104 q 644 92 607 29 q 665 103 657 113 q 663 78 674 93 q 529 -46 625 25 q 250 -165 378 -158 z "},"":{"ha":689,"x_min":-4,"x_max":650,"o":"m 349 529 q 246 589 289 544 q 193 708 194 642 q 300 889 192 810 q 524 964 403 965 q 628 950 593 964 q 644 913 650 942 q 613 778 628 826 q 596 761 606 757 q 599 786 590 763 q 617 878 617 840 q 572 926 617 908 q 490 940 538 940 q 338 882 401 940 q 267 732 269 822 q 317 597 264 647 q 454 536 369 546 q 482 538 468 535 q 499 542 496 542 q 488 522 506 542 q 453 503 471 501 q 381 511 431 507 q 174 424 263 514 q 86 226 86 333 q 143 64 86 122 q 325 1 206 1 q 607 133 500 1 q 628 154 624 154 q 635 151 631 154 q 625 125 642 144 q 263 -46 478 -46 q 67 17 139 -46 q -4 169 -4 79 q 40 319 -4 243 q 136 432 79 388 q 349 529 232 508 m 575 1047 q 553 1047 575 1038 q 425 1133 469 1086 q 390 1210 385 1176 q 406 1253 393 1224 q 419 1265 411 1261 q 432 1261 429 1271 q 432 1244 432 1261 q 564 1060 444 1121 q 575 1047 575 1054 z "},"":{"ha":689,"x_min":-4,"x_max":650,"o":"m 349 529 q 246 589 289 544 q 193 708 194 642 q 300 889 192 810 q 524 964 403 965 q 628 950 593 964 q 644 913 650 942 q 613 778 628 826 q 596 761 606 757 q 599 786 590 763 q 617 878 617 840 q 572 926 617 908 q 490 940 538 940 q 338 882 401 940 q 267 732 269 822 q 317 597 264 647 q 454 536 369 546 q 482 538 468 535 q 499 542 496 542 q 488 522 506 542 q 453 503 471 501 q 381 511 431 507 q 174 424 263 514 q 86 226 86 333 q 143 64 86 122 q 325 1 206 1 q 607 133 500 1 q 628 154 624 154 q 635 151 631 154 q 625 125 642 144 q 263 -46 478 -46 q 67 17 139 -46 q -4 169 -4 79 q 40 319 -4 243 q 136 432 79 388 q 349 529 232 508 m 646 1196 q 601 1124 646 1163 q 464 1051 551 1081 q 444 1053 447 1043 q 456 1064 440 1058 q 606 1235 581 1113 q 608 1253 607 1242 q 621 1254 611 1258 q 633 1240 626 1251 q 646 1196 646 1217 z "},"":{"ha":689,"x_min":-4,"x_max":717,"o":"m 349 529 q 246 589 289 544 q 193 708 194 642 q 300 889 192 810 q 524 964 403 965 q 628 950 593 964 q 644 913 650 942 q 613 778 628 826 q 596 761 606 757 q 599 786 590 763 q 617 878 617 840 q 572 926 617 908 q 490 940 538 940 q 338 882 401 940 q 267 732 269 822 q 317 597 264 647 q 454 536 369 546 q 482 538 468 535 q 499 542 496 542 q 488 522 506 542 q 453 503 471 501 q 381 511 431 507 q 174 424 263 514 q 86 226 86 333 q 143 64 86 122 q 325 1 206 1 q 607 133 500 1 q 628 154 624 154 q 635 151 631 154 q 625 125 642 144 q 263 -46 478 -46 q 67 17 139 -46 q -4 169 -4 79 q 40 319 -4 243 q 136 432 79 388 q 349 529 232 508 m 715 1057 q 678 1031 708 1042 q 665 1035 671 1028 q 550 1176 617 1094 q 533 1181 542 1186 q 375 1043 483 1147 q 360 1050 372 1040 q 356 1067 349 1060 q 557 1229 426 1122 q 576 1226 568 1239 q 710 1065 642 1135 q 715 1057 717 1058 z "},"":{"ha":689,"x_min":-4,"x_max":650,"o":"m 349 529 q 246 589 289 544 q 193 708 194 642 q 300 889 192 810 q 524 964 403 965 q 628 950 593 964 q 644 913 650 942 q 613 778 628 826 q 596 761 606 757 q 599 786 590 763 q 617 878 617 840 q 572 926 617 908 q 490 940 538 940 q 338 882 401 940 q 267 732 269 822 q 317 597 264 647 q 454 536 369 546 q 482 538 468 535 q 499 542 496 542 q 488 522 506 542 q 453 503 471 501 q 381 511 431 507 q 174 424 263 514 q 86 226 86 333 q 143 64 86 122 q 325 1 206 1 q 607 133 500 1 q 628 154 624 154 q 635 151 631 154 q 625 125 642 144 q 263 -46 478 -46 q 67 17 139 -46 q -4 169 -4 79 q 40 319 -4 243 q 136 432 79 388 q 349 529 232 508 m 621 1143 q 636 1118 636 1124 q 610 1088 636 1110 q 578 1067 585 1067 q 553 1089 571 1067 q 536 1118 536 1111 q 564 1150 536 1126 q 593 1168 585 1168 q 621 1143 600 1168 m 454 1143 q 468 1118 468 1125 q 443 1088 468 1110 q 411 1065 418 1065 q 385 1088 403 1065 q 368 1118 368 1111 q 397 1150 368 1126 q 426 1168 419 1168 q 454 1143 435 1168 z "},"":{"ha":375,"x_min":-235,"x_max":514,"o":"m 408 942 q 149 935 232 935 q 124 946 121 935 q 154 957 128 960 q 333 950 257 949 q 501 963 383 951 q 513 951 511 963 q 507 942 514 944 q 493 939 500 939 q 379 914 417 943 q 324 829 351 892 q 218 485 278 725 q 125 135 186 357 q 75 54 107 81 q -15 10 51 36 q 214 18 104 18 q 250 4 254 18 q 214 -3 247 -6 q 47 4 111 6 q -84 -10 0 3 q -200 -33 -168 -24 q -228 -25 -224 -40 q -203 -3 -235 -3 q -62 6 -126 -3 q 61 174 1 14 q 154 504 90 257 q 231 792 181 615 q 298 897 258 863 q 408 942 338 932 m 446 1047 q 424 1047 446 1038 q 296 1133 340 1086 q 261 1210 256 1176 q 276 1253 264 1224 q 290 1265 282 1261 q 303 1261 300 1271 q 303 1244 303 1261 q 435 1060 315 1121 q 446 1047 446 1054 z "},"":{"ha":375,"x_min":-235,"x_max":533,"o":"m 408 942 q 149 935 232 935 q 124 946 121 935 q 154 957 128 960 q 333 950 257 949 q 501 963 383 951 q 513 951 511 963 q 507 942 514 944 q 493 939 500 939 q 379 914 417 943 q 324 829 351 892 q 218 485 278 725 q 125 135 186 357 q 75 54 107 81 q -15 10 51 36 q 214 18 104 18 q 250 4 254 18 q 214 -3 247 -6 q 47 4 111 6 q -84 -10 0 3 q -200 -33 -168 -24 q -228 -25 -224 -40 q -203 -3 -235 -3 q -62 6 -126 -3 q 61 174 1 14 q 154 504 90 257 q 231 792 181 615 q 298 897 258 863 q 408 942 338 932 m 533 1196 q 489 1124 533 1163 q 351 1051 439 1081 q 332 1053 335 1043 q 343 1064 328 1058 q 493 1235 468 1113 q 496 1253 494 1242 q 508 1254 499 1258 q 521 1240 514 1251 q 533 1196 533 1217 z "},"":{"ha":375,"x_min":-235,"x_max":563,"o":"m 408 942 q 149 935 232 935 q 124 946 121 935 q 154 957 128 960 q 333 950 257 949 q 501 963 383 951 q 513 951 511 963 q 507 942 514 944 q 493 939 500 939 q 379 914 417 943 q 324 829 351 892 q 218 485 278 725 q 125 135 186 357 q 75 54 107 81 q -15 10 51 36 q 214 18 104 18 q 250 4 254 18 q 214 -3 247 -6 q 47 4 111 6 q -84 -10 0 3 q -200 -33 -168 -24 q -228 -25 -224 -40 q -203 -3 -235 -3 q -62 6 -126 -3 q 61 174 1 14 q 154 504 90 257 q 231 792 181 615 q 298 897 258 863 q 408 942 338 932 m 561 1057 q 524 1031 554 1042 q 511 1035 517 1028 q 396 1176 463 1094 q 379 1181 388 1186 q 221 1043 329 1147 q 206 1050 218 1040 q 201 1067 194 1060 q 403 1229 272 1122 q 422 1226 414 1239 q 556 1065 488 1135 q 561 1057 563 1058 z "},"":{"ha":375,"x_min":-235,"x_max":519,"o":"m 408 942 q 149 935 232 935 q 124 946 121 935 q 154 957 128 960 q 333 950 257 949 q 501 963 383 951 q 513 951 511 963 q 507 942 514 944 q 493 939 500 939 q 379 914 417 943 q 324 829 351 892 q 218 485 278 725 q 125 135 186 357 q 75 54 107 81 q -15 10 51 36 q 214 18 104 18 q 250 4 254 18 q 214 -3 247 -6 q 47 4 111 6 q -84 -10 0 3 q -200 -33 -168 -24 q -228 -25 -224 -40 q -203 -3 -235 -3 q -62 6 -126 -3 q 61 174 1 14 q 154 504 90 257 q 231 792 181 615 q 298 897 258 863 q 408 942 338 932 m 504 1143 q 519 1118 519 1124 q 494 1088 519 1110 q 461 1067 468 1067 q 437 1089 454 1067 q 419 1118 419 1111 q 447 1150 419 1126 q 476 1168 468 1168 q 504 1143 483 1168 m 338 1143 q 351 1118 351 1125 q 326 1088 351 1110 q 294 1065 301 1065 q 269 1088 286 1065 q 251 1118 251 1111 q 281 1150 251 1126 q 310 1168 303 1168 q 338 1143 318 1168 z "},"":{"ha":1006,"x_min":-157,"x_max":960,"o":"m 229 507 l 43 507 l 49 529 l 235 529 q 296 732 254 594 q 418 938 336 860 q 178 899 294 938 q -3 806 71 864 q -21 799 -12 799 q -40 824 -40 799 q -7 871 -40 857 q 432 954 190 954 q 578 1049 507 1022 q 618 1053 615 1063 q 603 1043 619 1047 q 479 954 521 1021 q 835 858 710 954 q 957 593 960 761 q 888 339 954 465 q 706 122 819 208 q 289 -11 529 -11 q 135 -1 244 -11 q -36 10 26 10 q -139 -7 -100 10 q -153 -14 -154 -14 q -154 0 -157 -11 q -81 57 -136 57 q -51 55 -69 57 q -22 53 -33 53 q 54 86 17 53 q 151 265 104 131 q 229 507 179 342 m 310 529 l 475 529 l 469 507 l 303 507 q 226 301 263 386 q 22 47 142 107 q 168 26 39 46 q 346 11 272 11 q 689 153 549 11 q 867 569 863 329 q 778 828 869 733 q 472 938 676 932 q 379 731 431 869 q 310 529 357 665 z "},"":{"ha":1267,"x_min":-99,"x_max":1588,"o":"m 569 965 q 436 869 488 965 q 407 771 417 832 q 396 751 404 751 q 389 775 383 751 q 431 886 404 836 q 508 994 469 961 q 632 1040 560 1040 q 811 931 733 1040 q 928 688 868 853 q 1007 404 971 571 q 1050 126 1043 238 q 1143 467 1086 294 q 1318 849 1224 710 q 1536 996 1418 996 q 1573 988 1558 996 q 1583 964 1588 979 q 1559 947 1578 946 q 1517 946 1540 949 q 1351 839 1424 933 q 1163 460 1246 701 q 1067 113 1106 292 q 1056 61 1057 67 q 1031 18 1049 40 q 990 -17 1003 -17 q 986 6 986 -17 q 926 424 986 165 q 797 794 874 650 q 569 965 707 965 m 775 724 q 783 697 790 721 q 589 246 696 422 q 372 4 501 100 q 99 -103 232 -101 q -99 29 -99 -106 q -83 122 -99 78 q -50 197 -79 132 q -35 211 -42 214 q -39 190 -28 208 q -67 97 -67 147 q 3 -6 -67 29 q 140 -33 58 -33 q 397 60 274 -33 q 568 251 499 136 q 753 697 697 464 q 775 724 760 726 m 1110 1089 q 1051 1104 1083 1092 q 992 1125 1010 1121 q 971 1128 981 1128 q 935 1114 950 1128 q 908 1086 921 1100 q 901 1086 903 1081 q 903 1094 900 1090 q 1047 1171 957 1181 q 1103 1153 1069 1168 q 1165 1135 1136 1139 q 1219 1144 1199 1129 q 1249 1174 1235 1158 q 1256 1174 1254 1179 q 1254 1165 1257 1169 q 1110 1089 1199 1079 z "},"":{"ha":842,"x_min":67,"x_max":813,"o":"m 597 978 q 763 890 706 978 q 813 694 813 814 q 740 396 813 564 q 563 122 668 228 q 426 24 503 63 q 285 -14 350 -14 q 118 68 175 -14 q 67 264 67 142 q 157 628 67 447 q 349 878 238 786 q 597 978 471 978 m 721 635 q 675 846 721 769 q 510 928 621 939 q 357 858 426 919 q 207 622 265 778 q 153 326 153 475 q 358 38 153 38 q 551 140 453 38 q 675 374 624 217 q 721 635 721 518 m 683 1047 q 661 1047 683 1038 q 533 1133 578 1086 q 499 1210 493 1176 q 514 1253 501 1224 q 528 1265 519 1261 q 540 1261 538 1271 q 540 1244 540 1261 q 672 1060 553 1121 q 683 1047 683 1054 z "},"":{"ha":842,"x_min":67,"x_max":813,"o":"m 597 978 q 763 890 706 978 q 813 694 813 814 q 740 396 813 564 q 563 122 668 228 q 426 24 503 63 q 285 -14 350 -14 q 118 68 175 -14 q 67 264 67 142 q 157 628 67 447 q 349 878 238 786 q 597 978 471 978 m 721 635 q 675 846 721 769 q 510 928 621 939 q 357 858 426 919 q 207 622 265 778 q 153 326 153 475 q 358 38 153 38 q 551 140 453 38 q 675 374 624 217 q 721 635 721 518 m 747 1196 q 703 1124 747 1163 q 565 1051 653 1081 q 546 1053 549 1043 q 557 1064 542 1058 q 707 1235 682 1113 q 710 1253 708 1242 q 722 1254 713 1258 q 735 1240 728 1251 q 747 1196 747 1217 z "},"":{"ha":842,"x_min":67,"x_max":813,"o":"m 597 978 q 763 890 706 978 q 813 694 813 814 q 740 396 813 564 q 563 122 668 228 q 426 24 503 63 q 285 -14 350 -14 q 118 68 175 -14 q 67 264 67 142 q 157 628 67 447 q 349 878 238 786 q 597 978 471 978 m 721 635 q 675 846 721 769 q 510 928 621 939 q 357 858 426 919 q 207 622 265 778 q 153 326 153 475 q 358 38 153 38 q 551 140 453 38 q 675 374 624 217 q 721 635 721 518 m 783 1057 q 746 1031 776 1042 q 733 1035 739 1028 q 618 1176 685 1094 q 601 1181 610 1186 q 443 1043 551 1147 q 428 1050 440 1040 q 424 1067 417 1060 q 625 1229 494 1122 q 644 1226 636 1239 q 778 1065 710 1135 q 783 1057 785 1058 z "},"":{"ha":842,"x_min":67,"x_max":813,"o":"m 597 978 q 763 890 706 978 q 813 694 813 814 q 740 396 813 564 q 563 122 668 228 q 426 24 503 63 q 285 -14 350 -14 q 118 68 175 -14 q 67 264 67 142 q 157 628 67 447 q 349 878 238 786 q 597 978 471 978 m 721 635 q 675 846 721 769 q 510 928 621 939 q 357 858 426 919 q 207 622 265 778 q 153 326 153 475 q 358 38 153 38 q 551 140 453 38 q 675 374 624 217 q 721 635 721 518 m 651 1089 q 593 1104 625 1092 q 533 1125 551 1121 q 513 1128 522 1128 q 477 1114 492 1128 q 450 1086 463 1100 q 443 1086 444 1081 q 444 1094 442 1090 q 589 1171 499 1181 q 644 1153 611 1168 q 707 1135 678 1139 q 761 1144 740 1129 q 790 1174 776 1158 q 797 1174 796 1179 q 796 1165 799 1169 q 651 1089 740 1079 z "},"":{"ha":842,"x_min":67,"x_max":813,"o":"m 597 978 q 763 890 706 978 q 813 694 813 814 q 740 396 813 564 q 563 122 668 228 q 426 24 503 63 q 285 -14 350 -14 q 118 68 175 -14 q 67 264 67 142 q 157 628 67 447 q 349 878 238 786 q 597 978 471 978 m 721 635 q 675 846 721 769 q 510 928 621 939 q 357 858 426 919 q 207 622 265 778 q 153 326 153 475 q 358 38 153 38 q 551 140 453 38 q 675 374 624 217 q 721 635 721 518 m 725 1143 q 740 1118 740 1124 q 715 1088 740 1110 q 682 1067 689 1067 q 658 1089 675 1067 q 640 1118 640 1111 q 668 1150 640 1126 q 697 1168 689 1168 q 725 1143 704 1168 m 558 1143 q 572 1118 572 1125 q 547 1088 572 1110 q 515 1065 522 1065 q 490 1088 507 1065 q 472 1118 472 1111 q 501 1150 472 1126 q 531 1168 524 1168 q 558 1143 539 1168 z "},"":{"ha":804,"x_min":29,"x_max":772,"o":"m 772 392 q 650 274 772 358 q 424 114 443 131 q 303 -46 303 17 q 393 -107 303 -107 q 467 -99 421 -107 q 529 -90 513 -90 q 578 -106 558 -90 q 586 -147 603 -126 q 547 -146 569 -165 q 457 -128 519 -122 q 329 -125 367 -136 q 261 -93 281 -111 q 233 -15 233 -67 q 393 204 233 69 q 619 378 506 290 q 635 400 635 390 q 617 408 635 411 q 379 317 521 392 q 346 314 367 310 q 317 330 325 318 q 308 358 308 342 q 325 399 308 381 q 433 479 351 426 q 568 578 525 539 q 579 594 579 589 q 560 601 579 606 q 307 511 468 585 q 103 418 228 472 q 75 413 88 413 q 32 440 42 413 q 29 458 29 450 q 65 519 29 493 q 368 701 217 610 q 665 907 628 856 q 683 950 683 931 q 596 997 683 997 q 342 932 497 997 q 147 828 217 879 q 122 818 133 818 q 107 829 111 818 q 128 872 101 846 q 297 960 165 908 q 579 1022 457 1022 q 738 907 738 1022 q 539 692 738 822 q 286 538 413 615 q 478 621 365 578 q 661 669 615 672 q 725 607 725 665 q 631 492 725 560 q 499 404 565 449 q 710 450 649 450 q 772 392 772 450 z "},"":{"ha":842,"x_min":67,"x_max":813,"o":"m 694 954 q 813 694 813 889 q 740 396 813 564 q 561 122 667 228 q 428 25 501 63 q 285 -14 350 -14 q 226 -7 257 -14 l 190 -82 l 165 -71 q 200 1 175 -53 q 67 264 67 56 q 163 626 67 446 q 357 875 243 781 q 597 978 482 978 q 674 964 642 978 l 706 1031 l 728 1022 q 694 954 719 1006 m 236 75 q 638 892 346 296 q 513 926 590 926 q 360 858 433 926 q 211 621 268 774 q 156 326 156 474 q 236 75 156 139 m 657 875 q 258 60 458 468 q 361 38 301 38 q 554 140 456 38 q 678 374 626 217 q 724 635 724 518 q 657 875 724 808 z "},"":{"ha":903,"x_min":40,"x_max":906,"o":"m 715 431 q 660 149 671 263 q 657 114 657 128 q 713 57 657 47 q 813 136 767 67 q 828 147 821 150 q 822 126 836 144 q 728 42 794 89 q 615 -12 653 -12 q 569 44 569 -12 q 631 358 569 121 q 461 138 568 233 q 301 22 383 67 q 156 -28 214 -28 q 40 110 40 -28 q 108 519 40 281 q 215 796 157 689 q 301 895 247 856 q 399 938 354 935 q 139 929 254 929 q 114 944 110 929 q 144 956 118 958 q 324 946 274 944 q 478 957 374 947 q 489 947 488 957 q 469 935 490 935 q 372 908 410 935 q 311 842 342 889 q 176 510 233 724 q 126 175 126 322 q 228 38 126 38 q 463 163 325 38 q 581 303 526 221 q 647 438 628 378 q 674 522 664 489 q 768 825 704 625 q 815 897 783 871 q 888 939 829 908 q 904 942 901 946 q 894 929 906 939 q 864 883 876 911 q 738 517 803 749 q 715 431 731 490 m 688 1047 q 665 1047 688 1038 q 538 1133 582 1086 q 503 1210 497 1176 q 518 1253 506 1224 q 532 1265 524 1261 q 544 1261 542 1271 q 544 1244 544 1261 q 676 1060 557 1121 q 688 1047 688 1054 z "},"":{"ha":903,"x_min":40,"x_max":906,"o":"m 715 431 q 660 149 671 263 q 657 114 657 128 q 713 57 657 47 q 813 136 767 67 q 828 147 821 150 q 822 126 836 144 q 728 42 794 89 q 615 -12 653 -12 q 569 44 569 -12 q 631 358 569 121 q 461 138 568 233 q 301 22 383 67 q 156 -28 214 -28 q 40 110 40 -28 q 108 519 40 281 q 215 796 157 689 q 301 895 247 856 q 399 938 354 935 q 139 929 254 929 q 114 944 110 929 q 144 956 118 958 q 324 946 274 944 q 478 957 374 947 q 489 947 488 957 q 469 935 490 935 q 372 908 410 935 q 311 842 342 889 q 176 510 233 724 q 126 175 126 322 q 228 38 126 38 q 463 163 325 38 q 581 303 526 221 q 647 438 628 378 q 674 522 664 489 q 768 825 704 625 q 815 897 783 871 q 888 939 829 908 q 904 942 901 946 q 894 929 906 939 q 864 883 876 911 q 738 517 803 749 q 715 431 731 490 m 738 1196 q 693 1124 738 1163 q 556 1051 643 1081 q 536 1053 539 1043 q 547 1064 532 1058 q 697 1235 672 1113 q 700 1253 699 1242 q 713 1254 703 1258 q 725 1240 718 1251 q 738 1196 738 1217 z "},"":{"ha":903,"x_min":40,"x_max":906,"o":"m 715 431 q 660 149 671 263 q 657 114 657 128 q 713 57 657 47 q 813 136 767 67 q 828 147 821 150 q 822 126 836 144 q 728 42 794 89 q 615 -12 653 -12 q 569 44 569 -12 q 631 358 569 121 q 461 138 568 233 q 301 22 383 67 q 156 -28 214 -28 q 40 110 40 -28 q 108 519 40 281 q 215 796 157 689 q 301 895 247 856 q 399 938 354 935 q 139 929 254 929 q 114 944 110 929 q 144 956 118 958 q 324 946 274 944 q 478 957 374 947 q 489 947 488 957 q 469 935 490 935 q 372 908 410 935 q 311 842 342 889 q 176 510 233 724 q 126 175 126 322 q 228 38 126 38 q 463 163 325 38 q 581 303 526 221 q 647 438 628 378 q 674 522 664 489 q 768 825 704 625 q 815 897 783 871 q 888 939 829 908 q 904 942 901 946 q 894 929 906 939 q 864 883 876 911 q 738 517 803 749 q 715 431 731 490 m 790 1057 q 753 1031 783 1042 q 740 1035 746 1028 q 625 1176 692 1094 q 608 1181 617 1186 q 450 1043 558 1147 q 435 1050 447 1040 q 431 1067 424 1060 q 632 1229 501 1122 q 651 1226 643 1239 q 785 1065 717 1135 q 790 1057 792 1058 z "},"":{"ha":903,"x_min":40,"x_max":906,"o":"m 715 431 q 660 149 671 263 q 657 114 657 128 q 713 57 657 47 q 813 136 767 67 q 828 147 821 150 q 822 126 836 144 q 728 42 794 89 q 615 -12 653 -12 q 569 44 569 -12 q 631 358 569 121 q 461 138 568 233 q 301 22 383 67 q 156 -28 214 -28 q 40 110 40 -28 q 108 519 40 281 q 215 796 157 689 q 301 895 247 856 q 399 938 354 935 q 139 929 254 929 q 114 944 110 929 q 144 956 118 958 q 324 946 274 944 q 478 957 374 947 q 489 947 488 957 q 469 935 490 935 q 372 908 410 935 q 311 842 342 889 q 176 510 233 724 q 126 175 126 322 q 228 38 126 38 q 463 163 325 38 q 581 303 526 221 q 647 438 628 378 q 674 522 664 489 q 768 825 704 625 q 815 897 783 871 q 888 939 829 908 q 904 942 901 946 q 894 929 906 939 q 864 883 876 911 q 738 517 803 749 q 715 431 731 490 m 725 1143 q 740 1118 740 1124 q 715 1088 740 1110 q 682 1067 689 1067 q 658 1089 675 1067 q 640 1118 640 1111 q 668 1150 640 1126 q 697 1168 689 1168 q 725 1143 704 1168 m 558 1143 q 572 1118 572 1125 q 547 1088 572 1110 q 515 1065 522 1065 q 490 1088 507 1065 q 472 1118 472 1111 q 501 1150 472 1126 q 531 1168 524 1168 q 558 1143 539 1168 z "},"":{"ha":740,"x_min":15,"x_max":963,"o":"m 469 433 q 619 653 518 518 q 781 851 714 779 q 824 896 810 883 q 878 927 849 917 q 947 940 908 938 q 963 936 963 942 q 951 928 963 931 q 847 858 913 917 q 526 486 663 693 q 454 326 489 429 q 396 56 396 153 q 426 1 396 1 q 513 24 461 1 q 597 81 557 43 q 611 88 606 89 q 604 68 622 83 q 511 8 564 35 q 353 -39 418 -39 q 300 3 300 -39 q 386 308 300 54 q 396 469 410 378 q 328 707 376 593 q 142 921 236 921 q 75 886 110 921 q 35 836 61 872 q 21 833 28 829 q 28 854 15 838 q 92 917 50 883 q 226 988 181 988 q 328 906 281 988 q 394 747 354 858 q 469 433 449 596 m 725 1196 q 681 1124 725 1163 q 543 1051 631 1081 q 524 1053 526 1043 q 535 1064 519 1058 q 685 1235 660 1113 q 688 1253 686 1242 q 700 1254 690 1258 q 713 1240 706 1251 q 725 1196 725 1217 z "},"":{"ha":549,"x_min":-89,"x_max":588,"o":"m 151 511 q 290 993 181 606 q 207 989 268 994 q 201 994 203 989 q 204 1004 201 999 q 211 1010 207 1010 q 472 1010 304 1004 q 478 1004 476 1010 q 474 995 478 1000 q 464 990 469 990 q 378 992 381 999 q 218 531 314 811 q 336 708 257 613 q 536 867 467 867 q 583 789 588 867 q 511 508 576 653 q 375 319 469 415 q 204 224 281 224 q 147 272 156 224 l 75 7 q 158 11 97 6 q 164 6 163 11 q 161 -4 164 1 q 154 -10 158 -10 q -83 -11 85 -6 q -89 -6 -87 -11 q -85 3 -89 -1 q -75 8 -81 8 q -3 11 -7 1 q 151 511 43 154 m 499 710 q 461 790 500 790 q 326 676 411 790 q 188 403 235 553 q 154 294 171 351 q 224 269 175 269 q 376 338 311 269 q 459 500 422 386 q 499 710 496 614 z "},"":{"ha":576,"x_min":-317,"x_max":585,"o":"m 585 900 q 561 822 585 860 q 397 654 517 751 q 351 589 351 617 q 361 556 351 574 q 485 361 401 494 q 515 257 515 310 q 447 103 515 178 q 261 -6 349 -6 q 185 25 197 -6 q 187 45 181 35 q 203 56 193 56 q 244 49 213 56 q 297 43 275 43 q 415 92 372 43 q 456 200 456 136 q 390 365 456 260 q 290 521 340 443 q 296 589 268 560 q 351 639 310 604 q 472 744 457 728 q 517 865 521 800 q 449 925 513 925 q 351 876 400 925 q 271 744 303 828 q 207 511 244 676 q 111 132 156 288 q -39 -190 63 -39 q -133 -294 -81 -253 q -240 -340 -192 -340 q -317 -299 -317 -340 q -289 -275 -317 -275 q -253 -283 -279 -275 q -211 -290 -226 -290 q -56 -187 -122 -290 q 72 233 6 -93 q 132 521 96 343 q 88 557 125 557 q 60 552 72 557 q 47 547 47 547 q 55 565 39 550 q 93 581 71 579 q 144 571 118 582 q 188 717 158 625 q 269 831 208 769 q 389 924 326 888 q 525 968 467 968 q 585 900 585 968 z "},"":{"ha":575,"x_min":-25,"x_max":544,"o":"m 535 125 q 529 106 544 121 q 426 24 486 63 q 335 -14 367 -14 q 286 40 286 -14 q 346 329 286 139 q 236 163 317 258 q 13 -12 89 -12 q -24 51 -25 -12 q 75 392 -21 214 q 232 571 126 486 q 390 643 325 646 q 446 568 453 640 q 500 614 479 594 q 521 624 515 629 q 515 607 524 621 q 413 343 454 501 q 378 136 381 219 q 379 81 376 93 q 417 50 386 50 q 522 117 456 50 q 535 125 532 126 m 413 529 q 417 551 417 540 q 378 597 417 588 q 351 600 365 600 q 239 556 292 600 q 110 333 164 492 q 64 115 63 196 q 90 61 65 61 q 225 172 135 61 q 413 529 326 297 m 438 700 q 415 700 438 690 q 288 786 332 739 q 253 863 247 829 q 268 906 256 876 q 282 918 274 914 q 294 914 292 924 q 294 897 294 914 q 426 713 307 774 q 438 700 438 707 z "},"":{"ha":575,"x_min":-25,"x_max":544,"o":"m 535 125 q 529 106 544 121 q 426 24 486 63 q 335 -14 367 -14 q 286 40 286 -14 q 346 329 286 139 q 236 163 317 258 q 13 -12 89 -12 q -24 51 -25 -12 q 75 392 -21 214 q 232 571 126 486 q 390 643 325 646 q 446 568 453 640 q 500 614 479 594 q 521 624 515 629 q 515 607 524 621 q 413 343 454 501 q 378 136 381 219 q 379 81 376 93 q 417 50 386 50 q 522 117 456 50 q 535 125 532 126 m 413 529 q 417 551 417 540 q 378 597 417 588 q 351 600 365 600 q 239 556 292 600 q 110 333 164 492 q 64 115 63 196 q 90 61 65 61 q 225 172 135 61 q 413 529 326 297 m 521 849 q 476 776 521 815 q 339 704 426 733 q 319 706 322 696 q 331 717 315 711 q 481 888 456 765 q 483 906 482 894 q 496 907 486 911 q 508 893 501 904 q 521 849 521 869 z "},"":{"ha":575,"x_min":-25,"x_max":571,"o":"m 535 125 q 529 106 544 121 q 426 24 486 63 q 335 -14 367 -14 q 286 40 286 -14 q 346 329 286 139 q 236 163 317 258 q 13 -12 89 -12 q -24 51 -25 -12 q 75 392 -21 214 q 232 571 126 486 q 390 643 325 646 q 446 568 453 640 q 500 614 479 594 q 521 624 515 629 q 515 607 524 621 q 413 343 454 501 q 378 136 381 219 q 379 81 376 93 q 417 50 386 50 q 522 117 456 50 q 535 125 532 126 m 413 529 q 417 551 417 540 q 378 597 417 588 q 351 600 365 600 q 239 556 292 600 q 110 333 164 492 q 64 115 63 196 q 90 61 65 61 q 225 172 135 61 q 413 529 326 297 m 569 710 q 532 683 563 694 q 519 688 525 681 q 404 829 471 747 q 388 833 396 839 q 229 696 338 800 q 215 703 226 693 q 210 719 203 713 q 411 882 281 775 q 431 879 422 892 q 564 718 496 788 q 569 710 571 711 z "},"":{"ha":575,"x_min":-25,"x_max":578,"o":"m 535 125 q 529 106 544 121 q 426 24 486 63 q 335 -14 367 -14 q 286 40 286 -14 q 346 329 286 139 q 236 163 317 258 q 13 -12 89 -12 q -24 51 -25 -12 q 75 392 -21 214 q 232 571 126 486 q 390 643 325 646 q 446 568 453 640 q 500 614 479 594 q 521 624 515 629 q 515 607 524 621 q 413 343 454 501 q 378 136 381 219 q 379 81 376 93 q 417 50 386 50 q 522 117 456 50 q 535 125 532 126 m 413 529 q 417 551 417 540 q 378 597 417 588 q 351 600 365 600 q 239 556 292 600 q 110 333 164 492 q 64 115 63 196 q 90 61 65 61 q 225 172 135 61 q 413 529 326 297 m 431 742 q 372 757 404 744 q 313 778 331 774 q 292 781 301 781 q 256 767 271 781 q 229 739 242 753 q 222 739 224 733 q 224 747 221 743 q 368 824 278 833 q 424 806 390 821 q 486 788 457 792 q 540 797 519 782 q 569 826 556 811 q 576 826 575 832 q 575 818 578 822 q 431 742 519 732 z "},"":{"ha":575,"x_min":-25,"x_max":544,"o":"m 535 125 q 529 106 544 121 q 426 24 486 63 q 335 -14 367 -14 q 286 40 286 -14 q 346 329 286 139 q 236 163 317 258 q 13 -12 89 -12 q -24 51 -25 -12 q 75 392 -21 214 q 232 571 126 486 q 390 643 325 646 q 446 568 453 640 q 500 614 479 594 q 521 624 515 629 q 515 607 524 621 q 413 343 454 501 q 378 136 381 219 q 379 81 376 93 q 417 50 386 50 q 522 117 456 50 q 535 125 532 126 m 413 529 q 417 551 417 540 q 378 597 417 588 q 351 600 365 600 q 239 556 292 600 q 110 333 164 492 q 64 115 63 196 q 90 61 65 61 q 225 172 135 61 q 413 529 326 297 m 513 796 q 528 771 528 776 q 502 741 528 763 q 469 719 476 719 q 445 742 463 719 q 428 771 428 764 q 456 803 428 779 q 485 821 476 821 q 513 796 492 821 m 346 796 q 360 771 360 778 q 335 740 360 763 q 303 718 310 718 q 277 741 294 718 q 260 771 260 764 q 289 803 260 779 q 318 821 311 821 q 346 796 326 821 z "},"":{"ha":575,"x_min":-25,"x_max":544,"o":"m 535 125 q 529 106 544 121 q 426 24 486 63 q 335 -14 367 -14 q 286 40 286 -14 q 346 329 286 139 q 236 163 317 258 q 13 -12 89 -12 q -24 51 -25 -12 q 75 392 -21 214 q 232 571 126 486 q 390 643 325 646 q 446 568 453 640 q 500 614 479 594 q 521 624 515 629 q 515 607 524 621 q 413 343 454 501 q 378 136 381 219 q 379 81 376 93 q 417 50 386 50 q 522 117 456 50 q 535 125 532 126 m 413 529 q 417 551 417 540 q 378 597 417 588 q 351 600 365 600 q 239 556 292 600 q 110 333 164 492 q 64 115 63 196 q 90 61 65 61 q 225 172 135 61 q 413 529 326 297 m 486 794 q 452 736 486 761 q 382 711 418 711 q 331 729 353 711 q 308 776 308 747 q 343 836 308 810 q 410 858 374 858 q 463 841 440 858 q 486 794 486 824 m 449 785 q 433 820 449 806 q 396 835 417 835 q 360 820 375 835 q 346 785 346 806 q 360 749 346 764 q 396 735 375 735 q 433 749 417 735 q 449 785 449 764 z "},"":{"ha":733,"x_min":-25,"x_max":731,"o":"m 568 594 q 682 647 638 647 q 722 585 731 647 q 568 381 708 479 q 681 406 646 406 q 707 389 707 406 q 688 363 707 371 q 636 381 682 381 q 549 363 597 381 q 499 339 528 353 q 482 342 482 333 q 493 354 482 351 q 551 381 519 357 q 607 460 583 406 q 632 550 629 510 q 606 594 635 594 q 568 578 589 594 q 488 460 538 553 q 407 182 407 310 q 518 35 407 35 q 638 94 575 35 q 653 101 650 104 q 644 85 657 97 q 565 26 613 53 q 447 -8 501 -8 q 329 144 325 -8 q 364 308 332 219 q 250 163 335 258 q 13 -10 97 -10 q -24 54 -25 -10 q 1 203 -22 113 q 69 383 28 306 q 231 571 125 486 q 399 644 324 644 q 464 585 464 644 q 458 550 464 569 q 443 524 451 521 q 440 539 438 525 q 371 607 451 604 q 240 557 301 610 q 115 347 175 500 q 60 118 63 213 q 90 65 58 65 q 239 172 147 65 q 393 378 326 275 q 474 497 450 465 q 568 594 519 557 z "},"":{"ha":400,"x_min":-6,"x_max":428,"o":"m 114 -17 q -6 140 -6 -17 q 74 419 -6 278 q 196 572 126 513 q 349 636 274 636 q 400 624 382 636 q 410 581 428 606 q 372 575 394 560 q 306 596 340 596 q 132 438 201 596 q 72 179 72 301 q 181 28 72 28 q 254 54 214 28 q 294 89 282 74 q 307 97 303 100 q 304 82 313 94 q 240 25 288 56 q 131 -15 183 -11 q 118 -53 129 -18 q 114 -71 114 -64 q 146 -86 114 -86 q 225 -169 236 -86 q 194 -222 221 -197 q 119 -251 163 -251 q 75 -235 75 -251 q 76 -231 75 -232 q 90 -233 79 -228 q 108 -237 100 -237 q 179 -171 175 -237 q 169 -122 181 -140 q 124 -104 154 -101 q 96 -106 100 -107 q 92 -67 79 -101 q 114 -17 99 -49 z "},"":{"ha":382,"x_min":-6,"x_max":382,"o":"m 74 210 q 96 76 68 122 q 185 31 124 31 q 303 92 242 31 q 318 99 315 101 q 310 82 322 96 q 232 24 279 50 q 115 -14 169 -12 q 18 28 47 -15 q -6 136 -6 64 q 74 424 -4 288 q 182 558 114 494 q 331 638 267 638 q 382 579 382 638 q 283 404 382 478 q 151 336 210 350 q 135 339 135 332 q 146 351 135 350 q 228 383 192 358 q 314 560 314 443 q 282 603 314 603 q 225 578 257 603 q 136 451 172 536 q 74 210 82 322 m 379 700 q 357 700 379 690 q 229 786 274 739 q 194 863 189 829 q 210 906 197 876 q 224 918 215 914 q 236 914 233 924 q 236 897 236 914 q 368 713 249 774 q 379 700 379 707 z "},"":{"ha":382,"x_min":-6,"x_max":461,"o":"m 74 210 q 96 76 68 122 q 185 31 124 31 q 303 92 242 31 q 318 99 315 101 q 310 82 322 96 q 232 24 279 50 q 115 -14 169 -12 q 18 28 47 -15 q -6 136 -6 64 q 74 424 -4 288 q 182 558 114 494 q 331 638 267 638 q 382 579 382 638 q 283 404 382 478 q 151 336 210 350 q 135 339 135 332 q 146 351 135 350 q 228 383 192 358 q 314 560 314 443 q 282 603 314 603 q 225 578 257 603 q 136 451 172 536 q 74 210 82 322 m 461 849 q 417 776 461 815 q 279 704 367 733 q 260 706 263 696 q 271 717 256 711 q 421 888 396 765 q 424 906 422 894 q 436 907 426 911 q 449 893 442 904 q 461 849 461 869 z "},"":{"ha":382,"x_min":-6,"x_max":504,"o":"m 74 210 q 96 76 68 122 q 185 31 124 31 q 303 92 242 31 q 318 99 315 101 q 310 82 322 96 q 232 24 279 50 q 115 -14 169 -12 q 18 28 47 -15 q -6 136 -6 64 q 74 424 -4 288 q 182 558 114 494 q 331 638 267 638 q 382 579 382 638 q 283 404 382 478 q 151 336 210 350 q 135 339 135 332 q 146 351 135 350 q 228 383 192 358 q 314 560 314 443 q 282 603 314 603 q 225 578 257 603 q 136 451 172 536 q 74 210 82 322 m 503 710 q 465 683 496 694 q 453 688 458 681 q 338 829 404 747 q 321 833 329 839 q 163 696 271 800 q 148 703 160 693 q 143 719 136 713 q 344 882 214 775 q 364 879 356 892 q 497 718 429 788 q 503 710 504 711 z "},"":{"ha":382,"x_min":-6,"x_max":469,"o":"m 74 210 q 96 76 68 122 q 185 31 124 31 q 303 92 242 31 q 318 99 315 101 q 310 82 322 96 q 232 24 279 50 q 115 -14 169 -12 q 18 28 47 -15 q -6 136 -6 64 q 74 424 -4 288 q 182 558 114 494 q 331 638 267 638 q 382 579 382 638 q 283 404 382 478 q 151 336 210 350 q 135 339 135 332 q 146 351 135 350 q 228 383 192 358 q 314 560 314 443 q 282 603 314 603 q 225 578 257 603 q 136 451 172 536 q 74 210 82 322 m 454 796 q 469 771 469 776 q 444 741 469 763 q 411 719 418 719 q 387 742 404 719 q 369 771 369 764 q 397 803 369 779 q 426 821 418 821 q 454 796 433 821 m 288 796 q 301 771 301 778 q 276 740 301 763 q 244 718 251 718 q 219 741 236 718 q 201 771 201 764 q 231 803 201 779 q 260 821 253 821 q 288 796 268 821 z "},"":{"ha":417,"x_min":35,"x_max":294,"o":"m 151 540 q 129 572 151 574 q 57 532 106 571 q 44 531 47 522 q 58 546 44 536 q 226 638 186 638 q 246 600 253 638 q 168 315 243 582 q 126 110 128 169 q 135 67 126 81 q 165 54 143 54 q 275 121 217 56 q 290 133 288 136 q 283 115 294 129 q 183 35 249 76 q 79 -11 113 -11 q 44 1 54 -11 q 35 38 35 13 q 60 144 35 56 q 107 317 100 288 q 151 540 153 494 m 267 700 q 244 700 267 690 q 117 786 161 739 q 82 863 76 829 q 97 906 85 876 q 111 918 103 914 q 124 914 121 924 q 124 897 124 914 q 256 713 136 774 q 267 700 267 707 z "},"":{"ha":417,"x_min":35,"x_max":342,"o":"m 151 540 q 129 572 151 574 q 57 532 106 571 q 44 531 47 522 q 58 546 44 536 q 226 638 186 638 q 246 600 253 638 q 168 315 243 582 q 126 110 128 169 q 135 67 126 81 q 165 54 143 54 q 275 121 217 56 q 290 133 288 136 q 283 115 294 129 q 183 35 249 76 q 79 -11 113 -11 q 44 1 54 -11 q 35 38 35 13 q 60 144 35 56 q 107 317 100 288 q 151 540 153 494 m 342 849 q 297 776 342 815 q 160 704 247 733 q 140 706 143 696 q 151 717 136 711 q 301 888 276 765 q 304 906 303 894 q 317 907 307 911 q 329 893 322 904 q 342 849 342 869 z "},"":{"ha":417,"x_min":35,"x_max":404,"o":"m 151 540 q 129 572 151 574 q 57 532 106 571 q 44 531 47 522 q 58 546 44 536 q 226 638 186 638 q 246 600 253 638 q 168 315 243 582 q 126 110 128 169 q 135 67 126 81 q 165 54 143 54 q 275 121 217 56 q 290 133 288 136 q 283 115 294 129 q 183 35 249 76 q 79 -11 113 -11 q 44 1 54 -11 q 35 38 35 13 q 60 144 35 56 q 107 317 100 288 q 151 540 153 494 m 403 710 q 365 683 396 694 q 353 688 358 681 q 238 829 304 747 q 221 833 229 839 q 63 696 171 800 q 48 703 60 693 q 43 719 36 713 q 244 882 114 775 q 264 879 256 892 q 397 718 329 788 q 403 710 404 711 z "},"":{"ha":417,"x_min":35,"x_max":353,"o":"m 151 540 q 129 572 151 574 q 57 532 106 571 q 44 531 47 522 q 58 546 44 536 q 226 638 186 638 q 246 600 253 638 q 168 315 243 582 q 126 110 128 169 q 135 67 126 81 q 165 54 143 54 q 275 121 217 56 q 290 133 288 136 q 283 115 294 129 q 183 35 249 76 q 79 -11 113 -11 q 44 1 54 -11 q 35 38 35 13 q 60 144 35 56 q 107 317 100 288 q 151 540 153 494 m 338 796 q 353 771 353 776 q 327 741 353 763 q 294 719 301 719 q 270 742 288 719 q 253 771 253 764 q 281 803 253 779 q 310 821 301 821 q 338 796 317 821 m 171 796 q 185 771 185 778 q 160 740 185 763 q 128 718 135 718 q 102 741 119 718 q 85 771 85 764 q 114 803 85 779 q 143 821 136 821 q 171 796 151 821 z "},"":{"ha":453,"x_min":-6,"x_max":592,"o":"m 481 836 l 582 882 l 592 865 l 479 814 q 381 389 475 646 q 246 132 328 244 q 68 -6 150 -1 q -6 114 -6 -8 q 32 329 -6 211 q 114 499 61 419 q 303 632 200 626 q 354 608 351 635 q 331 588 356 590 q 308 592 324 588 q 272 600 289 599 q 208 579 238 603 q 85 326 132 515 q 65 178 65 247 q 122 61 65 60 q 265 196 185 63 q 358 393 324 293 q 401 574 383 464 q 417 785 421 696 l 257 715 l 249 733 l 417 806 q 386 908 414 865 q 289 963 351 963 q 186 900 218 963 q 176 896 182 893 q 175 908 171 899 q 244 981 194 950 q 346 1013 293 1013 q 481 836 478 1013 z "},"":{"ha":647,"x_min":-3,"x_max":606,"o":"m 147 540 q 125 575 147 575 q 53 536 96 575 q 40 535 43 526 q 53 550 39 539 q 178 626 106 589 q 224 639 206 640 q 243 601 249 636 q 157 256 228 500 q 306 488 224 394 q 458 617 389 581 q 528 638 501 639 q 550 597 554 636 q 521 479 547 571 q 474 314 483 353 q 435 106 435 161 q 476 50 435 50 q 583 115 525 50 q 601 128 597 132 q 593 108 606 124 q 492 28 560 71 q 389 -14 424 -14 q 347 36 344 -14 q 413 317 349 56 q 460 531 435 403 q 443 561 461 558 q 407 551 431 563 q 299 457 360 529 q 218 338 264 415 q 143 176 167 246 q 104 49 128 124 q 75 15 97 28 q 15 -18 53 3 q 3 -22 7 -24 q 4 -8 -3 -21 q 99 276 40 58 q 147 540 147 460 m 447 742 q 389 757 421 744 q 329 778 347 774 q 308 781 318 781 q 273 767 288 781 q 246 739 258 753 q 239 739 240 733 q 240 747 238 743 q 385 824 294 833 q 440 806 407 821 q 503 788 474 792 q 557 797 536 782 q 586 826 572 811 q 593 826 592 832 q 592 818 594 822 q 447 742 536 732 z "},"":{"ha":460,"x_min":-7,"x_max":425,"o":"m 96 -12 q 0 154 -7 -12 q 144 538 8 374 q 221 603 174 574 q 321 639 276 639 q 419 479 425 639 q 272 96 411 253 q 96 -12 176 -12 m 158 42 q 260 115 217 43 q 343 433 335 243 q 323 551 346 504 q 257 597 300 597 q 158 518 204 597 q 74 200 82 385 q 94 85 71 129 q 158 42 117 42 m 404 700 q 382 700 404 690 q 254 786 299 739 q 219 863 214 829 q 235 906 222 876 q 249 918 240 914 q 261 914 258 924 q 261 897 261 914 q 393 713 274 774 q 404 700 404 707 z "},"":{"ha":460,"x_min":-7,"x_max":458,"o":"m 96 -12 q 0 154 -7 -12 q 144 538 8 374 q 221 603 174 574 q 321 639 276 639 q 419 479 425 639 q 272 96 411 253 q 96 -12 176 -12 m 158 42 q 260 115 217 43 q 343 433 335 243 q 323 551 346 504 q 257 597 300 597 q 158 518 204 597 q 74 200 82 385 q 94 85 71 129 q 158 42 117 42 m 458 849 q 414 776 458 815 q 276 704 364 733 q 257 706 260 696 q 268 717 253 711 q 418 888 393 765 q 421 906 419 894 q 433 907 424 911 q 446 893 439 904 q 458 849 458 869 z "},"":{"ha":460,"x_min":-7,"x_max":508,"o":"m 96 -12 q 0 154 -7 -12 q 144 538 8 374 q 221 603 174 574 q 321 639 276 639 q 419 479 425 639 q 272 96 411 253 q 96 -12 176 -12 m 158 42 q 260 115 217 43 q 343 433 335 243 q 323 551 346 504 q 257 597 300 597 q 158 518 204 597 q 74 200 82 385 q 94 85 71 129 q 158 42 117 42 m 507 710 q 469 683 500 694 q 457 688 463 681 q 342 829 408 747 q 325 833 333 839 q 167 696 275 800 q 152 703 164 693 q 147 719 140 713 q 349 882 218 775 q 368 879 360 892 q 501 718 433 788 q 507 710 508 711 z "},"":{"ha":460,"x_min":-7,"x_max":503,"o":"m 96 -12 q 0 154 -7 -12 q 144 538 8 374 q 221 603 174 574 q 321 639 276 639 q 419 479 425 639 q 272 96 411 253 q 96 -12 176 -12 m 158 42 q 260 115 217 43 q 343 433 335 243 q 323 551 346 504 q 257 597 300 597 q 158 518 204 597 q 74 200 82 385 q 94 85 71 129 q 158 42 117 42 m 356 742 q 297 757 329 744 q 238 778 256 774 q 217 781 226 781 q 181 767 196 781 q 154 739 167 753 q 147 739 149 733 q 149 747 146 743 q 293 824 203 833 q 349 806 315 821 q 411 788 382 792 q 465 797 444 782 q 494 826 481 811 q 501 826 500 832 q 500 818 503 822 q 356 742 444 732 z "},"":{"ha":460,"x_min":-7,"x_max":461,"o":"m 96 -12 q 0 154 -7 -12 q 144 538 8 374 q 221 603 174 574 q 321 639 276 639 q 419 479 425 639 q 272 96 411 253 q 96 -12 176 -12 m 158 42 q 260 115 217 43 q 343 433 335 243 q 323 551 346 504 q 257 597 300 597 q 158 518 204 597 q 74 200 82 385 q 94 85 71 129 q 158 42 117 42 m 446 796 q 461 771 461 776 q 435 741 461 763 q 403 719 410 719 q 378 742 396 719 q 361 771 361 764 q 389 803 361 779 q 418 821 410 821 q 446 796 425 821 m 279 796 q 293 771 293 778 q 268 740 293 763 q 236 718 243 718 q 210 741 228 718 q 193 771 193 764 q 222 803 193 779 q 251 821 244 821 q 279 796 260 821 z "},"":{"ha":804,"x_min":29,"x_max":772,"o":"m 772 392 q 650 274 772 358 q 424 114 443 131 q 303 -46 303 17 q 393 -107 303 -107 q 467 -99 421 -107 q 529 -90 513 -90 q 578 -106 558 -90 q 586 -147 603 -126 q 547 -146 569 -165 q 457 -128 519 -122 q 329 -125 367 -136 q 261 -93 281 -111 q 233 -15 233 -67 q 393 204 233 69 q 619 378 506 290 q 635 400 635 390 q 617 408 635 411 q 379 317 521 392 q 346 314 367 310 q 317 330 325 318 q 308 358 308 342 q 325 399 308 381 q 433 479 351 426 q 568 578 525 539 q 579 594 579 589 q 560 601 579 606 q 307 511 468 585 q 103 418 228 472 q 75 413 88 413 q 32 440 42 413 q 29 458 29 450 q 65 519 29 493 q 368 701 217 610 q 665 907 628 856 q 683 950 683 931 q 596 997 683 997 q 342 932 497 997 q 147 828 217 879 q 122 818 133 818 q 107 829 111 818 q 128 872 101 846 q 297 960 165 908 q 579 1022 457 1022 q 738 907 738 1022 q 539 692 738 822 q 286 538 413 615 q 478 621 365 578 q 661 669 615 672 q 725 607 725 665 q 631 492 725 560 q 499 404 565 449 q 710 450 649 450 q 772 392 772 450 z "},"":{"ha":460,"x_min":-6,"x_max":425,"o":"m 364 631 q 419 479 425 603 q 272 96 410 251 q 96 -12 176 -12 q 67 -8 79 -12 l 39 -68 l 22 -61 l 50 -1 q 0 154 -6 32 q 144 538 10 375 q 221 603 174 574 q 321 639 276 639 q 347 636 331 639 q 375 694 361 664 l 390 685 q 364 631 378 658 m 92 88 q 314 565 204 326 q 257 597 292 597 q 158 518 204 597 q 74 200 81 383 q 92 88 71 129 m 325 546 l 103 69 q 158 42 126 40 q 260 115 218 43 q 343 433 336 244 q 325 546 346 503 z "},"":{"ha":653,"x_min":43,"x_max":606,"o":"m 482 53 q 588 119 521 53 q 600 128 597 129 q 593 110 606 126 q 490 28 551 67 q 397 -11 429 -11 q 351 42 349 -11 q 375 192 353 83 q 415 357 396 293 q 289 182 369 275 q 64 -11 125 -7 q 47 -1 51 -12 q 46 36 43 10 q 75 165 51 78 q 119 324 97 244 q 161 519 156 461 q 136 576 167 576 q 71 547 126 576 q 50 539 51 538 q 49 543 49 540 q 64 556 49 546 q 244 638 189 638 q 260 589 271 638 q 183 321 236 511 q 147 122 147 175 q 163 94 147 94 q 297 213 197 94 q 443 461 378 307 q 472 539 458 500 q 519 606 493 588 q 567 636 540 619 q 582 636 578 643 q 575 619 583 632 q 481 357 526 553 q 444 151 453 238 q 442 111 442 128 q 482 53 442 53 m 475 700 q 453 700 475 690 q 325 786 369 739 q 290 863 285 829 q 306 906 293 876 q 319 918 311 914 q 332 914 329 924 q 332 897 332 914 q 464 713 344 774 q 475 700 475 707 z "},"":{"ha":653,"x_min":43,"x_max":606,"o":"m 482 53 q 588 119 521 53 q 600 128 597 129 q 593 110 606 126 q 490 28 551 67 q 397 -11 429 -11 q 351 42 349 -11 q 375 192 353 83 q 415 357 396 293 q 289 182 369 275 q 64 -11 125 -7 q 47 -1 51 -12 q 46 36 43 10 q 75 165 51 78 q 119 324 97 244 q 161 519 156 461 q 136 576 167 576 q 71 547 126 576 q 50 539 51 538 q 49 543 49 540 q 64 556 49 546 q 244 638 189 638 q 260 589 271 638 q 183 321 236 511 q 147 122 147 175 q 163 94 147 94 q 297 213 197 94 q 443 461 378 307 q 472 539 458 500 q 519 606 493 588 q 567 636 540 619 q 582 636 578 643 q 575 619 583 632 q 481 357 526 553 q 444 151 453 238 q 442 111 442 128 q 482 53 442 53 m 546 849 q 501 776 546 815 q 364 704 451 733 q 344 706 347 696 q 356 717 340 711 q 506 888 481 765 q 508 906 507 894 q 521 907 511 911 q 533 893 526 904 q 546 849 546 869 z "},"":{"ha":653,"x_min":43,"x_max":606,"o":"m 482 53 q 588 119 521 53 q 600 128 597 129 q 593 110 606 126 q 490 28 551 67 q 397 -11 429 -11 q 351 42 349 -11 q 375 192 353 83 q 415 357 396 293 q 289 182 369 275 q 64 -11 125 -7 q 47 -1 51 -12 q 46 36 43 10 q 75 165 51 78 q 119 324 97 244 q 161 519 156 461 q 136 576 167 576 q 71 547 126 576 q 50 539 51 538 q 49 543 49 540 q 64 556 49 546 q 244 638 189 638 q 260 589 271 638 q 183 321 236 511 q 147 122 147 175 q 163 94 147 94 q 297 213 197 94 q 443 461 378 307 q 472 539 458 500 q 519 606 493 588 q 567 636 540 619 q 582 636 578 643 q 575 619 583 632 q 481 357 526 553 q 444 151 453 238 q 442 111 442 128 q 482 53 442 53 m 586 710 q 549 683 579 694 q 536 688 542 681 q 421 829 488 747 q 404 833 413 839 q 246 696 354 800 q 231 703 243 693 q 226 719 219 713 q 428 882 297 775 q 447 879 439 892 q 581 718 513 788 q 586 710 588 711 z "},"":{"ha":653,"x_min":43,"x_max":606,"o":"m 482 53 q 588 119 521 53 q 600 128 597 129 q 593 110 606 126 q 490 28 551 67 q 397 -11 429 -11 q 351 42 349 -11 q 375 192 353 83 q 415 357 396 293 q 289 182 369 275 q 64 -11 125 -7 q 47 -1 51 -12 q 46 36 43 10 q 75 165 51 78 q 119 324 97 244 q 161 519 156 461 q 136 576 167 576 q 71 547 126 576 q 50 539 51 538 q 49 543 49 540 q 64 556 49 546 q 244 638 189 638 q 260 589 271 638 q 183 321 236 511 q 147 122 147 175 q 163 94 147 94 q 297 213 197 94 q 443 461 378 307 q 472 539 458 500 q 519 606 493 588 q 567 636 540 619 q 582 636 578 643 q 575 619 583 632 q 481 357 526 553 q 444 151 453 238 q 442 111 442 128 q 482 53 442 53 m 525 796 q 540 771 540 776 q 515 741 540 763 q 482 719 489 719 q 458 742 475 719 q 440 771 440 764 q 468 803 440 779 q 497 821 489 821 q 525 796 504 821 m 358 796 q 372 771 372 778 q 347 740 372 763 q 315 718 322 718 q 290 741 307 718 q 272 771 272 764 q 301 803 272 779 q 331 821 324 821 q 358 796 339 821 z "},"":{"ha":606,"x_min":-156,"x_max":633,"o":"m 274 96 q 261 63 272 72 q 215 13 246 46 q 206 7 208 6 q 204 25 203 10 q 204 325 219 151 q 107 560 183 560 q 32 511 75 560 q 21 506 25 503 q 25 521 14 510 q 121 613 75 571 q 171 636 147 636 q 261 426 238 636 q 274 96 279 260 m 633 601 q 614 567 633 582 q 574 536 594 551 q 400 303 468 436 q 319 129 363 231 q 250 -28 263 0 q 106 -243 192 -153 q -54 -337 15 -337 q -156 -224 -156 -337 q -139 -124 -156 -169 q -128 -110 -135 -108 q -129 -124 -125 -110 q -135 -164 -135 -144 q -106 -233 -135 -204 q -35 -262 -76 -262 q 228 -25 97 -262 q 301 126 257 28 q 383 308 367 272 q 540 586 479 511 q 608 629 575 629 q 633 601 633 629 m 525 849 q 481 776 525 815 q 343 704 431 733 q 324 706 326 696 q 335 717 319 711 q 485 888 460 765 q 488 906 486 894 q 500 907 490 911 q 513 893 506 904 q 525 849 525 869 z "},"":{"ha":549,"x_min":-104,"x_max":526,"o":"m 157 301 q 275 479 196 383 q 475 638 406 638 q 522 560 526 638 q 450 279 515 424 q 314 90 408 186 q 143 -6 219 -6 q 86 43 94 -6 q -1 -262 31 -161 q -28 -293 -8 -286 q -87 -329 -61 -304 q -92 -337 -89 -331 q -100 -342 -96 -343 q -97 -324 -104 -340 q 67 181 -22 -122 q 160 486 114 333 q 285 932 239 750 q 201 928 263 933 q 196 933 197 928 q 199 943 196 938 q 206 949 201 949 q 458 949 296 943 q 464 943 463 949 q 460 934 464 939 q 450 929 456 929 q 364 931 367 938 l 157 301 m 438 481 q 400 561 439 561 q 265 447 350 561 q 126 174 174 324 q 93 65 110 122 q 163 40 114 40 q 315 108 250 40 q 398 271 361 157 q 438 481 435 385 z "},"":{"ha":606,"x_min":-156,"x_max":633,"o":"m 274 96 q 261 63 272 72 q 215 13 246 46 q 206 7 208 6 q 204 25 203 10 q 204 325 219 151 q 107 560 183 560 q 32 511 75 560 q 21 506 25 503 q 25 521 14 510 q 121 613 75 571 q 171 636 147 636 q 261 426 238 636 q 274 96 279 260 m 633 601 q 614 567 633 582 q 574 536 594 551 q 400 303 468 436 q 319 129 363 231 q 250 -28 263 0 q 106 -243 192 -153 q -54 -337 15 -337 q -156 -224 -156 -337 q -139 -124 -156 -169 q -128 -110 -135 -108 q -129 -124 -125 -110 q -135 -164 -135 -144 q -106 -233 -135 -204 q -35 -262 -76 -262 q 228 -25 97 -262 q 301 126 257 28 q 383 308 367 272 q 540 586 479 511 q 608 629 575 629 q 633 601 633 629 m 525 796 q 540 771 540 776 q 515 741 540 763 q 482 719 489 719 q 458 742 475 719 q 440 771 440 764 q 468 803 440 779 q 497 821 489 821 q 525 796 504 821 m 358 796 q 372 771 372 778 q 347 740 372 763 q 315 718 322 718 q 290 741 307 718 q 272 771 272 764 q 301 803 272 779 q 331 821 324 821 q 358 796 339 821 z "},"":{"ha":417,"x_min":35,"x_max":294,"o":"m 151 540 q 129 572 151 574 q 57 532 106 571 q 44 531 47 522 q 58 546 44 536 q 226 638 186 638 q 246 600 253 638 q 168 315 243 582 q 126 110 128 169 q 135 67 126 81 q 165 54 143 54 q 275 121 217 56 q 290 133 288 136 q 283 115 294 129 q 183 35 249 76 q 79 -11 113 -11 q 44 1 54 -11 q 35 38 35 13 q 60 144 35 56 q 107 317 100 288 q 151 540 153 494 z "},"":{"ha":707,"x_min":-190,"x_max":724,"o":"m 425 579 l 421 560 l 294 513 q 238 311 256 361 q 149 144 200 203 q 14 32 97 86 q 467 43 176 49 q 643 100 607 40 q 662 149 656 121 q 675 175 668 176 q 676 151 682 174 q 614 22 660 76 q 510 -25 574 -25 q 321 -6 481 -25 q 63 13 161 13 q -153 -24 -62 13 q -185 -18 -179 -35 q -157 8 -190 -1 q -79 19 -132 11 q 35 64 -3 31 q 135 240 85 108 q 210 481 174 343 l 89 435 l 93 454 l 214 500 q 283 717 258 667 q 439 896 332 819 q 676 1006 592 1006 q 721 981 719 1006 q 683 950 724 950 q 651 956 674 950 q 613 961 628 961 q 444 868 518 961 q 297 532 356 756 l 425 579 z "},"":{"ha":336,"x_min":1,"x_max":611,"o":"m 75 292 q 125 490 94 375 l 1 443 l 1 461 l 131 510 q 165 624 142 547 q 326 892 221 799 q 546 1015 465 1015 q 611 985 611 1015 q 581 963 611 963 q 545 968 569 963 q 496 974 521 974 q 383 924 438 974 q 257 696 317 863 q 206 538 228 613 l 338 586 l 338 569 l 200 519 q 156 350 182 457 q 117 117 117 193 q 160 56 117 56 q 265 128 206 56 q 279 139 276 140 q 275 122 285 136 q 174 33 242 78 q 75 -12 107 -12 q 31 46 31 -12 q 75 292 31 101 z "},"":{"ha":1331,"x_min":67,"x_max":1293,"o":"m 756 435 q 992 557 839 518 q 888 618 932 572 q 836 736 836 669 q 946 914 836 833 q 1167 992 1051 992 q 1271 978 1235 992 q 1288 940 1293 969 q 1256 806 1271 854 q 1239 789 1249 785 q 1242 814 1233 790 q 1260 906 1260 868 q 1215 954 1260 936 q 1133 968 1181 968 q 981 910 1044 968 q 910 760 913 850 q 960 624 907 675 q 1097 564 1013 574 q 1125 566 1111 563 q 1142 569 1139 569 q 1131 549 1149 569 q 1096 531 1114 529 q 1024 539 1074 535 q 817 451 906 542 q 729 254 729 361 q 786 92 729 150 q 968 29 849 29 q 1250 161 1143 29 q 1274 181 1265 181 q 1278 179 1276 181 q 1268 153 1288 171 q 1118 36 1186 74 q 906 -18 1019 -18 q 710 44 782 -18 q 639 197 639 107 l 639 217 q 561 122 604 165 q 426 24 501 63 q 285 -14 350 -14 q 118 68 175 -14 q 67 264 67 142 q 163 626 67 446 q 357 875 243 781 q 597 978 482 978 q 763 890 706 978 q 813 694 813 814 q 756 435 813 579 m 360 858 q 211 621 268 774 q 156 326 156 474 q 361 38 156 38 q 554 140 456 38 q 678 374 626 217 q 724 635 724 518 q 685 839 724 771 q 513 926 635 926 q 360 858 433 926 z "},"":{"ha":672,"x_min":-7,"x_max":685,"o":"m 410 482 q 523 588 454 540 q 638 638 592 636 q 671 622 657 638 q 683 571 685 603 q 585 404 678 474 q 453 336 511 350 q 436 339 436 332 q 447 351 436 350 q 529 383 493 358 q 615 553 614 442 q 586 603 617 603 q 526 575 563 603 q 439 453 474 535 q 375 210 383 322 q 397 76 369 122 q 486 31 425 31 q 604 92 543 31 q 619 99 617 101 q 611 82 624 96 q 533 24 581 50 q 417 -14 471 -12 q 331 33 360 -15 q 308 142 304 75 q 217 40 269 83 q 96 -12 150 -12 q 0 154 -7 -12 q 144 538 8 374 q 221 603 174 574 q 321 639 276 639 q 410 482 421 639 m 158 42 q 260 115 217 43 q 343 433 335 243 q 323 551 346 504 q 257 597 300 597 q 158 518 204 597 q 74 200 82 385 q 94 85 71 129 q 158 42 117 42 z "},"":{"ha":767,"x_min":-78,"x_max":890,"o":"m 669 949 q 476 883 557 949 q 368 701 374 800 q 403 583 365 642 q 482 489 413 571 q 572 381 561 397 q 618 240 618 313 q 506 10 618 121 q 167 -124 369 -124 q -4 -87 61 -124 q -78 38 -78 -44 q -8 265 -78 136 q 7 278 0 281 q 6 263 13 275 q -51 101 -51 160 q 33 -28 -51 17 q 214 -65 106 -65 q 488 14 401 -65 q 557 179 557 78 q 429 414 557 281 q 343 511 361 485 q 303 636 303 571 q 356 785 303 704 q 453 890 399 847 q 735 992 582 992 q 782 979 768 992 q 794 932 796 967 q 776 831 794 907 q 758 758 765 779 q 750 743 751 743 q 744 756 742 744 q 765 826 751 776 q 774 882 774 861 q 669 949 774 949 m 883 1182 q 682 1019 813 1126 q 663 1022 671 1010 q 529 1183 597 1114 q 524 1192 522 1190 q 561 1218 531 1207 q 574 1214 568 1221 q 689 1072 622 1154 q 706 1068 697 1063 q 864 1206 756 1101 q 878 1199 867 1208 q 883 1182 890 1189 z "},"":{"ha":378,"x_min":-35,"x_max":486,"o":"m 336 586 q 303 597 326 588 q 268 606 281 606 q 190 579 219 606 q 149 474 149 542 q 217 340 149 428 q 289 186 289 247 q 192 39 289 108 q 31 -14 118 -14 q -35 35 -35 -14 q -11 125 -35 82 q 4 140 -1 143 q 3 122 8 138 q 0 83 -3 106 q 101 31 7 31 q 192 63 157 31 q 222 135 222 92 q 160 276 222 190 q 107 354 117 336 q 82 438 82 397 q 179 592 82 521 q 326 642 247 642 q 369 607 379 642 q 336 586 363 583 m 479 835 q 278 672 408 779 q 258 675 267 663 q 125 836 193 767 q 119 844 118 843 q 157 871 126 860 q 169 867 164 874 q 285 725 218 807 q 301 721 293 715 q 460 858 351 754 q 474 851 463 861 q 479 835 486 842 z "},"":{"ha":740,"x_min":15,"x_max":963,"o":"m 469 433 q 619 653 518 518 q 781 851 714 779 q 824 896 810 883 q 878 927 849 917 q 947 940 908 938 q 963 936 963 942 q 951 928 963 931 q 847 858 913 917 q 526 486 663 693 q 454 326 489 429 q 396 56 396 153 q 426 1 396 1 q 513 24 461 1 q 597 81 557 43 q 611 88 606 89 q 604 68 622 83 q 511 8 564 35 q 353 -39 418 -39 q 300 3 300 -39 q 386 308 300 54 q 396 469 410 378 q 328 707 376 593 q 142 921 236 921 q 75 886 110 921 q 35 836 61 872 q 21 833 28 829 q 28 854 15 838 q 92 917 50 883 q 226 988 181 988 q 328 906 281 988 q 394 747 354 858 q 469 433 449 596 m 717 1143 q 732 1118 732 1124 q 706 1088 732 1110 q 674 1067 681 1067 q 649 1089 667 1067 q 632 1118 632 1111 q 660 1150 632 1126 q 689 1168 681 1168 q 717 1143 696 1168 m 550 1143 q 564 1118 564 1125 q 539 1088 564 1110 q 507 1065 514 1065 q 481 1088 499 1065 q 464 1118 464 1111 q 493 1150 464 1126 q 522 1168 515 1168 q 550 1143 531 1168 z "},"":{"ha":904,"x_min":-7,"x_max":878,"o":"m 789 918 q 653 900 733 900 q 504 907 596 900 q 374 914 413 914 q 263 897 294 914 q 214 836 231 881 q 193 765 206 808 q 181 750 188 749 q 179 774 174 751 q 215 875 189 817 q 382 986 264 986 q 567 960 444 986 q 750 933 689 933 q 844 958 813 933 q 863 971 861 971 q 863 946 878 967 q 444 422 674 683 q 164 118 324 293 q 153 99 153 106 q 163 93 154 92 q 210 93 178 94 q 390 78 217 93 q 601 69 511 68 q 724 85 682 71 q 814 157 783 106 q 838 224 826 178 q 849 239 842 242 q 853 222 857 236 q 828 153 846 201 q 742 16 786 54 q 619 -22 697 -22 q 358 11 521 -22 q 124 46 196 44 q 76 46 85 46 q 21 25 49 44 q 1 19 6 15 q 21 54 -7 29 q 196 211 108 132 q 453 468 346 349 q 789 918 614 646 m 767 1182 q 565 1019 696 1126 q 546 1022 554 1010 q 413 1183 481 1114 q 407 1192 406 1190 q 444 1218 414 1207 q 457 1214 451 1221 q 572 1072 506 1154 q 589 1068 581 1063 q 747 1206 639 1101 q 762 1199 750 1208 q 767 1182 774 1189 z "},"":{"ha":525,"x_min":-43,"x_max":511,"o":"m 403 146 q 413 161 406 161 q 415 146 418 161 q 386 56 408 110 q 315 -11 358 -11 q 218 3 286 -11 q 85 17 150 17 q -26 -4 6 17 q -40 -10 -39 -12 q -36 3 -43 -4 q 224 328 22 81 q 400 572 315 436 q 325 560 371 561 q 172 561 283 561 q 97 536 119 560 q 74 482 85 522 q 64 469 69 468 q 64 488 58 471 q 85 551 74 519 q 126 622 104 603 q 192 632 143 636 q 293 619 206 631 q 403 611 358 611 q 443 625 414 611 q 481 631 467 638 q 479 619 486 626 q 424 543 465 599 q 235 317 385 494 q 124 165 182 254 q 63 54 67 75 q 188 72 99 72 q 269 70 235 72 q 324 68 304 68 q 403 146 386 68 m 504 835 q 303 672 433 779 q 283 675 292 663 q 150 836 218 767 q 144 844 143 843 q 182 871 151 860 q 194 867 189 874 q 310 725 243 807 q 326 721 318 715 q 485 858 376 754 q 499 851 488 861 q 504 835 511 842 z "},"":{"ha":454,"x_min":-301,"x_max":576,"o":"m 517 885 q 574 854 576 885 q 539 832 571 831 q 501 839 525 833 q 458 844 476 844 q 368 815 408 844 q 306 746 328 786 q 263 638 288 715 q 217 476 235 553 q 301 481 276 476 q 328 490 310 482 q 347 499 347 499 q 339 478 358 499 q 276 447 314 450 q 210 447 276 447 q 131 135 171 279 q -24 -187 86 -24 q -118 -290 -65 -250 q -225 -336 -176 -336 q -301 -296 -301 -336 q -274 -272 -301 -272 q -237 -280 -264 -272 q -196 -287 -211 -287 q -40 -185 -107 -287 q 89 236 24 -87 l 132 447 q 51 444 58 447 q 40 440 40 440 q 46 456 38 442 q 83 472 54 469 q 111 474 93 474 q 139 474 131 474 q 178 611 151 524 q 235 717 204 678 q 333 807 269 761 q 517 885 442 885 z "},"":{"ha":417,"x_min":161,"x_max":529,"o":"m 528 710 q 490 683 521 694 q 478 688 483 681 q 363 829 429 747 q 346 833 354 839 q 188 696 296 800 q 173 703 185 693 q 168 719 161 713 q 369 882 239 775 q 389 879 381 892 q 522 718 454 788 q 528 710 529 711 z "},"":{"ha":417,"x_min":185,"x_max":553,"o":"m 546 835 q 344 672 475 779 q 325 675 333 663 q 192 836 260 767 q 186 844 185 843 q 224 871 193 860 q 236 867 231 874 q 351 725 285 807 q 368 721 360 715 q 526 858 418 754 q 541 851 529 861 q 546 835 553 842 z "},"":{"ha":417,"x_min":172,"x_max":513,"o":"m 513 807 l 500 764 l 172 764 l 188 807 l 513 807 z "},"":{"ha":417,"x_min":232,"x_max":525,"o":"m 521 828 q 511 813 525 824 q 339 736 422 736 q 269 756 297 736 q 235 804 240 776 q 235 824 232 818 q 244 829 239 832 q 258 818 250 825 q 365 789 297 789 q 507 824 436 789 q 521 828 519 829 z "},"":{"ha":417,"x_min":307,"x_max":407,"o":"m 392 796 q 407 771 407 776 q 381 741 407 763 q 349 719 356 719 q 324 742 342 719 q 307 771 307 764 q 335 803 307 779 q 364 821 356 821 q 392 796 371 821 z "},"":{"ha":417,"x_min":267,"x_max":444,"o":"m 444 794 q 410 736 444 761 q 340 711 376 711 q 289 729 311 711 q 267 776 267 747 q 301 836 267 810 q 368 858 332 858 q 422 841 399 858 q 444 794 444 824 m 407 785 q 391 820 407 806 q 354 835 375 835 q 319 820 333 835 q 304 785 304 806 q 319 749 304 764 q 354 735 333 735 q 391 749 375 735 q 407 785 407 764 z "},"":{"ha":417,"x_min":-6,"x_max":150,"o":"m 150 3 q 138 -6 150 1 q 74 -78 97 -31 q 50 -172 50 -125 q 90 -260 50 -239 q 106 -267 106 -268 q 92 -271 106 -271 q 22 -235 49 -271 q -6 -154 -6 -199 q 26 -74 -6 -115 q 132 3 64 -24 q 150 3 149 10 z "},"":{"ha":417,"x_min":179,"x_max":536,"o":"m 389 742 q 331 757 363 744 q 271 778 289 774 q 250 781 260 781 q 215 767 229 781 q 188 739 200 753 q 181 739 182 733 q 182 747 179 743 q 326 824 236 833 q 382 806 349 821 q 444 788 415 792 q 499 797 478 782 q 528 826 514 811 q 535 826 533 832 q 533 818 536 822 q 389 742 478 732 z "},"":{"ha":417,"x_min":281,"x_max":546,"o":"m 546 849 q 514 775 546 813 q 408 706 476 731 q 390 706 392 700 q 401 715 389 708 q 510 888 493 765 q 513 904 511 894 q 522 906 515 910 q 535 892 528 903 q 546 849 546 874 m 438 849 q 406 775 438 813 q 300 706 368 731 q 282 706 283 700 q 293 715 281 708 q 401 888 385 765 q 404 904 403 894 q 414 906 407 910 q 426 892 419 903 q 438 849 438 874 z "},"":{"ha":804,"x_min":29,"x_max":772,"o":"m 772 392 q 650 274 772 358 q 424 114 443 131 q 303 -46 303 17 q 393 -107 303 -107 q 467 -99 421 -107 q 529 -90 513 -90 q 578 -106 558 -90 q 586 -147 603 -126 q 547 -146 569 -165 q 457 -128 519 -122 q 329 -125 367 -136 q 261 -93 281 -111 q 233 -15 233 -67 q 393 204 233 69 q 619 378 506 290 q 635 400 635 390 q 617 408 635 411 q 379 317 521 392 q 346 314 367 310 q 317 330 325 318 q 308 358 308 342 q 325 399 308 381 q 433 479 351 426 q 568 578 525 539 q 579 594 579 589 q 560 601 579 606 q 307 511 468 585 q 103 418 228 472 q 75 413 88 413 q 32 440 42 413 q 29 458 29 450 q 65 519 29 493 q 368 701 217 610 q 665 907 628 856 q 683 950 683 931 q 596 997 683 997 q 342 932 497 997 q 147 828 217 879 q 122 818 133 818 q 107 829 111 818 q 128 872 101 846 q 297 960 165 908 q 579 1022 457 1022 q 738 907 738 1022 q 539 692 738 822 q 286 538 413 615 q 478 621 365 578 q 661 669 615 672 q 725 607 725 665 q 631 492 725 560 q 499 404 565 449 q 710 450 649 450 q 772 392 772 450 z "},"":{"ha":804,"x_min":29,"x_max":772,"o":"m 772 392 q 650 274 772 358 q 424 114 443 131 q 303 -46 303 17 q 393 -107 303 -107 q 467 -99 421 -107 q 529 -90 513 -90 q 578 -106 558 -90 q 586 -147 603 -126 q 547 -146 569 -165 q 457 -128 519 -122 q 329 -125 367 -136 q 261 -93 281 -111 q 233 -15 233 -67 q 393 204 233 69 q 619 378 506 290 q 635 400 635 390 q 617 408 635 411 q 379 317 521 392 q 346 314 367 310 q 317 330 325 318 q 308 358 308 342 q 325 399 308 381 q 433 479 351 426 q 568 578 525 539 q 579 594 579 589 q 560 601 579 606 q 307 511 468 585 q 103 418 228 472 q 75 413 88 413 q 32 440 42 413 q 29 458 29 450 q 65 519 29 493 q 368 701 217 610 q 665 907 628 856 q 683 950 683 931 q 596 997 683 997 q 342 932 497 997 q 147 828 217 879 q 122 818 133 818 q 107 829 111 818 q 128 872 101 846 q 297 960 165 908 q 579 1022 457 1022 q 738 907 738 1022 q 539 692 738 822 q 286 538 413 615 q 478 621 365 578 q 661 669 615 672 q 725 607 725 665 q 631 492 725 560 q 499 404 565 449 q 710 450 649 450 q 772 392 772 450 z "},"":{"ha":804,"x_min":29,"x_max":772,"o":"m 772 392 q 650 274 772 358 q 424 114 443 131 q 303 -46 303 17 q 393 -107 303 -107 q 467 -99 421 -107 q 529 -90 513 -90 q 578 -106 558 -90 q 586 -147 603 -126 q 547 -146 569 -165 q 457 -128 519 -122 q 329 -125 367 -136 q 261 -93 281 -111 q 233 -15 233 -67 q 393 204 233 69 q 619 378 506 290 q 635 400 635 390 q 617 408 635 411 q 379 317 521 392 q 346 314 367 310 q 317 330 325 318 q 308 358 308 342 q 325 399 308 381 q 433 479 351 426 q 568 578 525 539 q 579 594 579 589 q 560 601 579 606 q 307 511 468 585 q 103 418 228 472 q 75 413 88 413 q 32 440 42 413 q 29 458 29 450 q 65 519 29 493 q 368 701 217 610 q 665 907 628 856 q 683 950 683 931 q 596 997 683 997 q 342 932 497 997 q 147 828 217 879 q 122 818 133 818 q 107 829 111 818 q 128 872 101 846 q 297 960 165 908 q 579 1022 457 1022 q 738 907 738 1022 q 539 692 738 822 q 286 538 413 615 q 478 621 365 578 q 661 669 615 672 q 725 607 725 665 q 631 492 725 560 q 499 404 565 449 q 710 450 649 450 q 772 392 772 450 z "},"":{"ha":500,"x_min":97,"x_max":561,"o":"m 561 700 q 493 536 561 604 q 329 468 425 468 q 165 536 233 468 q 97 700 97 604 q 165 864 97 796 q 329 932 233 932 q 493 864 425 932 q 561 700 561 796 m 535 700 q 475 847 535 786 q 329 908 415 908 q 183 847 243 908 q 124 700 124 786 q 183 553 124 614 q 329 492 243 492 q 475 553 415 492 q 535 700 535 614 m 440 778 q 383 701 436 726 q 333 689 361 690 q 321 693 321 688 q 338 701 321 694 q 392 763 386 722 q 382 795 394 778 q 349 813 369 813 q 331 803 335 813 q 308 708 324 783 q 290 603 290 615 q 285 585 290 590 q 250 569 271 579 q 239 574 243 568 q 240 593 236 581 q 281 779 258 671 q 275 806 282 801 q 260 803 271 808 q 256 806 257 803 q 257 813 254 810 q 315 826 307 826 q 347 825 310 825 q 367 826 358 825 q 378 826 375 826 q 440 778 444 826 z "},"":{"ha":561,"x_min":46,"x_max":503,"o":"m 74 328 q 63 317 71 326 q 51 308 56 308 q 47 318 46 308 q 57 343 50 328 q 94 390 74 378 q 147 399 111 399 q 222 397 161 399 q 299 396 282 396 q 463 404 435 396 q 481 415 472 407 q 492 424 489 424 q 488 396 503 424 q 457 351 469 363 q 404 336 439 336 q 306 338 374 336 q 206 339 238 339 q 74 328 96 339 z "},"":{"ha":675,"x_min":42,"x_max":617,"o":"m 74 328 q 63 317 71 326 q 50 308 54 307 q 58 344 42 310 q 94 390 74 378 q 147 399 111 399 q 278 397 161 399 q 413 396 396 396 q 576 404 549 396 q 594 415 586 407 q 606 424 603 424 q 601 396 617 424 q 571 351 583 363 q 518 336 553 336 q 363 338 488 336 q 206 339 238 339 q 74 328 96 339 z "},"":{"ha":150,"x_min":99,"x_max":238,"o":"m 236 939 q 225 918 238 936 q 183 828 201 886 q 171 751 171 788 q 136 710 171 715 q 99 740 99 703 q 144 846 99 781 q 222 933 181 897 q 236 939 232 943 z "},"":{"ha":161,"x_min":106,"x_max":244,"o":"m 107 700 q 118 721 106 703 q 160 811 142 753 q 172 888 172 851 q 207 929 172 924 q 244 899 244 936 q 199 793 244 858 q 121 706 163 742 q 107 700 111 696 z "},"":{"ha":178,"x_min":-60,"x_max":79,"o":"m -58 -164 q -47 -143 -60 -161 q -6 -53 -24 -111 q 7 24 7 -12 q 42 65 7 60 q 79 35 79 72 q 33 -71 79 -6 q -44 -158 -3 -122 q -58 -164 -54 -168 z "},"":{"ha":293,"x_min":94,"x_max":383,"o":"m 382 939 q 371 918 383 936 q 329 828 347 886 q 317 751 317 788 q 282 710 317 715 q 244 740 244 703 q 290 846 244 781 q 368 933 326 897 q 382 939 378 943 m 232 939 q 221 918 233 936 q 179 828 197 886 q 167 751 167 788 q 132 710 167 715 q 94 740 94 703 q 140 846 94 781 q 218 933 176 897 q 232 939 228 943 z "},"":{"ha":310,"x_min":93,"x_max":388,"o":"m 250 700 q 261 721 249 703 q 303 811 285 753 q 315 888 315 851 q 350 929 315 924 q 388 899 388 936 q 342 793 388 858 q 264 706 306 742 q 250 700 254 696 m 94 700 q 106 721 93 703 q 147 811 129 753 q 160 888 160 851 q 194 929 160 924 q 232 899 232 936 q 186 793 232 858 q 108 706 150 742 q 94 700 99 696 z "},"":{"ha":329,"x_min":-60,"x_max":231,"o":"m 93 -164 q 104 -143 92 -161 q 146 -53 128 -111 q 158 24 158 -12 q 193 65 158 60 q 231 35 231 72 q 185 -71 231 -6 q 107 -158 149 -122 q 93 -164 97 -168 m -58 -164 q -47 -143 -60 -161 q -6 -53 -24 -111 q 7 24 7 -12 q 42 65 7 60 q 79 35 79 72 q 33 -71 79 -6 q -44 -158 -3 -122 q -58 -164 -54 -168 z "},"":{"ha":458,"x_min":53,"x_max":490,"o":"m 126 10 q 93 -7 119 -11 q 239 563 190 353 q 53 554 115 565 q 64 585 54 568 q 76 594 67 594 q 150 593 81 594 q 246 592 219 592 l 288 746 q 307 771 293 764 q 361 789 339 786 q 375 788 372 792 q 367 768 375 786 q 307 592 351 735 q 490 597 374 590 q 483 572 490 585 q 461 560 475 560 q 381 561 442 560 q 299 563 329 564 q 126 10 253 410 z "},"":{"ha":458,"x_min":44,"x_max":490,"o":"m 246 592 l 288 746 q 307 771 293 764 q 361 789 339 786 q 375 788 372 792 q 367 768 375 786 q 307 592 351 735 q 490 597 374 590 q 483 572 490 585 q 461 560 475 560 q 381 561 442 560 q 299 563 329 564 q 246 393 279 501 q 403 399 350 390 q 394 374 400 379 q 379 364 389 364 q 306 365 350 364 q 238 367 261 367 l 126 10 q 93 -7 119 -11 q 189 367 132 136 q 46 358 104 367 q 54 385 44 367 q 69 396 60 394 q 194 393 54 393 q 239 563 224 497 q 53 554 115 565 q 64 585 54 568 q 76 594 67 594 q 150 593 81 594 q 246 592 219 592 z "},"":{"ha":179,"x_min":42,"x_max":139,"o":"m 90 407 q 139 358 139 407 q 90 311 139 311 q 42 358 42 311 q 90 407 42 407 z "},"":{"ha":738,"x_min":13,"x_max":644,"o":"m 628 58 q 644 31 644 38 q 614 -6 644 21 q 581 -28 589 -28 q 553 -3 572 -28 q 533 32 533 22 q 564 67 533 42 q 597 86 589 86 q 628 58 607 86 m 368 58 q 385 31 385 38 q 354 -6 385 21 q 321 -28 329 -28 q 293 -3 313 -28 q 274 32 274 22 q 304 67 274 42 q 338 86 329 86 q 368 58 347 86 m 107 58 q 124 31 124 38 q 93 -6 124 21 q 60 -28 68 -28 q 32 -3 51 -28 q 13 32 13 22 q 43 67 13 42 q 76 86 68 86 q 107 58 86 86 z "},"":{"ha":867,"x_min":-49,"x_max":739,"o":"m 343 797 q 264 594 339 679 q 171 536 213 536 q 117 626 114 536 q 193 829 121 747 q 289 885 232 885 q 343 797 346 885 m 635 897 q 585 833 628 892 q 336 485 475 686 q 63 51 228 326 q 26 15 47 25 q -49 -4 4 4 q 1 63 -40 6 q 297 493 74 163 q 519 836 415 668 q 564 883 542 872 q 635 897 578 889 m 736 256 q 657 53 732 138 q 564 -6 606 -6 q 510 85 507 -6 q 586 288 514 207 q 682 343 625 343 q 736 256 739 343 m 465 256 q 386 53 461 138 q 293 -6 335 -6 q 239 85 236 -6 q 315 288 243 207 q 411 343 354 343 q 465 256 468 343 m 297 774 q 256 857 300 857 q 206 815 229 857 q 163 651 168 750 q 171 592 160 614 q 203 571 182 571 q 254 607 233 572 q 297 774 293 675 m 690 232 q 649 315 693 315 q 599 275 621 315 q 556 110 560 206 q 565 51 554 74 q 596 29 575 29 q 647 67 626 31 q 690 232 686 133 m 419 232 q 378 315 422 315 q 328 275 350 315 q 285 110 289 206 q 294 51 283 74 q 325 29 304 29 q 376 67 356 31 q 419 232 415 133 z "},"":{"ha":281,"x_min":11,"x_max":239,"o":"m 189 136 q 174 119 185 131 q 153 108 163 104 q 146 113 153 108 q 18 313 86 226 q 21 332 11 322 q 219 499 51 351 q 233 490 224 503 q 238 472 239 475 q 76 339 110 372 q 72 322 65 332 q 188 149 94 290 q 189 136 192 143 z "},"":{"ha":281,"x_min":26,"x_max":238,"o":"m 229 288 q 49 100 199 263 q 35 107 44 97 q 28 125 26 122 q 175 274 125 217 q 176 292 183 283 q 40 454 143 328 q 40 467 36 460 q 51 485 43 474 q 71 499 65 499 q 75 499 74 501 q 79 494 78 494 q 229 307 147 392 q 229 288 238 299 z "},"":{"ha":531,"x_min":-67,"x_max":546,"o":"m 39 57 q 3 22 24 32 q -67 4 -18 11 q -19 67 -57 14 q 211 413 61 186 q 436 746 307 554 q 481 792 460 783 q 546 804 489 796 q 251 393 446 675 q 39 57 160 260 z "},"":{"ha":482,"x_min":104,"x_max":531,"o":"m 514 639 q 482 628 506 635 q 464 642 464 624 q 479 781 464 653 q 478 785 479 783 q 474 781 478 781 q 388 643 443 729 q 369 628 382 636 q 350 668 365 628 q 336 713 343 690 q 314 779 329 735 q 311 783 314 782 l 311 779 q 274 643 297 729 q 247 628 264 628 q 244 631 244 628 q 300 817 275 704 q 304 833 304 822 q 307 839 304 836 q 331 843 315 840 q 342 836 342 843 q 364 763 354 788 q 390 693 374 738 q 392 688 390 688 q 400 694 397 689 q 479 821 431 744 q 506 836 483 829 q 524 842 515 842 q 531 836 531 844 q 514 748 521 821 q 511 656 507 675 q 515 646 513 651 q 514 639 518 643 m 279 838 q 264 821 276 833 q 215 819 261 819 q 211 813 211 818 q 186 736 197 782 q 172 651 172 682 q 175 635 172 633 l 171 635 q 132 622 150 622 q 126 626 129 624 q 125 642 124 629 q 167 813 142 707 q 165 821 176 817 q 108 818 119 821 q 104 822 104 819 q 115 836 107 828 q 129 842 119 842 q 199 838 140 839 q 247 840 221 838 q 274 842 272 842 q 279 838 282 842 z "},"":{"ha":804,"x_min":29,"x_max":772,"o":"m 772 392 q 650 274 772 358 q 424 114 443 131 q 303 -46 303 17 q 393 -107 303 -107 q 467 -99 421 -107 q 529 -90 513 -90 q 578 -106 558 -90 q 586 -147 603 -126 q 547 -146 569 -165 q 457 -128 519 -122 q 329 -125 367 -136 q 261 -93 281 -111 q 233 -15 233 -67 q 393 204 233 69 q 619 378 506 290 q 635 400 635 390 q 617 408 635 411 q 379 317 521 392 q 346 314 367 310 q 317 330 325 318 q 308 358 308 342 q 325 399 308 381 q 433 479 351 426 q 568 578 525 539 q 579 594 579 589 q 560 601 579 606 q 307 511 468 585 q 103 418 228 472 q 75 413 88 413 q 32 440 42 413 q 29 458 29 450 q 65 519 29 493 q 368 701 217 610 q 665 907 628 856 q 683 950 683 931 q 596 997 683 997 q 342 932 497 997 q 147 828 217 879 q 122 818 133 818 q 107 829 111 818 q 128 872 101 846 q 297 960 165 908 q 579 1022 457 1022 q 738 907 738 1022 q 539 692 738 822 q 286 538 413 615 q 478 621 365 578 q 661 669 615 672 q 725 607 725 665 q 631 492 725 560 q 499 404 565 449 q 710 450 649 450 q 772 392 772 450 z "},"":{"ha":804,"x_min":29,"x_max":772,"o":"m 772 392 q 650 274 772 358 q 424 114 443 131 q 303 -46 303 17 q 393 -107 303 -107 q 467 -99 421 -107 q 529 -90 513 -90 q 578 -106 558 -90 q 586 -147 603 -126 q 547 -146 569 -165 q 457 -128 519 -122 q 329 -125 367 -136 q 261 -93 281 -111 q 233 -15 233 -67 q 393 204 233 69 q 619 378 506 290 q 635 400 635 390 q 617 408 635 411 q 379 317 521 392 q 346 314 367 310 q 317 330 325 318 q 308 358 308 342 q 325 399 308 381 q 433 479 351 426 q 568 578 525 539 q 579 594 579 589 q 560 601 579 606 q 307 511 468 585 q 103 418 228 472 q 75 413 88 413 q 32 440 42 413 q 29 458 29 450 q 65 519 29 493 q 368 701 217 610 q 665 907 628 856 q 683 950 683 931 q 596 997 683 997 q 342 932 497 997 q 147 828 217 879 q 122 818 133 818 q 107 829 111 818 q 128 872 101 846 q 297 960 165 908 q 579 1022 457 1022 q 738 907 738 1022 q 539 692 738 822 q 286 538 413 615 q 478 621 365 578 q 661 669 615 672 q 725 607 725 665 q 631 492 725 560 q 499 404 565 449 q 710 450 649 450 q 772 392 772 450 z "},"":{"ha":804,"x_min":29,"x_max":772,"o":"m 772 392 q 650 274 772 358 q 424 114 443 131 q 303 -46 303 17 q 393 -107 303 -107 q 467 -99 421 -107 q 529 -90 513 -90 q 578 -106 558 -90 q 586 -147 603 -126 q 547 -146 569 -165 q 457 -128 519 -122 q 329 -125 367 -136 q 261 -93 281 -111 q 233 -15 233 -67 q 393 204 233 69 q 619 378 506 290 q 635 400 635 390 q 617 408 635 411 q 379 317 521 392 q 346 314 367 310 q 317 330 325 318 q 308 358 308 342 q 325 399 308 381 q 433 479 351 426 q 568 578 525 539 q 579 594 579 589 q 560 601 579 606 q 307 511 468 585 q 103 418 228 472 q 75 413 88 413 q 32 440 42 413 q 29 458 29 450 q 65 519 29 493 q 368 701 217 610 q 665 907 628 856 q 683 950 683 931 q 596 997 683 997 q 342 932 497 997 q 147 828 217 879 q 122 818 133 818 q 107 829 111 818 q 128 872 101 846 q 297 960 165 908 q 579 1022 457 1022 q 738 907 738 1022 q 539 692 738 822 q 286 538 413 615 q 478 621 365 578 q 661 669 615 672 q 725 607 725 665 q 631 492 725 560 q 499 404 565 449 q 710 450 649 450 q 772 392 772 450 z "},"":{"ha":804,"x_min":29,"x_max":772,"o":"m 772 392 q 650 274 772 358 q 424 114 443 131 q 303 -46 303 17 q 393 -107 303 -107 q 467 -99 421 -107 q 529 -90 513 -90 q 578 -106 558 -90 q 586 -147 603 -126 q 547 -146 569 -165 q 457 -128 519 -122 q 329 -125 367 -136 q 261 -93 281 -111 q 233 -15 233 -67 q 393 204 233 69 q 619 378 506 290 q 635 400 635 390 q 617 408 635 411 q 379 317 521 392 q 346 314 367 310 q 317 330 325 318 q 308 358 308 342 q 325 399 308 381 q 433 479 351 426 q 568 578 525 539 q 579 594 579 589 q 560 601 579 606 q 307 511 468 585 q 103 418 228 472 q 75 413 88 413 q 32 440 42 413 q 29 458 29 450 q 65 519 29 493 q 368 701 217 610 q 665 907 628 856 q 683 950 683 931 q 596 997 683 997 q 342 932 497 997 q 147 828 217 879 q 122 818 133 818 q 107 829 111 818 q 128 872 101 846 q 297 960 165 908 q 579 1022 457 1022 q 738 907 738 1022 q 539 692 738 822 q 286 538 413 615 q 478 621 365 578 q 661 669 615 672 q 725 607 725 665 q 631 492 725 560 q 499 404 565 449 q 710 450 649 450 q 772 392 772 450 z "},"":{"ha":178,"x_min":32,"x_max":143,"o":"m 126 485 q 143 457 143 464 q 113 421 143 447 q 79 399 88 399 q 51 424 71 399 q 32 458 32 449 q 63 493 32 468 q 96 513 88 513 q 126 485 106 513 z "},"":{"ha":829,"x_min":43,"x_max":963,"o":"m 779 851 q 822 894 818 890 q 877 927 847 917 q 947 940 907 938 q 963 936 963 942 q 951 928 963 931 q 847 858 914 917 q 469 349 638 672 q 322 -4 378 171 q 310 -19 318 -19 q 303 -4 303 -19 q 260 168 300 64 q 178 315 221 272 q 136 335 157 335 q 50 293 110 335 q 44 294 47 290 q 47 301 43 297 q 140 394 78 335 q 182 414 164 414 q 217 397 199 414 q 339 149 307 308 q 346 132 342 132 q 357 149 350 132 q 779 851 525 594 z "},"":{"ha":949,"x_min":-286,"x_max":925,"o":"m -193 -275 q -33 -186 -90 -275 q 93 250 21 -101 q 157 571 119 376 q 76 566 89 571 q 63 563 63 561 q 70 577 61 568 q 108 589 79 586 q 161 590 126 590 q 204 743 179 679 q 374 953 253 867 q 518 1025 475 1025 q 563 994 563 1025 q 528 976 563 974 q 469 981 458 981 q 410 963 435 981 q 340 885 368 933 q 290 769 321 850 q 239 589 267 707 l 458 589 q 474 654 464 615 q 515 790 488 721 q 682 1001 565 918 q 865 1079 790 1079 q 922 1049 925 1079 q 888 1026 919 1025 q 849 1033 874 1028 q 807 1039 825 1039 q 717 1010 757 1039 q 649 933 676 982 q 599 818 629 899 q 544 628 564 726 q 536 590 542 614 q 689 617 656 590 q 696 615 693 615 q 686 597 696 608 q 622 572 665 574 q 532 571 590 571 q 451 203 504 435 q 308 -114 403 26 q 110 -244 221 -244 q 46 -207 46 -244 q 74 -183 46 -183 q 99 -190 79 -183 q 139 -196 118 -196 q 225 -178 192 -196 q 292 -109 258 -161 q 353 51 325 -57 q 404 307 365 104 q 454 571 422 397 l 235 571 q -4 -178 136 26 q -108 -281 -44 -237 q -222 -325 -172 -325 q -286 -289 -286 -325 q -258 -265 -286 -265 q -233 -270 -253 -265 q -193 -275 -214 -275 m 761 540 q 739 572 761 574 q 667 532 715 571 q 654 531 657 522 q 668 546 654 536 q 836 638 796 638 q 856 600 863 638 q 778 315 853 582 q 736 110 738 169 q 744 67 736 81 q 775 54 753 54 q 885 121 826 56 q 900 133 897 136 q 893 115 904 129 q 793 35 858 76 q 689 -11 722 -11 q 654 1 664 -11 q 644 38 644 13 q 669 144 644 56 q 717 317 710 288 q 761 540 763 494 z "},"":{"ha":804,"x_min":29,"x_max":772,"o":"m 772 392 q 650 274 772 358 q 424 114 443 131 q 303 -46 303 17 q 393 -107 303 -107 q 467 -99 421 -107 q 529 -90 513 -90 q 578 -106 558 -90 q 586 -147 603 -126 q 547 -146 569 -165 q 457 -128 519 -122 q 329 -125 367 -136 q 261 -93 281 -111 q 233 -15 233 -67 q 393 204 233 69 q 619 378 506 290 q 635 400 635 390 q 617 408 635 411 q 379 317 521 392 q 346 314 367 310 q 317 330 325 318 q 308 358 308 342 q 325 399 308 381 q 433 479 351 426 q 568 578 525 539 q 579 594 579 589 q 560 601 579 606 q 307 511 468 585 q 103 418 228 472 q 75 413 88 413 q 32 440 42 413 q 29 458 29 450 q 65 519 29 493 q 368 701 217 610 q 665 907 628 856 q 683 950 683 931 q 596 997 683 997 q 342 932 497 997 q 147 828 217 879 q 122 818 133 818 q 107 829 111 818 q 128 872 101 846 q 297 960 165 908 q 579 1022 457 1022 q 738 907 738 1022 q 539 692 738 822 q 286 538 413 615 q 478 621 365 578 q 661 669 615 672 q 725 607 725 665 q 631 492 725 560 q 499 404 565 449 q 710 450 649 450 q 772 392 772 450 z "},"":{"ha":804,"x_min":29,"x_max":772,"o":"m 772 392 q 650 274 772 358 q 424 114 443 131 q 303 -46 303 17 q 393 -107 303 -107 q 467 -99 421 -107 q 529 -90 513 -90 q 578 -106 558 -90 q 586 -147 603 -126 q 547 -146 569 -165 q 457 -128 519 -122 q 329 -125 367 -136 q 261 -93 281 -111 q 233 -15 233 -67 q 393 204 233 69 q 619 378 506 290 q 635 400 635 390 q 617 408 635 411 q 379 317 521 392 q 346 314 367 310 q 317 330 325 318 q 308 358 308 342 q 325 399 308 381 q 433 479 351 426 q 568 578 525 539 q 579 594 579 589 q 560 601 579 606 q 307 511 468 585 q 103 418 228 472 q 75 413 88 413 q 32 440 42 413 q 29 458 29 450 q 65 519 29 493 q 368 701 217 610 q 665 907 628 856 q 683 950 683 931 q 596 997 683 997 q 342 932 497 997 q 147 828 217 879 q 122 818 133 818 q 107 829 111 818 q 128 872 101 846 q 297 960 165 908 q 579 1022 457 1022 q 738 907 738 1022 q 539 692 738 822 q 286 538 413 615 q 478 621 365 578 q 661 669 615 672 q 725 607 725 665 q 631 492 725 560 q 499 404 565 449 q 710 450 649 450 q 772 392 772 450 z "},"":{"ha":624,"x_min":-285,"x_max":926,"o":"m -192 -275 q -32 -186 -89 -275 q 94 250 22 -101 q 158 571 121 376 q 77 566 90 571 q 64 563 64 561 q 72 577 63 568 q 110 589 81 586 q 163 590 128 590 q 206 743 181 679 q 375 953 254 867 q 519 1025 476 1025 q 564 994 564 1025 q 529 976 564 974 q 471 981 460 981 q 411 963 436 981 q 342 885 369 933 q 292 769 322 850 q 240 589 268 707 l 460 589 q 475 654 465 615 q 517 790 489 721 q 683 1001 567 918 q 867 1079 792 1079 q 924 1049 926 1079 q 889 1026 921 1025 q 851 1033 875 1028 q 808 1039 826 1039 q 718 1010 758 1039 q 650 933 678 982 q 600 818 631 899 q 546 628 565 726 q 538 590 543 614 q 690 617 657 590 q 697 615 694 615 q 688 597 697 608 q 624 572 667 574 q 533 571 592 571 q 451 203 506 435 q 308 -114 403 26 q 111 -244 221 -244 q 47 -207 47 -244 q 75 -183 47 -183 q 100 -190 81 -183 q 140 -196 119 -196 q 226 -178 193 -196 q 293 -109 260 -161 q 354 51 326 -57 q 406 307 367 104 q 456 571 424 397 l 236 571 q 133 128 182 288 q -3 -178 75 -64 q -107 -281 -43 -237 q -221 -325 -171 -325 q -285 -289 -285 -325 q -257 -265 -285 -265 q -232 -270 -251 -265 q -192 -275 -212 -275 z "},"":{"ha":804,"x_min":29,"x_max":772,"o":"m 772 392 q 650 274 772 358 q 424 114 443 131 q 303 -46 303 17 q 393 -107 303 -107 q 467 -99 421 -107 q 529 -90 513 -90 q 578 -106 558 -90 q 586 -147 603 -126 q 547 -146 569 -165 q 457 -128 519 -122 q 329 -125 367 -136 q 261 -93 281 -111 q 233 -15 233 -67 q 393 204 233 69 q 619 378 506 290 q 635 400 635 390 q 617 408 635 411 q 379 317 521 392 q 346 314 367 310 q 317 330 325 318 q 308 358 308 342 q 325 399 308 381 q 433 479 351 426 q 568 578 525 539 q 579 594 579 589 q 560 601 579 606 q 307 511 468 585 q 103 418 228 472 q 75 413 88 413 q 32 440 42 413 q 29 458 29 450 q 65 519 29 493 q 368 701 217 610 q 665 907 628 856 q 683 950 683 931 q 596 997 683 997 q 342 932 497 997 q 147 828 217 879 q 122 818 133 818 q 107 829 111 818 q 128 872 101 846 q 297 960 165 908 q 579 1022 457 1022 q 738 907 738 1022 q 539 692 738 822 q 286 538 413 615 q 478 621 365 578 q 661 669 615 672 q 725 607 725 665 q 631 492 725 560 q 499 404 565 449 q 710 450 649 450 q 772 392 772 450 z "},"":{"ha":804,"x_min":29,"x_max":772,"o":"m 772 392 q 650 274 772 358 q 424 114 443 131 q 303 -46 303 17 q 393 -107 303 -107 q 467 -99 421 -107 q 529 -90 513 -90 q 578 -106 558 -90 q 586 -147 603 -126 q 547 -146 569 -165 q 457 -128 519 -122 q 329 -125 367 -136 q 261 -93 281 -111 q 233 -15 233 -67 q 393 204 233 69 q 619 378 506 290 q 635 400 635 390 q 617 408 635 411 q 379 317 521 392 q 346 314 367 310 q 317 330 325 318 q 308 358 308 342 q 325 399 308 381 q 433 479 351 426 q 568 578 525 539 q 579 594 579 589 q 560 601 579 606 q 307 511 468 585 q 103 418 228 472 q 75 413 88 413 q 32 440 42 413 q 29 458 29 450 q 65 519 29 493 q 368 701 217 610 q 665 907 628 856 q 683 950 683 931 q 596 997 683 997 q 342 932 497 997 q 147 828 217 879 q 122 818 133 818 q 107 829 111 818 q 128 872 101 846 q 297 960 165 908 q 579 1022 457 1022 q 738 907 738 1022 q 539 692 738 822 q 286 538 413 615 q 478 621 365 578 q 661 669 615 672 q 725 607 725 665 q 631 492 725 560 q 499 404 565 449 q 710 450 649 450 q 772 392 772 450 z "},"":{"ha":804,"x_min":29,"x_max":772,"o":"m 772 392 q 650 274 772 358 q 424 114 443 131 q 303 -46 303 17 q 393 -107 303 -107 q 467 -99 421 -107 q 529 -90 513 -90 q 578 -106 558 -90 q 586 -147 603 -126 q 547 -146 569 -165 q 457 -128 519 -122 q 329 -125 367 -136 q 261 -93 281 -111 q 233 -15 233 -67 q 393 204 233 69 q 619 378 506 290 q 635 400 635 390 q 617 408 635 411 q 379 317 521 392 q 346 314 367 310 q 317 330 325 318 q 308 358 308 342 q 325 399 308 381 q 433 479 351 426 q 568 578 525 539 q 579 594 579 589 q 560 601 579 606 q 307 511 468 585 q 103 418 228 472 q 75 413 88 413 q 32 440 42 413 q 29 458 29 450 q 65 519 29 493 q 368 701 217 610 q 665 907 628 856 q 683 950 683 931 q 596 997 683 997 q 342 932 497 997 q 147 828 217 879 q 122 818 133 818 q 107 829 111 818 q 128 872 101 846 q 297 960 165 908 q 579 1022 457 1022 q 738 907 738 1022 q 539 692 738 822 q 286 538 413 615 q 478 621 365 578 q 661 669 615 672 q 725 607 725 665 q 631 492 725 560 q 499 404 565 449 q 710 450 649 450 q 772 392 772 450 z "},"":{"ha":665,"x_min":-293,"x_max":622,"o":"m 551 1008 q 608 978 611 1008 q 574 956 606 954 q 535 963 560 957 q 493 968 511 968 q 404 940 443 968 q 283 747 339 893 q 239 583 260 688 q 322 590 279 583 q 349 600 331 592 q 368 608 368 608 q 360 588 379 608 q 300 557 335 558 q 232 557 300 557 q 129 136 157 235 q -7 -192 65 -86 q -111 -295 -47 -251 q -225 -339 -175 -339 q -293 -308 -293 -339 q -267 -283 -293 -283 q -236 -285 -260 -283 q -196 -287 -212 -287 q -37 -201 -93 -287 q 90 236 18 -115 q 154 557 117 363 q 72 554 79 557 q 61 550 61 550 q 67 565 58 551 q 104 582 75 579 q 132 583 114 583 q 160 583 151 583 q 199 721 172 633 q 368 931 247 844 q 551 1008 476 1008 m 479 540 q 457 572 479 574 q 385 532 433 571 q 372 531 375 522 q 386 546 372 536 q 554 638 514 638 q 574 600 581 638 q 496 315 571 582 q 454 110 456 169 q 463 67 454 81 q 493 54 471 54 q 603 121 544 56 q 618 133 615 136 q 611 115 622 129 q 511 35 576 76 q 407 -11 440 -11 q 372 1 382 -11 q 363 38 363 13 q 388 144 363 56 q 435 317 428 288 q 479 540 481 494 z "},"":{"ha":675,"x_min":-293,"x_max":950,"o":"m 722 924 q 596 696 654 863 q 494 350 542 542 q 456 117 456 190 q 499 56 456 56 q 604 128 544 56 q 618 139 615 140 q 614 122 624 136 q 513 33 581 78 q 414 -12 446 -12 q 369 46 369 -12 q 414 292 369 103 q 504 624 453 458 q 665 892 557 796 q 885 1015 804 1015 q 950 985 950 1015 q 919 963 950 963 q 884 968 908 963 q 835 974 860 974 q 722 924 776 974 m 551 1008 q 608 978 611 1008 q 574 956 606 954 q 535 963 560 957 q 493 968 511 968 q 404 940 443 968 q 283 747 339 893 q 239 583 260 688 q 322 590 279 583 q 349 600 331 592 q 368 608 368 608 q 360 588 379 608 q 300 557 335 558 q 232 557 300 557 q 129 136 157 235 q -7 -192 65 -86 q -111 -295 -47 -251 q -225 -339 -175 -339 q -293 -308 -293 -339 q -267 -283 -293 -283 q -236 -285 -260 -283 q -196 -287 -212 -287 q -37 -201 -93 -287 q 90 236 18 -115 q 154 557 117 363 q 72 554 79 557 q 61 550 61 550 q 67 565 58 551 q 104 582 75 579 q 132 583 114 583 q 160 583 151 583 q 199 721 172 633 q 368 931 247 844 q 551 1008 476 1008 z "},"":{"ha":804,"x_min":29,"x_max":772,"o":"m 772 392 q 650 274 772 358 q 424 114 443 131 q 303 -46 303 17 q 393 -107 303 -107 q 467 -99 421 -107 q 529 -90 513 -90 q 578 -106 558 -90 q 586 -147 603 -126 q 547 -146 569 -165 q 457 -128 519 -122 q 329 -125 367 -136 q 261 -93 281 -111 q 233 -15 233 -67 q 393 204 233 69 q 619 378 506 290 q 635 400 635 390 q 617 408 635 411 q 379 317 521 392 q 346 314 367 310 q 317 330 325 318 q 308 358 308 342 q 325 399 308 381 q 433 479 351 426 q 568 578 525 539 q 579 594 579 589 q 560 601 579 606 q 307 511 468 585 q 103 418 228 472 q 75 413 88 413 q 32 440 42 413 q 29 458 29 450 q 65 519 29 493 q 368 701 217 610 q 665 907 628 856 q 683 950 683 931 q 596 997 683 997 q 342 932 497 997 q 147 828 217 879 q 122 818 133 818 q 107 829 111 818 q 128 872 101 846 q 297 960 165 908 q 579 1022 457 1022 q 738 907 738 1022 q 539 692 738 822 q 286 538 413 615 q 478 621 365 578 q 661 669 615 672 q 725 607 725 665 q 631 492 725 560 q 499 404 565 449 q 710 450 649 450 q 772 392 772 450 z "},"":{"ha":176,"x_min":0,"x_max":0,"o":""},"":{"ha":1106,"x_min":-92,"x_max":1346,"o":"m -67 104 q -41 56 -67 76 q 26 36 -15 36 q 182 72 108 36 q 349 196 256 108 q 569 486 458 299 q 278 504 389 504 q 101 446 182 504 q 82 437 85 435 q 92 450 79 439 q 339 563 221 563 q 596 531 389 563 q 710 715 692 690 q 865 889 793 839 q 1144 983 1001 983 q 1218 978 1181 983 q 1304 1000 1263 1000 q 1346 979 1346 1000 q 1310 963 1346 963 q 1275 964 1299 963 q 1242 965 1251 965 q 1121 874 1185 965 q 972 528 1044 763 q 882 99 876 215 q 921 44 885 44 q 1025 110 964 44 q 1044 129 1043 129 q 1038 107 1051 125 q 947 26 1010 71 q 839 -24 876 -24 q 797 56 790 -24 q 844 296 803 124 q 904 525 879 446 q 729 481 849 481 q 590 486 650 481 q 488 328 560 431 q 374 175 417 225 q 182 13 286 71 q 13 -43 88 -43 q -92 43 -92 -43 q -78 119 -92 85 q -65 135 -71 136 q -67 104 -67 135 m 614 528 q 785 513 688 513 q 911 550 876 513 q 996 771 965 714 q 1194 968 1074 922 q 885 864 1032 968 q 614 528 758 774 z "},"":{"ha":872,"x_min":-74,"x_max":1119,"o":"m 657 983 q 636 984 646 983 q 615 985 626 985 q 594 963 604 975 q 574 938 583 951 q 547 893 563 925 q 513 813 532 861 q 473 706 494 765 q 428 579 451 646 q 613 556 535 576 q 740 502 690 536 q 814 421 790 468 q 838 318 838 374 q 808 191 838 251 q 726 85 778 131 q 602 12 674 39 q 449 -15 531 -15 q 393 -13 426 -15 q 321 -8 360 -11 q 242 0 282 -4 q 169 8 203 4 q 112 13 135 11 q 82 15 89 15 q -58 -14 -12 15 q -71 -19 -68 -19 q -74 -15 -74 -19 q -62 17 -74 3 q -34 40 -51 31 q 4 54 -17 49 q 44 60 25 60 q 67 60 56 60 q 89 58 78 60 q 163 93 131 58 q 223 187 196 128 q 274 324 250 246 q 324 489 299 403 q 407 760 379 682 q 474 890 433 835 q 579 986 515 946 q 492 988 531 988 q 425 989 453 989 q 290 978 346 989 q 195 949 233 968 q 134 899 157 929 q 99 832 111 869 q 83 818 92 818 q 71 832 71 818 q 92 887 71 860 q 146 938 113 914 q 221 983 179 963 q 303 1018 263 1003 q 378 1042 343 1033 q 433 1050 413 1050 q 528 1046 474 1050 q 653 1032 582 1042 q 678 1029 656 1031 q 694 1026 700 1028 q 807 1012 754 1018 q 901 1001 860 1006 q 967 995 942 997 q 997 993 993 993 q 1100 1046 1076 993 q 1113 1058 1104 1058 q 1119 1051 1119 1058 q 1114 1036 1119 1046 q 957 963 1069 963 l 657 983 m 372 417 q 313 269 342 331 q 253 164 283 207 q 192 94 224 121 q 125 51 160 67 q 171 43 132 51 q 261 26 210 35 q 367 9 313 17 q 461 1 422 1 q 574 22 522 1 q 664 78 626 42 q 722 167 701 115 q 743 282 743 219 q 713 413 743 358 q 638 501 683 467 q 535 551 592 536 q 424 565 478 567 q 398 492 411 529 q 372 417 385 454 z "},"":{"ha":824,"x_min":-197,"x_max":778,"o":"m 765 743 q 668 579 760 646 q 465 503 583 517 l 464 499 q 655 435 581 499 q 724 276 729 372 q 590 58 715 139 q 326 -15 479 -15 q 119 0 247 -15 q -40 15 -10 15 q -181 -14 -135 15 q -194 -19 -193 -21 q -194 -8 -197 -17 q -78 60 -168 58 q -33 58 -54 60 q -6 63 -21 58 q 111 214 67 97 q 201 489 153 324 q 285 760 258 683 q 401 940 324 872 q -17 811 146 940 q -35 804 -26 804 q -54 829 -54 804 q -14 874 -54 856 q 415 957 175 958 q 578 1057 475 1017 q 597 1057 594 1064 q 579 1042 601 1049 q 461 957 504 1018 q 765 743 778 950 m 676 747 q 608 883 676 829 q 451 938 544 933 q 338 672 413 892 q 250 417 294 544 q 161 213 203 283 q 3 51 89 89 q 161 22 32 49 q 339 1 264 1 q 543 76 461 1 q 625 276 625 150 q 560 426 625 369 q 385 483 496 483 q 349 481 372 483 q 329 479 331 478 q 342 495 328 481 q 378 510 357 510 q 410 510 390 510 q 440 508 428 508 q 594 579 518 508 q 676 747 676 654 z "},"":{"ha":583,"x_min":-60,"x_max":1025,"o":"m 311 96 q 169 -96 261 -7 q 13 -172 90 -172 q -50 -154 -35 -172 q -54 -126 -60 -143 q -29 -112 -49 -111 q 58 -121 63 -121 q 196 -44 142 -121 q 251 74 218 -12 q 386 536 288 167 q 463 775 433 700 q 531 872 488 839 q 619 919 557 893 q 346 925 418 928 q 131 868 196 918 q 61 768 81 829 q 44 754 56 753 q 35 778 29 757 q 132 888 49 829 q 379 986 268 983 q 615 968 461 989 q 897 933 879 933 q 1000 986 978 933 q 1015 999 1007 1001 q 1014 976 1025 994 q 857 903 971 903 l 658 917 q 607 896 629 918 q 564 825 590 878 q 460 536 515 728 l 451 506 q 311 96 379 235 z "},"":{"ha":1006,"x_min":-157,"x_max":961,"o":"m 418 938 q 178 899 294 938 q -3 806 71 864 q -21 799 -12 799 q -40 824 -40 799 q -7 871 -40 857 q 432 954 190 954 q 578 1049 507 1022 q 618 1053 615 1063 q 603 1043 619 1047 q 479 954 521 1021 q 838 857 710 954 q 958 593 961 761 q 888 336 956 465 q 707 121 821 207 q 512 17 608 47 q 289 -12 415 -12 q 135 -1 244 -12 q -36 10 26 10 q -139 -7 -100 10 q -153 -14 -154 -14 q -154 0 -157 -11 q -81 57 -136 57 q -51 55 -69 57 q -22 53 -33 53 q 54 86 17 53 q 151 265 104 131 q 225 499 182 351 q 296 732 276 674 q 418 938 342 872 m 867 569 q 776 828 869 733 q 471 938 675 932 q 379 731 433 876 q 226 301 332 582 q 22 47 143 107 q 168 26 39 46 q 346 11 272 11 q 689 153 549 11 q 867 569 863 329 z "},"":{"ha":689,"x_min":-4,"x_max":650,"o":"m 349 529 q 246 589 289 544 q 193 708 194 642 q 300 889 192 810 q 524 964 403 965 q 628 950 593 964 q 644 913 650 942 q 613 778 628 826 q 596 761 606 757 q 599 786 590 763 q 617 878 617 840 q 572 926 617 908 q 490 940 538 940 q 338 882 401 940 q 267 732 269 822 q 317 597 264 647 q 454 536 369 546 q 482 538 468 535 q 499 542 496 542 q 488 522 506 542 q 453 503 471 501 q 381 511 431 507 q 174 424 263 514 q 86 226 86 333 q 143 64 86 122 q 325 1 206 1 q 607 133 500 1 q 628 154 624 154 q 635 151 631 154 q 625 125 642 144 q 263 -46 478 -46 q 67 17 139 -46 q -4 169 -4 79 q 40 319 -4 243 q 136 432 79 388 q 349 529 232 508 z "},"":{"ha":1707,"x_min":-94,"x_max":1821,"o":"m 692 -1 q 647 -12 671 -7 q 603 -23 624 -18 q 565 -32 582 -28 q 542 -40 549 -36 q 513 -35 518 -49 q 535 -10 504 -14 q 567 -7 554 -8 q 592 -4 581 -6 q 615 -1 603 -3 q 642 4 626 0 q 765 172 706 13 q 801 290 779 213 q 854 486 822 368 l 743 488 l 692 488 q 662 419 678 453 q 626 350 646 385 q 434 90 544 203 q 175 -94 324 -24 q 80 -126 124 -118 q 4 -124 36 -135 q -57 18 -94 -90 q 8 121 -37 71 q 22 129 17 133 q 19 117 26 124 q -6 68 4 101 q 53 -43 -33 -14 q 122 -52 82 -54 q 206 -36 163 -50 q 290 3 249 -22 q 363 64 331 28 q 467 181 418 113 q 561 342 517 250 q 594 414 579 378 q 619 485 608 450 q 557 476 585 482 q 508 463 529 471 q 495 451 506 461 q 479 444 485 442 q 496 468 469 450 q 628 514 540 506 q 660 721 660 625 q 447 975 660 975 q 221 897 335 975 q 155 843 185 872 q 103 779 125 814 q 82 768 90 761 q 85 793 72 776 q 217 915 125 847 q 522 1038 381 1038 q 693 968 635 1038 q 751 781 751 899 q 704 517 751 649 q 728 518 715 518 q 754 518 740 518 q 812 517 786 517 q 861 517 838 517 q 893 638 875 569 q 935 790 911 707 q 1002 896 963 861 q 1113 940 1042 931 q 959 935 1024 938 q 853 933 894 933 q 828 944 825 933 q 858 956 832 957 q 954 949 910 951 q 1038 949 999 947 q 1206 961 1086 950 q 1217 950 1214 961 q 1211 940 1218 943 q 1197 938 1204 938 q 1083 913 1121 942 q 1028 828 1054 888 q 982 701 1006 779 q 931 517 958 624 l 940 517 q 1025 517 988 517 q 1090 518 1063 517 q 1105 549 1097 533 q 1122 579 1113 564 q 1389 897 1232 778 q 1718 1021 1553 1021 q 1799 1006 1761 1021 q 1819 983 1821 996 q 1808 955 1817 976 q 1789 897 1800 933 q 1780 863 1786 882 q 1767 818 1774 843 q 1751 804 1761 803 q 1751 824 1746 806 q 1765 869 1758 844 q 1778 925 1771 894 q 1671 975 1779 975 q 1401 878 1519 975 q 1188 588 1283 782 q 1174 558 1181 572 q 1161 529 1168 544 q 1229 561 1200 542 q 1260 581 1258 581 q 1239 543 1274 576 q 1200 517 1226 532 q 1146 492 1174 501 q 1089 208 1089 338 q 1301 -46 1089 -46 q 1528 32 1414 -46 q 1594 86 1564 57 q 1646 150 1624 115 q 1667 161 1658 168 q 1664 136 1676 153 q 1532 14 1624 82 q 1226 -108 1368 -108 q 1056 -39 1114 -108 q 997 149 997 31 q 1074 483 997 314 q 1013 484 1050 483 q 922 486 975 485 l 922 483 q 883 333 907 419 q 829 133 860 246 q 779 53 811 81 q 747 28 768 43 q 692 -1 725 13 z "},"":{"ha":797,"x_min":31,"x_max":743,"o":"m 358 929 q 310 889 328 911 q 282 847 293 867 q 261 813 271 826 q 238 799 251 799 q 236 819 225 800 q 281 886 260 858 q 328 932 303 914 q 390 958 354 950 q 475 967 425 967 q 668 888 597 967 q 703 706 743 808 q 601 586 676 639 q 472 525 539 542 q 649 426 583 506 q 699 310 688 381 q 682 160 713 232 q 549 8 647 69 q 328 -49 450 -50 q 38 124 114 -44 q 39 149 31 143 q 49 151 46 154 q 61 131 53 151 q 286 -1 115 -1 q 492 57 404 -3 q 615 218 575 114 q 606 417 657 325 q 433 508 554 510 q 388 506 407 507 q 358 501 369 504 q 331 521 339 499 q 329 539 322 542 q 344 537 332 539 q 371 535 357 535 q 535 594 463 544 q 638 731 607 643 q 626 882 671 821 q 577 926 611 910 q 503 948 543 943 q 424 948 464 953 q 358 929 385 943 z "},"":{"ha":903,"x_min":40,"x_max":906,"o":"m 715 431 q 660 149 671 263 q 657 114 657 128 q 713 57 657 47 q 813 136 767 67 q 828 147 821 150 q 822 126 836 144 q 728 42 794 89 q 615 -12 653 -12 q 569 44 569 -12 q 631 358 569 121 q 461 138 568 233 q 301 22 383 67 q 156 -28 214 -28 q 40 110 40 -28 q 108 519 40 281 q 215 796 157 689 q 301 895 247 856 q 399 938 354 935 q 139 929 254 929 q 114 944 110 929 q 144 956 118 958 q 324 946 274 944 q 478 957 374 947 q 489 947 488 957 q 469 935 490 935 q 372 908 410 935 q 311 842 342 889 q 176 510 233 724 q 126 175 126 322 q 228 38 126 38 q 463 163 325 38 q 581 303 526 221 q 647 438 628 378 q 674 522 664 489 q 768 825 704 625 q 815 897 783 871 q 888 939 829 908 q 904 942 901 946 q 894 929 906 939 q 864 883 876 911 q 738 517 803 749 q 715 431 731 490 z "},"":{"ha":903,"x_min":40,"x_max":906,"o":"m 715 431 q 660 149 671 263 q 657 114 657 128 q 713 57 657 47 q 813 136 767 67 q 828 147 821 150 q 822 126 836 144 q 728 42 794 89 q 615 -12 653 -12 q 569 44 569 -12 q 631 358 569 121 q 461 138 568 233 q 301 22 383 67 q 156 -28 214 -28 q 40 110 40 -28 q 108 519 40 281 q 215 796 157 689 q 301 895 247 856 q 399 938 354 935 q 139 929 254 929 q 114 944 110 929 q 144 956 118 958 q 324 946 274 944 q 478 957 374 947 q 489 947 488 957 q 469 935 490 935 q 372 908 410 935 q 311 842 342 889 q 176 510 233 724 q 126 175 126 322 q 228 38 126 38 q 463 163 325 38 q 581 303 526 221 q 647 438 628 378 q 674 522 664 489 q 768 825 704 625 q 815 897 783 871 q 888 939 829 908 q 904 942 901 946 q 894 929 906 939 q 864 883 876 911 q 738 517 803 749 q 715 431 731 490 m 596 1050 q 563 1093 576 1064 q 558 1113 557 1106 q 568 1125 561 1125 q 586 1115 578 1117 q 831 1147 711 1060 q 849 1153 844 1161 q 836 1133 854 1144 q 689 1046 756 1067 q 596 1050 626 1028 z "},"":{"ha":824,"x_min":-235,"x_max":894,"o":"m 422 942 q 163 935 246 935 q 138 946 135 935 q 168 957 142 960 q 347 950 271 949 q 515 963 397 951 q 526 951 525 963 q 521 942 528 944 q 507 939 514 939 q 393 914 431 943 q 339 829 367 892 q 221 485 286 707 q 121 135 189 374 q 74 54 106 81 q -15 10 51 36 q 214 18 104 18 q 250 4 254 18 q 214 -3 247 -6 q 47 4 111 6 q -84 -10 0 3 q -200 -33 -168 -24 q -228 -25 -224 -40 q -203 -3 -235 -3 q -61 6 -92 -3 q 26 94 -1 21 q 157 504 49 153 q 244 792 189 615 q 312 897 272 863 q 422 942 351 932 m 303 540 q 272 507 300 538 q 258 500 265 497 q 263 526 246 507 q 394 660 279 544 q 675 885 525 792 q 829 949 778 949 q 881 913 890 949 q 849 896 878 894 q 797 899 796 899 q 639 836 736 894 q 414 656 551 783 q 356 576 357 603 q 460 275 349 465 q 725 -57 603 31 q 817 -93 776 -93 q 872 -69 840 -93 q 888 -64 883 -61 q 879 -82 894 -69 q 808 -131 863 -99 q 754 -143 778 -143 q 665 -108 713 -143 q 524 43 603 -61 q 410 217 457 132 q 303 458 324 374 q 303 540 290 510 z "},"":{"ha":1106,"x_min":-92,"x_max":1346,"o":"m 904 525 q 996 771 965 714 q 1194 968 1074 922 q 885 864 1032 968 q 590 486 758 774 q 488 328 560 431 q 374 175 417 225 q 182 13 286 71 q 13 -43 88 -43 q -92 43 -92 -43 q -78 119 -92 85 q -65 135 -71 136 q -67 104 -67 135 q -41 56 -67 76 q 26 36 -15 36 q 182 72 108 36 q 349 196 256 108 q 569 486 458 299 q 710 715 692 690 q 865 889 793 839 q 1144 983 1001 983 q 1218 978 1181 983 q 1304 1000 1263 1000 q 1346 979 1346 1000 q 1310 963 1346 963 q 1275 964 1299 963 q 1242 965 1251 965 q 1121 874 1185 965 q 972 528 1044 763 q 882 99 876 215 q 921 44 885 44 q 1025 110 964 44 q 1044 129 1043 129 q 1038 107 1051 125 q 947 26 1010 71 q 839 -24 876 -24 q 797 56 790 -24 q 844 296 803 124 q 904 525 879 446 z "},"":{"ha":1529,"x_min":-158,"x_max":1597,"o":"m 1446 846 q 1310 447 1386 724 q 1243 113 1249 226 q 1285 18 1239 18 q 1372 64 1313 18 q 1449 136 1411 94 q 1463 149 1461 150 q 1461 133 1465 146 q 1378 51 1443 101 q 1196 -42 1256 -42 q 1151 22 1149 -42 q 1231 411 1156 147 q 1344 760 1275 568 q 1092 442 1239 651 q 856 42 922 200 q 790 -1 832 26 q 774 -8 775 -8 q 778 35 769 -7 q 800 333 800 151 q 799 411 800 374 q 739 813 788 665 q 532 1011 672 1011 q 383 924 447 1011 q 347 836 357 888 q 333 817 343 817 q 326 839 322 817 q 381 940 336 882 q 601 1083 490 1083 q 844 714 785 1083 q 872 360 872 546 q 861 106 872 249 q 1086 467 956 285 q 1386 839 1260 707 q 1575 960 1500 958 q 1596 947 1594 960 q 1575 935 1597 935 q 1446 846 1489 935 m 715 782 q 719 739 729 779 q 519 250 650 465 q 299 -7 422 90 q 31 -114 164 -112 q -107 -82 -60 -115 q -154 25 -158 -46 q -100 213 -149 122 q -85 226 -92 229 q -83 210 -74 222 q -125 99 -119 161 q -68 -4 -132 31 q 64 -33 -17 -33 q 311 51 189 -33 q 500 256 422 129 q 693 738 624 457 q 715 782 704 783 z "},"":{"ha":1004,"x_min":-204,"x_max":1333,"o":"m 415 489 q 396 425 408 467 q 304 146 340 225 q 150 -71 246 13 q -96 -199 7 -194 q -204 -150 -204 -203 q -201 -137 -204 -143 q -167 -128 -193 -118 q -62 -149 -111 -149 q 96 -96 44 -149 q 236 150 171 -19 q 322 421 265 226 q 344 493 331 444 l 276 493 q -7 378 57 493 q -21 364 -17 361 q -18 383 -26 368 q 231 533 64 532 q 354 528 297 533 q 438 801 378 613 q 604 951 483 926 q 300 946 506 946 q 271 967 265 946 q 304 972 274 976 q 465 961 378 964 l 603 961 q 636 958 636 961 q 617 946 638 950 q 533 838 579 939 q 424 524 485 728 q 700 507 621 507 q 861 554 825 507 q 881 617 863 557 q 1042 885 933 789 q 1268 1008 1181 1008 q 1333 978 1333 1008 q 1303 956 1333 956 q 1267 961 1292 956 q 1218 967 1243 967 q 1106 917 1160 967 q 973 690 1028 846 q 871 343 918 535 q 832 110 832 183 q 875 49 832 49 q 981 124 919 49 q 994 135 992 136 q 990 115 1001 131 q 888 24 957 71 q 786 -22 818 -22 q 743 39 743 -22 q 788 285 743 94 q 854 529 810 379 q 629 479 801 479 q 415 489 603 479 z "},"":{"ha":842,"x_min":67,"x_max":813,"o":"m 597 978 q 763 890 706 978 q 813 694 813 814 q 740 396 813 564 q 563 122 668 228 q 426 24 503 63 q 285 -14 350 -14 q 118 68 175 -14 q 67 264 67 142 q 157 628 67 447 q 349 878 238 786 q 597 978 471 978 m 721 635 q 675 846 721 769 q 510 928 621 939 q 357 858 426 919 q 207 622 265 778 q 153 326 153 475 q 358 38 153 38 q 551 140 453 38 q 675 374 624 217 q 721 635 721 518 z "},"":{"ha":849,"x_min":28,"x_max":1124,"o":"m 628 342 q 642 389 632 356 q 663 465 651 422 q 689 556 675 507 q 716 649 703 604 q 740 730 729 693 q 757 788 751 767 q 769 819 763 807 q 786 843 775 832 q 817 866 797 854 q 871 896 836 878 q 883 900 879 900 q 886 897 886 900 q 794 704 836 826 q 707 411 751 582 q 668 240 683 317 q 653 108 653 164 q 690 53 653 53 q 748 73 719 53 q 800 129 776 93 q 811 140 804 140 q 817 136 817 140 q 790 97 817 122 q 730 48 764 72 q 662 6 696 24 q 613 -12 628 -12 q 569 42 569 -12 q 628 342 569 114 m 644 917 q 620 913 631 917 q 600 900 610 910 q 580 872 590 890 q 557 825 569 854 q 514 710 538 783 q 465 553 490 636 q 417 392 440 471 q 375 261 393 313 q 316 132 347 190 q 252 33 285 74 q 188 -32 219 -8 q 128 -57 156 -56 q 60 -37 89 -60 q 28 42 32 -15 q 28 61 28 49 q 28 86 28 74 q 31 108 29 99 q 38 117 33 117 q 42 113 42 117 q 41 103 42 108 q 42 92 40 99 q 72 17 46 43 q 133 -6 97 -10 q 209 33 169 -3 q 278 144 249 69 q 324 293 301 207 q 375 486 347 379 q 405 603 386 531 q 456 775 424 675 q 476 823 465 803 q 503 859 486 843 q 544 889 519 875 q 608 919 569 903 q 504 924 556 922 q 404 925 453 925 q 167 889 247 925 q 61 768 88 853 q 46 754 54 754 q 33 768 33 754 q 53 821 33 794 q 106 872 74 847 q 179 917 139 896 q 260 953 219 938 q 335 977 300 968 q 393 986 371 986 q 450 985 411 986 q 536 981 489 983 q 632 976 583 979 q 718 968 681 972 q 926 942 857 953 q 1000 933 996 932 q 1103 986 1079 933 q 1115 999 1107 999 q 1124 990 1124 999 q 1118 976 1124 988 q 960 903 1074 903 q 880 906 922 903 q 795 913 838 910 q 714 918 753 917 q 644 917 675 919 z "},"":{"ha":725,"x_min":-217,"x_max":811,"o":"m 154 118 q 13 -74 103 14 q -144 -150 -67 -150 q -207 -132 -192 -150 q -211 -104 -217 -121 q -186 -90 -206 -89 q -99 -99 -94 -99 q 39 -22 -15 -99 q 94 96 61 10 q 194 449 122 169 q 304 832 258 696 q 365 943 328 900 q -58 806 86 919 q -76 799 -68 799 q -96 824 -96 799 q -57 871 -96 853 q 378 960 111 949 q 453 1013 401 983 q 535 1046 511 1046 q 546 1040 546 1046 q 533 1033 546 1036 q 470 1006 496 1026 q 435 963 444 985 q 793 735 811 963 q 632 489 782 594 q 388 390 508 401 q 336 389 354 388 q 314 407 315 390 q 319 422 314 417 q 390 410 347 410 q 603 513 510 410 q 697 728 690 611 q 631 890 703 836 q 428 946 558 944 q 269 461 383 869 q 218 283 232 329 q 154 118 186 182 z "},"":{"ha":750,"x_min":-4,"x_max":819,"o":"m 250 -165 q 140 -151 188 -168 q 61 -99 93 -133 q 13 -17 29 -65 q -4 90 -4 32 q 121 519 -4 299 q 389 836 233 718 q 717 958 549 958 q 797 943 760 958 q 818 921 819 933 q 807 892 815 914 q 788 835 799 871 q 778 800 785 819 q 765 756 772 781 q 750 742 760 740 q 750 761 744 743 q 763 807 757 782 q 776 863 769 832 q 669 913 778 913 q 396 821 508 913 q 185 529 279 726 q 88 150 88 326 q 300 -104 88 -104 q 526 -26 413 -104 q 644 92 607 29 q 665 103 657 113 q 663 78 674 93 q 529 -46 624 24 q 250 -165 376 -160 z "},"":{"ha":706,"x_min":29,"x_max":1026,"o":"m 857 903 q 744 910 838 903 q 644 917 651 917 q 596 894 615 917 q 557 825 581 878 q 440 467 496 693 q 354 135 386 249 q 301 53 339 81 q 207 8 278 36 q 417 22 340 28 q 479 -10 479 17 q 478 -19 479 -14 q 374 3 435 0 q 61 -43 218 11 q 40 -37 46 -49 q 47 -18 36 -29 q 72 -4 58 -7 q 167 4 114 -1 q 260 103 226 18 q 375 486 310 232 q 456 775 396 575 q 519 872 478 839 q 608 919 544 893 q 346 925 468 928 q 131 868 199 921 q 61 768 81 829 q 44 754 56 753 q 35 778 29 757 q 132 888 49 829 q 381 986 268 983 q 615 968 453 988 q 897 933 896 933 q 1000 986 978 933 q 1015 999 1007 1001 q 1015 976 1026 994 q 857 903 972 903 z "},"":{"ha":740,"x_min":13,"x_max":963,"o":"m 386 308 q 396 469 410 378 q 328 707 376 593 q 142 921 236 921 q 75 886 110 921 q 35 836 61 872 q 21 833 28 829 q 28 854 15 838 q 92 917 50 883 q 226 988 181 988 q 328 906 281 988 q 394 747 354 858 q 469 433 449 596 q 619 653 518 518 q 781 851 714 779 q 824 896 810 883 q 878 927 849 917 q 947 940 908 938 q 963 936 963 942 q 951 928 963 931 q 847 858 913 917 q 526 486 663 693 q 385 187 460 346 q 265 -25 311 28 q 175 -69 228 -71 q 57 -12 110 -67 q 17 56 28 18 q 26 78 13 75 q 35 69 33 78 q 69 4 42 26 q 136 -24 101 -22 q 215 33 167 -24 q 386 308 303 142 z "},"":{"ha":963,"x_min":24,"x_max":1013,"o":"m 771 1026 q 617 1022 682 1024 q 511 1019 553 1019 q 491 1022 496 1019 q 486 1031 486 1025 q 508 1042 490 1042 q 593 1038 553 1042 q 668 1035 633 1035 q 739 1038 693 1035 q 864 1047 785 1040 q 875 1035 875 1047 q 869 1026 875 1028 q 856 1024 863 1024 l 836 1024 q 785 1019 807 1024 q 746 1002 763 1014 q 715 969 729 990 q 686 914 700 947 q 608 722 640 815 q 601 704 606 713 q 635 747 618 726 q 724 831 676 796 q 824 883 772 867 q 924 885 875 899 q 990 832 969 869 q 1013 736 1010 794 q 990 565 1011 646 q 933 408 969 483 q 876 333 913 369 q 796 270 840 296 q 701 235 751 244 q 604 239 651 225 q 560 269 579 247 q 526 317 540 290 q 506 367 514 342 l 499 339 q 440 125 474 239 q 424 83 432 100 q 401 52 415 65 q 363 27 386 39 q 300 0 339 15 q 529 8 418 8 q 565 -3 565 8 q 543 -12 565 -12 q 457 -9 496 -12 q 386 -6 418 -6 q 330 -10 368 -6 q 249 -19 292 -14 q 168 -31 206 -25 q 115 -43 131 -37 q 103 -44 111 -44 q 86 -28 86 -44 q 106 -16 86 -19 q 153 -10 126 -12 q 209 -8 181 -8 q 253 -4 238 -7 q 315 42 283 0 q 376 164 347 83 q 424 319 403 239 q 454 442 439 379 q 400 369 431 406 q 312 285 360 321 q 213 233 264 250 q 113 232 161 217 q 47 285 67 247 q 24 381 26 322 q 46 552 25 471 q 103 708 67 633 q 160 784 124 747 q 240 847 196 821 q 335 882 285 872 q 432 878 385 892 q 476 848 457 869 q 510 799 496 826 q 532 743 524 772 q 538 726 535 735 q 593 876 561 799 q 660 982 621 947 q 771 1026 700 1017 m 521 674 l 528 697 l 524 700 q 513 742 521 718 q 490 791 504 767 q 453 835 475 815 q 406 863 432 854 q 264 842 332 885 q 154 671 196 799 q 124 544 133 607 q 115 415 115 482 q 136 319 117 357 q 188 272 156 282 q 253 278 215 264 q 329 325 290 293 q 405 403 368 357 q 469 501 442 449 l 469 496 q 521 674 493 581 m 550 535 q 514 404 532 471 q 524 374 518 390 q 547 326 532 350 q 582 282 561 301 q 631 254 603 263 q 703 248 667 243 q 772 275 739 253 q 833 340 804 297 q 882 446 861 382 q 912 572 903 510 q 921 701 921 635 q 900 797 919 760 q 849 844 881 835 q 783 838 821 853 q 707 792 746 824 q 631 714 668 760 q 582 644 604 681 q 550 535 565 590 z "},"":{"ha":849,"x_min":-68,"x_max":906,"o":"m 35 -17 q -68 97 -68 -17 q -40 217 -68 153 q -29 228 -35 231 q -28 215 -24 224 q -36 161 -36 199 q 56 75 -36 75 q 190 136 115 75 q 319 280 260 192 q 425 465 379 368 q 440 546 444 508 q 413 676 433 601 q 358 811 389 763 q 243 883 313 883 q 163 840 201 883 q 136 801 151 828 q 122 792 128 790 q 125 813 111 796 q 193 888 156 850 q 314 963 268 963 q 392 925 354 963 q 449 832 429 888 q 501 585 476 754 q 650 804 539 681 q 860 944 775 944 q 906 915 906 944 q 876 885 906 885 q 793 882 836 885 q 656 775 750 879 q 526 593 568 679 q 508 525 506 550 q 556 267 526 393 q 604 128 575 183 q 668 67 636 67 q 747 113 703 67 q 782 167 765 132 q 794 182 789 183 q 794 163 801 181 q 742 76 778 122 q 617 -14 669 -14 q 535 67 568 -14 q 492 224 517 113 q 450 469 472 314 q 315 238 410 379 q 183 65 236 119 q 35 -17 103 -17 z "},"":{"ha":903,"x_min":40,"x_max":906,"o":"m 685 -126 q 581 -158 646 -150 q 463 -171 538 -165 q 360 -179 390 -175 q 308 -190 328 -183 q 274 -208 288 -197 q 255 -233 261 -218 q 244 -271 249 -249 q 242 -301 243 -283 q 238 -339 240 -318 q 231 -354 238 -357 q 226 -333 224 -353 q 231 -287 228 -311 q 240 -233 233 -262 q 356 -111 264 -125 q 506 -114 401 -103 q 653 -117 610 -125 q 707 -85 682 -112 q 752 -21 732 -57 q 785 52 772 15 q 801 110 797 89 q 774 78 788 90 q 728 42 761 67 q 615 -12 653 -12 q 569 44 569 -12 q 631 358 569 117 q 461 138 568 236 q 301 22 382 64 q 156 -28 214 -28 q 40 110 40 -28 q 108 519 40 285 q 215 796 157 689 q 252 851 231 826 q 300 894 274 875 q 399 938 356 936 q 139 929 254 929 q 114 944 110 929 q 144 956 118 957 q 255 947 211 950 q 324 946 299 944 q 387 949 349 947 q 478 957 425 951 q 489 947 488 957 q 469 935 490 935 q 372 908 407 935 q 311 842 342 889 q 238 700 272 782 q 176 510 204 618 q 126 175 126 322 q 228 38 126 38 q 463 163 325 38 q 524 227 494 192 q 581 303 553 263 q 647 438 629 378 q 662 485 656 464 q 674 522 668 506 q 713 649 689 574 q 768 825 736 725 q 815 897 782 868 q 888 939 833 911 q 904 942 903 946 q 894 929 906 940 q 864 883 876 911 q 801 725 833 815 q 738 517 769 635 q 728 482 735 503 q 715 431 722 461 q 679 276 693 346 q 660 149 665 207 q 658 129 658 138 q 657 114 657 121 q 713 57 657 47 q 813 136 767 67 q 810 106 817 136 q 788 34 804 76 q 747 -53 772 -8 q 685 -126 721 -97 z "},"":{"ha":903,"x_min":78,"x_max":906,"o":"m 631 358 q 641 395 635 371 q 653 445 647 419 q 665 492 660 471 q 674 522 671 514 q 682 551 678 536 q 692 585 686 567 q 517 413 621 485 q 343 318 431 351 q 259 291 297 299 q 193 286 221 283 q 96 438 78 301 q 113 533 101 479 q 142 642 125 586 q 182 750 160 697 q 229 843 204 803 q 254 871 240 858 q 283 894 268 883 q 372 936 332 931 q 240 931 303 933 q 122 929 178 929 q 97 944 93 929 q 128 956 101 957 q 238 947 193 950 q 307 946 282 944 q 370 949 332 947 q 461 957 408 951 q 472 947 471 957 q 453 935 474 935 q 356 908 392 935 q 285 817 314 871 q 237 707 257 764 q 206 593 217 650 q 189 492 194 536 q 272 342 172 354 q 521 438 371 331 q 656 563 590 486 q 738 688 714 631 l 711 611 q 701 598 706 604 q 692 585 697 592 q 726 692 707 632 q 768 825 744 751 q 815 897 782 868 q 888 939 832 910 q 904 942 903 946 q 894 929 906 940 q 864 883 876 911 q 801 724 833 815 q 738 517 769 633 q 728 482 735 503 q 715 431 722 461 q 679 276 693 346 q 660 149 665 207 q 658 129 658 138 q 657 114 657 121 q 713 57 657 47 q 813 136 767 67 q 828 147 821 150 q 822 126 836 144 q 728 42 797 92 q 615 -12 653 -12 q 569 44 569 -12 q 631 358 569 118 z "},"":{"ha":1435,"x_min":40,"x_max":1468,"o":"m 631 358 q 461 138 568 235 q 301 22 385 67 q 156 -28 214 -28 q 40 110 40 -28 q 108 519 40 282 q 215 796 157 689 q 252 851 231 826 q 300 894 274 875 q 399 938 356 936 q 139 929 254 929 q 114 944 110 929 q 144 956 118 957 q 254 947 210 950 q 324 946 299 944 q 387 949 349 947 q 478 957 425 951 q 489 947 488 957 q 469 935 490 935 q 372 908 408 935 q 311 842 343 890 q 238 700 272 782 q 176 510 204 618 q 126 175 126 322 q 228 38 126 38 q 463 163 325 38 q 524 227 494 192 q 581 303 553 263 q 647 438 629 378 l 631 358 m 736 510 q 686 175 686 322 q 788 38 686 38 q 1022 163 885 38 q 1083 227 1054 192 q 1140 303 1113 263 q 1182 374 1164 340 q 1210 438 1200 407 q 1224 485 1218 464 q 1236 522 1231 506 q 1275 649 1251 574 q 1331 825 1299 725 q 1378 897 1344 868 q 1450 939 1394 910 q 1467 942 1465 946 q 1457 929 1468 940 q 1426 883 1439 911 q 1364 724 1396 815 q 1300 517 1332 633 q 1291 482 1297 503 q 1278 431 1285 461 q 1242 276 1256 346 q 1222 149 1228 207 q 1220 129 1221 138 q 1219 114 1219 121 q 1275 57 1219 47 q 1375 136 1329 67 q 1390 147 1383 150 q 1385 126 1399 144 q 1290 42 1360 92 q 1178 -12 1215 -12 q 1132 44 1132 -12 q 1146 161 1132 83 q 1190 358 1160 239 q 1021 138 1128 235 q 861 22 944 67 q 715 -28 774 -28 q 600 110 600 -28 q 668 519 600 282 q 708 648 683 571 q 764 825 732 725 q 811 897 778 868 q 883 939 828 910 q 900 942 899 946 q 890 929 901 940 q 860 883 872 911 q 799 721 829 815 q 736 510 768 626 z "},"":{"ha":1435,"x_min":40,"x_max":1468,"o":"m 631 358 q 461 138 568 235 q 301 22 385 67 q 156 -28 214 -28 q 40 110 40 -28 q 108 519 40 282 q 215 796 157 689 q 252 851 231 826 q 300 894 274 875 q 399 938 356 936 q 139 929 254 929 q 114 944 110 929 q 144 956 118 957 q 254 947 210 950 q 324 946 299 944 q 387 949 349 947 q 478 957 425 951 q 489 947 488 957 q 469 935 490 935 q 372 908 408 935 q 311 842 343 890 q 238 700 272 782 q 176 510 204 618 q 126 175 126 322 q 228 38 126 38 q 463 163 325 38 q 524 227 494 192 q 581 303 553 263 q 647 438 629 378 l 631 358 m 736 510 q 686 175 686 322 q 788 38 686 38 q 1022 163 885 38 q 1083 227 1054 192 q 1140 303 1113 263 q 1182 374 1164 340 q 1210 438 1200 407 q 1224 485 1218 464 q 1236 522 1231 506 q 1275 649 1251 574 q 1331 825 1299 725 q 1378 897 1344 868 q 1450 939 1394 910 q 1467 942 1465 946 q 1457 929 1468 940 q 1426 883 1439 911 q 1364 724 1396 815 q 1300 517 1332 633 q 1291 482 1297 503 q 1278 431 1285 461 q 1242 276 1256 346 q 1222 149 1228 207 q 1220 129 1221 138 q 1219 114 1219 121 q 1275 57 1219 47 q 1375 136 1329 67 q 1390 147 1383 150 q 1385 126 1399 144 q 1290 42 1360 92 q 1178 -12 1215 -12 q 1132 44 1132 -12 q 1146 161 1132 83 q 1190 358 1160 239 q 1021 138 1128 235 q 861 22 944 67 q 715 -28 774 -28 q 600 110 600 -28 q 668 519 600 282 q 708 648 683 571 q 764 825 732 725 q 811 897 778 868 q 883 939 828 910 q 900 942 899 946 q 890 929 901 940 q 860 883 872 911 q 799 721 829 815 q 736 510 768 626 m 1389 147 q 1387 117 1393 147 q 1365 44 1381 86 q 1324 -42 1350 3 q 1261 -115 1297 -86 q 1157 -147 1224 -139 q 1039 -160 1115 -153 q 936 -168 968 -164 q 851 -197 874 -178 q 821 -260 828 -215 q 818 -290 819 -272 q 814 -328 817 -307 q 807 -343 814 -346 q 803 -322 801 -340 q 807 -276 804 -300 q 817 -222 810 -251 q 932 -100 839 -115 q 1082 -103 979 -92 q 1229 -106 1183 -114 q 1283 -74 1258 -101 q 1328 -10 1308 -46 q 1361 63 1349 26 q 1378 121 1374 100 l 1389 147 z "},"":{"ha":935,"x_min":-39,"x_max":881,"o":"m 464 1007 q 283 1011 368 1013 q 135 972 182 1008 q 88 904 101 946 q 76 894 83 893 q 69 910 65 896 q 136 985 79 946 q 307 1053 231 1051 q 469 1040 357 1054 q 656 1017 628 1021 q 735 1057 693 1042 l 736 1057 q 744 1061 740 1063 q 747 1060 746 1060 q 754 1054 754 1060 q 743 1043 754 1047 q 661 997 718 1004 q 608 938 629 967 q 574 873 596 922 q 526 753 553 824 q 468 594 499 682 q 435 500 451 547 q 458 504 444 501 q 503 508 479 507 q 546 508 528 508 l 574 508 q 683 491 628 508 q 781 444 738 474 q 853 374 825 414 q 881 290 881 335 q 849 167 881 224 q 764 70 818 111 q 638 7 710 29 q 483 -15 565 -15 q 428 -13 461 -15 q 356 -8 394 -11 q 277 0 317 -4 q 203 8 238 4 q 146 13 169 11 q 117 15 122 15 q -24 -14 22 15 q -36 -19 -33 -19 q -39 -15 -39 -19 q -28 17 -39 3 q 1 40 -17 31 q 39 54 18 49 q 79 60 60 60 l 101 60 q 124 58 113 60 q 198 93 165 58 q 258 187 231 128 q 309 324 285 246 q 358 489 333 403 q 442 760 414 682 q 558 940 481 871 q 624 996 585 967 q 558 1000 604 997 q 464 1007 494 1006 m 407 417 q 347 269 376 331 q 288 164 318 207 q 226 94 258 121 q 160 51 194 67 q 206 43 167 51 q 296 26 244 35 q 402 9 347 17 q 496 1 457 1 q 610 21 557 1 q 701 76 663 40 q 760 163 739 111 q 782 276 782 214 q 744 393 782 351 q 651 455 707 435 q 531 479 596 475 q 429 485 476 483 q 407 417 418 451 m 688 1018 q 725 1038 713 1024 q 688 1018 707 1031 z "},"":{"ha":1267,"x_min":-39,"x_max":1519,"o":"m 675 1032 q 508 972 596 1021 q 322 813 397 911 q 228 563 228 689 q 265 458 228 481 q 272 446 274 451 q 258 447 269 436 q 183 600 183 501 q 274 822 183 711 q 506 993 356 922 q 790 1065 656 1064 q 821 1049 821 1065 q 801 1036 821 1035 q 770 1038 789 1036 q 740 1040 751 1040 q 665 999 700 1029 q 608 938 631 968 q 574 873 596 922 q 526 753 553 824 q 468 594 499 682 q 435 500 451 547 q 458 504 444 501 q 503 508 479 507 q 546 508 528 508 l 574 508 q 683 491 628 508 q 781 444 738 474 q 853 374 825 414 q 881 290 881 335 q 849 167 881 224 q 764 70 818 111 q 638 7 710 29 q 483 -15 565 -15 q 428 -13 461 -15 q 356 -8 394 -11 q 277 0 317 -4 q 203 8 238 4 q 146 13 169 11 q 117 15 122 15 q -24 -14 22 15 q -36 -19 -33 -19 q -39 -15 -39 -19 q -28 17 -39 3 q 1 40 -17 31 q 39 54 18 49 q 79 60 60 60 l 101 60 q 124 58 113 60 q 198 93 165 58 q 258 187 231 128 q 309 324 285 246 q 358 489 333 403 q 442 760 414 682 q 558 940 481 871 q 610 986 578 960 q 675 1032 643 1013 m 407 417 q 347 269 376 331 q 288 164 318 207 q 226 94 258 121 q 160 51 194 67 q 206 43 167 51 q 296 26 244 35 q 402 9 347 17 q 496 1 457 1 q 610 21 557 1 q 701 76 663 40 q 760 163 739 111 q 782 276 782 214 q 744 393 782 351 q 651 455 707 435 q 531 479 596 475 q 429 485 476 483 q 407 417 418 451 m 1414 1022 q 1154 1015 1238 1015 q 1129 1026 1126 1015 q 1160 1038 1133 1040 q 1339 1031 1263 1029 q 1507 1043 1389 1032 q 1518 1032 1517 1043 q 1513 1022 1519 1025 q 1499 1019 1506 1019 q 1385 994 1422 1024 q 1329 910 1357 972 q 1207 508 1283 806 q 1114 158 1175 381 q 1064 78 1096 104 q 974 33 1040 60 q 1203 42 1093 42 q 1239 28 1243 42 q 1203 21 1236 18 q 1036 28 1100 29 q 905 13 989 26 q 789 -10 821 0 q 761 -1 765 -17 q 786 21 754 21 q 926 29 863 21 q 1050 197 990 38 q 1143 528 1079 281 q 1236 872 1169 639 q 1303 978 1264 943 q 1414 1022 1343 1013 z "},"":{"ha":925,"x_min":-39,"x_max":881,"o":"m 675 1032 q 508 972 596 1021 q 322 813 397 911 q 228 563 228 689 q 265 458 228 481 q 272 446 274 451 q 258 447 269 436 q 183 600 183 501 q 274 822 183 711 q 506 993 356 922 q 790 1065 656 1064 q 821 1049 821 1065 q 801 1036 821 1035 q 770 1038 789 1036 q 740 1040 751 1040 q 665 999 700 1029 q 608 938 631 968 q 574 873 596 922 q 526 753 553 824 q 468 594 499 682 q 435 500 451 547 q 458 504 444 501 q 503 508 479 507 q 546 508 528 508 l 572 508 q 683 491 628 508 q 781 444 738 474 q 853 374 825 414 q 881 290 881 335 q 849 167 881 224 q 764 70 818 111 q 638 7 710 29 q 483 -15 565 -15 q 428 -13 461 -15 q 356 -8 394 -11 q 277 0 317 -4 q 203 8 238 4 q 146 13 169 11 q 117 15 122 15 q -24 -14 22 15 q -36 -19 -33 -19 q -39 -15 -39 -19 q -28 17 -39 3 q 1 40 -17 31 q 39 54 18 49 q 79 60 60 60 l 101 60 q 124 58 113 60 q 198 93 165 58 q 258 187 231 128 q 309 324 285 246 q 358 489 333 403 q 442 760 414 682 q 558 940 481 871 q 610 986 578 960 q 675 1032 643 1013 m 407 417 q 347 269 376 331 q 288 164 318 207 q 226 94 258 121 q 160 51 194 67 q 206 43 167 51 q 296 26 244 35 q 402 9 347 17 q 496 1 457 1 q 610 21 557 1 q 701 76 663 40 q 760 163 739 111 q 782 276 782 214 q 744 393 782 351 q 651 455 707 435 q 531 479 596 475 q 429 485 476 483 q 407 417 418 451 z "},"":{"ha":854,"x_min":-7,"x_max":844,"o":"m 450 85 q 556 193 506 128 q 650 346 606 258 q 700 465 679 407 q 642 453 678 453 q 568 456 606 453 q 433 468 483 468 q 351 428 388 468 l 347 429 q 461 511 406 511 q 579 489 483 511 q 668 475 622 475 q 707 483 692 475 q 724 538 717 511 q 751 717 750 629 q 540 989 754 972 q 314 931 425 1000 q 247 881 278 908 q 194 822 217 854 q 183 812 189 814 q 175 814 178 810 q 176 838 164 822 q 308 949 219 890 q 469 1028 393 1004 q 617 1046 546 1051 q 786 962 728 1036 q 844 769 844 888 q 715 349 842 558 q 521 105 632 210 q 261 -58 410 0 q 166 -82 210 -78 q 90 -72 122 -86 q 32 75 -7 -29 q 94 172 50 124 q 111 179 106 183 q 106 168 113 174 q 82 121 92 151 q 83 51 69 81 q 139 6 96 22 q 208 -10 168 -8 q 292 -1 249 -11 q 376 31 335 10 q 450 85 418 53 z "},"":{"ha":1414,"x_min":-204,"x_max":1361,"o":"m 1146 925 q 1311 838 1254 925 q 1361 642 1361 761 q 1289 343 1361 511 q 1111 69 1217 175 q 975 -28 1051 10 q 833 -67 899 -67 q 667 15 724 -67 q 615 211 615 89 q 664 479 615 346 q 629 479 647 479 q 563 481 615 479 q 415 489 510 483 q 408 462 413 478 q 396 425 403 446 q 304 146 339 225 q 150 -71 246 13 q -96 -199 6 -194 q -204 -150 -204 -203 q -201 -137 -204 -146 q -167 -128 -193 -118 q -62 -149 -111 -149 q 96 -96 43 -149 q 236 150 172 -18 q 273 256 251 189 q 322 421 294 324 q 332 451 326 432 q 344 493 338 469 l 276 493 q -7 378 58 493 q -21 364 -17 363 q -18 383 -26 368 q 231 533 63 531 q 295 532 264 533 q 354 528 326 531 q 386 638 365 571 q 438 801 407 706 q 604 951 483 926 q 480 947 556 949 q 300 946 404 946 q 271 967 264 946 q 304 972 272 976 q 381 965 340 968 q 465 961 421 963 l 603 961 q 636 958 636 961 q 617 946 638 950 q 533 838 579 939 q 482 704 510 782 q 424 524 454 626 q 674 507 592 508 q 706 575 688 540 q 897 825 786 733 q 1146 925 1019 925 m 1269 582 q 1224 793 1269 717 q 1058 875 1169 886 q 906 806 975 867 q 756 569 814 725 q 735 507 744 539 q 861 554 831 514 l 854 529 q 728 483 818 494 q 701 274 701 379 q 907 -15 701 -15 q 1100 88 1001 -15 q 1224 321 1172 164 q 1269 582 1269 465 z "},"":{"ha":931,"x_min":-224,"x_max":1200,"o":"m 504 510 q 421 540 461 521 q 349 586 381 560 q 299 644 318 613 q 281 713 281 676 q 312 835 281 779 q 397 933 343 892 q 524 996 451 974 q 678 1018 596 1018 q 767 1013 710 1018 q 883 1003 825 1008 q 988 992 942 997 q 1044 988 1035 988 q 1185 1017 1139 988 q 1197 1022 1194 1022 q 1200 1018 1200 1022 q 1189 986 1200 1000 q 1160 963 1178 972 q 1122 948 1143 953 q 1082 943 1101 943 q 1060 943 1071 943 q 1038 944 1049 943 q 963 912 996 944 q 903 823 931 879 q 852 690 876 767 q 803 528 828 614 q 713 113 713 229 q 751 44 713 44 q 856 110 794 44 l 875 129 q 876 125 876 128 q 851 86 876 111 q 790 37 825 61 q 722 -6 756 13 q 669 -24 688 -24 q 626 38 626 -24 q 632 82 626 49 q 647 160 638 115 q 668 256 657 204 q 692 359 679 308 q 715 453 704 410 q 735 525 726 497 q 807 708 776 635 q 866 829 838 782 q 926 904 894 876 q 1001 951 957 932 q 956 959 994 951 q 865 976 917 967 q 759 994 814 986 q 665 1001 704 1001 q 551 982 604 1001 q 460 927 499 963 q 401 840 422 892 q 379 726 379 789 q 394 647 379 682 q 435 584 410 611 q 497 540 461 557 q 574 517 532 522 q 624 517 601 514 q 667 522 647 519 q 672 513 672 522 q 656 497 669 497 q 607 496 643 496 q 595 498 603 496 q 581 503 588 500 q 567 506 574 506 q 556 503 560 507 q 474 404 517 461 q 383 285 431 347 q 285 163 336 224 q 181 56 235 103 q 71 -21 128 8 q -46 -49 14 -50 q -139 -37 -99 -49 q -212 6 -179 -26 q -214 19 -224 11 q -187 8 -212 19 q -125 -6 -161 -4 q 253 221 26 -6 q 394 378 336 310 q 504 510 451 447 z "},"":{"ha":575,"x_min":-25,"x_max":544,"o":"m 535 125 q 529 106 544 121 q 426 24 486 63 q 335 -14 367 -14 q 286 40 286 -14 q 346 329 286 139 q 236 163 317 258 q 13 -12 89 -12 q -24 51 -25 -12 q 75 392 -21 214 q 232 571 126 486 q 390 643 325 646 q 446 568 453 640 q 500 614 479 594 q 521 624 515 629 q 515 607 524 621 q 413 343 454 501 q 378 136 381 219 q 379 81 376 93 q 417 50 386 50 q 522 117 456 50 q 535 125 532 126 m 413 529 q 417 551 417 540 q 378 597 417 588 q 351 600 365 600 q 239 556 292 600 q 110 333 164 492 q 64 115 63 196 q 90 61 65 61 q 225 172 135 61 q 413 529 326 297 z "},"":{"ha":460,"x_min":0,"x_max":639,"o":"m 96 -12 q 0 135 0 -12 q 33 343 0 240 q 48 412 39 372 q 72 494 57 451 q 106 580 86 538 q 153 658 126 622 q 192 697 171 679 q 241 734 213 715 q 307 774 269 753 q 397 824 344 796 q 497 875 457 854 q 561 913 536 896 q 598 947 586 931 q 615 983 610 963 q 622 1034 621 1004 q 626 1107 624 1064 q 625 1117 625 1110 q 635 1128 625 1128 q 639 1111 639 1128 l 639 1081 q 630 947 639 1000 q 592 856 621 893 q 510 789 564 818 q 368 729 457 760 q 266 694 310 710 q 199 664 222 679 q 132 581 161 640 q 83 454 103 521 q 144 538 110 500 q 221 603 178 576 q 321 639 278 639 q 419 496 419 639 q 382 277 419 378 q 272 96 344 176 q 96 -12 176 -12 m 158 42 q 233 81 199 43 q 291 176 267 118 q 329 306 315 235 q 343 449 343 378 q 320 556 343 514 q 257 597 297 597 q 188 558 221 597 q 129 459 154 519 q 89 326 104 399 q 74 185 74 253 q 96 81 74 119 q 158 42 118 42 z "}}}
